# 3ds Max Wavefront OBJ Exporter v0.97b - (c)2007 guruware
# File Created: 04.10.2014 11:51:18

mtllib barrel.mtl

#
# object Cylinder001
#

v  5.4775 0.0000 -0.0000
v  3.8732 0.0000 -3.8732
v  4.7725 5.9424 -4.7725
v  6.7494 5.9424 -0.0000
v  -0.0000 0.0000 -5.4775
v  -0.0000 5.9424 -6.7494
v  -3.8732 0.0000 -3.8732
v  -4.7725 5.9424 -4.7725
v  -5.4775 0.0000 0.0000
v  -6.7494 5.9424 0.0000
v  -3.8732 0.0000 3.8732
v  -4.7725 5.9424 4.7725
v  0.0000 0.0000 5.4775
v  0.0000 5.9424 6.7494
v  3.8732 0.0000 3.8732
v  4.7725 5.9424 4.7725
v  4.7725 11.8848 -4.7725
v  6.7494 11.8848 -0.0000
v  -0.0000 11.8848 -6.7494
v  -4.7725 11.8848 -4.7725
v  -6.7494 11.8848 0.0000
v  -4.7725 11.8848 4.7725
v  0.0000 11.8848 6.7494
v  4.7725 11.8848 4.7725
v  3.9666 17.8271 -3.9666
v  5.6096 17.8271 -0.0000
v  -0.0000 17.8271 -5.6096
v  -3.9666 17.8271 -3.9666
v  -5.6096 17.8271 0.0000
v  -3.9666 17.8271 3.9666
v  0.0000 17.8271 5.6096
v  3.9666 17.8271 3.9666
v  3.2446 16.8271 -3.2446
v  -0.0000 16.8271 -4.5886
v  -3.2446 16.8271 -3.2446
v  3.2446 16.8271 3.2446
v  -4.5886 16.8271 0.0000
v  -3.2446 16.8271 3.2446
v  0.0000 16.8271 4.5886
v  4.5886 16.8271 -0.0000
v  -4.5886 17.8271 0.0000
v  -3.2446 17.8271 3.2446
v  0.0000 17.8271 4.5886
v  3.2446 17.8271 3.2446
v  4.5886 17.8271 -0.0000
v  3.2446 17.8271 -3.2446
v  -0.0000 17.8271 -4.5886
v  -3.2446 17.8271 -3.2446
# 48 vertices

vn 0.9779 -0.2093 0.0000
vn 0.6914 -0.2093 -0.6914
vn 0.7034 -0.1026 -0.7034
vn 0.9947 -0.1026 0.0000
vn 0.0000 -0.2093 -0.9779
vn -0.0000 -0.1026 -0.9947
vn -0.6914 -0.2093 -0.6914
vn -0.7034 -0.1026 -0.7034
vn -0.9779 -0.2093 0.0000
vn -0.9947 -0.1026 0.0000
vn -0.6914 -0.2093 0.6914
vn -0.7034 -0.1026 0.7034
vn 0.0000 -0.2093 0.9779
vn -0.0000 -0.1026 0.9947
vn 0.6914 -0.2093 0.6914
vn 0.7034 -0.1026 0.7034
vn 0.7041 0.0925 -0.7041
vn 0.9957 0.0925 -0.0000
vn -0.0000 0.0925 -0.9957
vn -0.7041 0.0925 -0.7041
vn -0.9957 0.0925 0.0000
vn -0.7041 0.0925 0.7041
vn 0.0000 0.0925 0.9957
vn 0.7041 0.0925 0.7041
vn 0.6944 0.1884 -0.6944
vn 0.9821 0.1884 -0.0000
vn -0.0000 0.1884 -0.9821
vn -0.6944 0.1884 -0.6944
vn -0.9821 0.1884 0.0000
vn -0.6944 0.1884 0.6944
vn 0.0000 0.1884 0.9821
vn 0.6944 0.1884 0.6944
vn 0.0000 -1.0000 -0.0000
vn 0.0000 1.0000 -0.0000
vn -0.9239 0.0000 0.3827
vn -0.3827 0.0000 0.9239
vn 0.3827 0.0000 0.9239
vn 0.9239 0.0000 0.3827
vn 0.9239 0.0000 -0.3827
vn 0.3827 0.0000 -0.9239
vn -0.3827 0.0000 -0.9239
vn -0.9239 0.0000 -0.3827
# 42 vertex normals

vt 0.0673 0.7368 1.0000
vt 0.0383 0.7368 1.0000
vt 0.0383 0.6595 1.0000
vt 0.0673 0.6595 1.0000
vt 0.0093 0.7368 1.0000
vt 0.0093 0.6595 1.0000
vt 0.2413 0.7368 1.0000
vt 0.2123 0.7368 1.0000
vt 0.2123 0.6595 1.0000
vt 0.2413 0.6595 1.0000
vt 0.1833 0.7368 1.0000
vt 0.1833 0.6595 1.0000
vt 0.1543 0.7368 1.0000
vt 0.1543 0.6595 1.0000
vt 0.1253 0.7368 1.0000
vt 0.1253 0.6595 1.0000
vt 0.0963 0.7368 1.0000
vt 0.0963 0.6595 1.0000
vt 0.0383 0.5821 1.0000
vt 0.0673 0.5821 1.0000
vt 0.0093 0.5821 1.0000
vt 0.2123 0.5821 1.0000
vt 0.2413 0.5821 1.0000
vt 0.1833 0.5821 1.0000
vt 0.1543 0.5821 1.0000
vt 0.1253 0.5821 1.0000
vt 0.0963 0.5821 1.0000
vt 0.0383 0.5048 1.0000
vt 0.0673 0.5048 1.0000
vt 0.0093 0.5048 1.0000
vt 0.2123 0.5048 1.0000
vt 0.2413 0.5048 1.0000
vt 0.1833 0.5048 1.0000
vt 0.1543 0.5048 1.0000
vt 0.1253 0.5048 1.0000
vt 0.0963 0.5048 1.0000
vt 0.0661 0.0330 -0.2500
vt 0.0564 0.0097 -0.2500
vt 0.0330 0.0000 -0.2500
vt 0.0330 0.0661 -0.2500
vt 0.0097 0.0097 -0.2500
vt 0.0000 0.0330 -0.2500
vt 0.0097 0.0564 -0.2500
vt 0.0564 0.0564 -0.2500
vt 0.0097 0.0564 0.2500
vt 0.0000 0.0330 0.2500
vt 0.0097 0.0097 0.2500
vt 0.0564 0.0564 0.2500
vt 0.0330 0.0000 0.2500
vt 0.0564 0.0097 0.2500
vt 0.0661 0.0330 0.2500
vt 0.0330 0.0661 0.2500
vt 0.0173 0.3666 0.0000
vt 0.0123 0.3663 0.0000
vt 0.0181 0.3466 0.0000
vt 0.0225 0.3489 0.0000
vt 0.0312 0.3309 0.0000
vt 0.0344 0.3347 0.0000
vt 0.0487 0.3207 0.0000
vt 0.0504 0.3254 0.0000
vt 0.0693 0.3175 0.0000
vt 0.0681 0.3223 0.0000
vt 0.0618 0.4172 0.0000
vt 0.0624 0.4221 0.0000
vt 0.0425 0.4163 0.0000
vt 0.0448 0.4117 0.0000
vt 0.0264 0.4039 0.0000
vt 0.0301 0.4005 0.0000
vt 0.0155 0.3866 0.0000
vt 0.0202 0.3849 0.0000
vt 0.0470 0.4073 0.0000
vt 0.0633 0.4126 0.0000
vt 0.0337 0.3972 0.0000
vt 0.0247 0.3832 0.0000
vt 0.0221 0.3669 0.0000
vt 0.0268 0.3511 0.0000
vt 0.0375 0.3384 0.0000
vt 0.0520 0.3301 0.0000
vt 0.0689 0.3271 0.0000
# 79 texture coords

g Cylinder001
usemtl 10___Default
s 8
f 1/1/1 2/2/2 3/3/3 4/4/4 
f 2/2/2 5/5/5 6/6/6 3/3/3 
f 5/7/5 7/8/7 8/9/8 6/10/6 
f 7/8/7 9/11/9 10/12/10 8/9/8 
f 9/11/9 11/13/11 12/14/12 10/12/10 
f 11/13/11 13/15/13 14/16/14 12/14/12 
f 13/15/13 15/17/15 16/18/16 14/16/14 
f 15/17/15 1/1/1 4/4/4 16/18/16 
f 4/4/4 3/3/3 17/19/17 18/20/18 
f 3/3/3 6/6/6 19/21/19 17/19/17 
f 6/10/6 8/9/8 20/22/20 19/23/19 
f 8/9/8 10/12/10 21/24/21 20/22/20 
f 10/12/10 12/14/12 22/25/22 21/24/21 
f 12/14/12 14/16/14 23/26/23 22/25/22 
f 14/16/14 16/18/16 24/27/24 23/26/23 
f 16/18/16 4/4/4 18/20/18 24/27/24 
f 18/20/18 17/19/17 25/28/25 26/29/26 
f 17/19/17 19/21/19 27/30/27 25/28/25 
f 19/23/19 20/22/20 28/31/28 27/32/27 
f 20/22/20 21/24/21 29/33/29 28/31/28 
f 21/24/21 22/25/22 30/34/30 29/33/29 
f 22/25/22 23/26/23 31/35/31 30/34/30 
f 23/26/23 24/27/24 32/36/32 31/35/31 
f 24/27/24 18/20/18 26/29/26 32/36/32 
s 1
f 13/37/33 11/38/33 9/39/33 1/40/33 
f 9/39/33 7/41/33 5/42/33 1/40/33 
f 5/42/33 2/43/33 1/40/33 
f 15/44/33 13/37/33 1/40/33 
f 33/45/34 34/46/34 35/47/34 36/48/34 
f 35/47/34 37/49/34 38/50/34 36/48/34 
f 38/50/34 39/51/34 36/48/34 
f 40/52/34 33/45/34 36/48/34 
s 2
f 41/53/34 29/54/34 30/55/34 42/56/34 
s 4
f 42/56/34 30/55/34 31/57/34 43/58/34 
f 43/58/34 31/57/34 32/59/34 44/60/34 
s 16
f 44/60/34 32/59/34 26/61/34 45/62/34 
s 4
f 45/63/34 26/64/34 25/65/34 46/66/34 
f 46/66/34 25/65/34 27/67/34 47/68/34 
s 16
f 47/68/34 27/67/34 28/69/34 48/70/34 
f 48/70/34 28/69/34 29/54/34 41/53/34 
s off
f 45/63/35 46/66/35 33/71/35 40/72/35 
f 46/66/36 47/68/36 34/73/36 33/71/36 
f 47/68/37 48/70/37 35/74/37 34/73/37 
f 48/70/38 41/53/38 37/75/38 35/74/38 
f 41/53/39 42/56/39 38/76/39 37/75/39 
f 42/56/40 43/58/40 39/77/40 38/76/40 
f 43/58/41 44/60/41 36/78/41 39/77/41 
f 44/60/42 45/62/42 40/79/42 36/78/42 
# 44 polygons - 4 triangles

