# 3ds Max Wavefront OBJ Exporter v0.97b - (c)2007 guruware
# File Created: 09.10.2014 20:25:13

mtllib bus_stop.mtl

#
# object Plane001
#

v  -50.0000 66.3194 35.4678
v  50.0000 66.3194 35.4678
v  50.0000 66.3194 5.4678
v  -50.0000 66.3194 5.4678
v  -50.0000 9.2614 -1.3264
v  50.0000 9.2614 -1.3264
v  50.0000 39.2614 -1.3264
v  -50.0000 39.2614 -1.3264
v  -0.8323 1.7557 1.6444
v  -0.8323 1.7557 -0.3803
v  0.8323 1.7557 -0.3803
v  0.8323 1.7557 1.6444
v  -0.8323 64.0560 36.0310
v  0.8323 64.0560 36.0310
v  0.8323 66.0807 36.0310
v  -0.8323 66.0807 36.0310
v  0.8323 61.6579 1.6444
v  -0.8323 61.6579 1.6444
v  0.8323 61.6579 -0.3803
v  -0.8323 61.6579 -0.3803
v  0.8323 64.0560 4.6257
v  -0.8323 64.0560 4.6257
v  0.8323 66.0807 4.6257
v  -0.8323 66.0807 4.6257
v  0.8323 64.0560 11.3826
v  -0.8323 64.0560 11.3826
v  0.8323 66.0807 11.3826
v  -0.8323 66.0807 11.3826
v  -50.8323 1.7557 1.6444
v  -50.8323 1.7557 -0.3803
v  -49.1677 1.7557 -0.3803
v  -49.1677 1.7557 1.6444
v  -50.8323 64.0560 36.0310
v  -49.1677 64.0560 36.0310
v  -49.1677 66.0807 36.0310
v  -50.8323 66.0807 36.0310
v  -49.1677 61.6579 1.6444
v  -50.8323 61.6579 1.6444
v  -49.1677 61.6579 -0.3803
v  -50.8323 61.6579 -0.3803
v  -49.1677 64.0560 4.6257
v  -50.8323 64.0560 4.6257
v  -49.1677 66.0807 4.6257
v  -50.8323 66.0807 4.6257
v  -49.1677 64.0560 11.3826
v  -50.8323 64.0560 11.3826
v  -49.1677 66.0807 11.3826
v  -50.8323 66.0807 11.3826
v  49.1677 1.7557 1.6444
v  49.1677 1.7557 -0.3803
v  50.8323 1.7557 -0.3803
v  50.8323 1.7557 1.6444
v  49.1677 64.0560 36.0310
v  50.8323 64.0560 36.0310
v  50.8323 66.0807 36.0310
v  49.1677 66.0807 36.0310
v  50.8323 61.6579 1.6444
v  49.1677 61.6579 1.6444
v  50.8323 61.6579 -0.3803
v  49.1677 61.6579 -0.3803
v  50.8323 64.0560 4.6257
v  49.1677 64.0560 4.6257
v  50.8323 66.0807 4.6257
v  49.1677 66.0807 4.6257
v  50.8323 64.0560 11.3826
v  49.1677 64.0560 11.3826
v  50.8323 66.0807 11.3826
v  49.1677 66.0807 11.3826
# 68 vertices

vn 0.0000 1.0000 -0.0000
vn 0.0000 0.0000 1.0000
vn 0.0000 -1.0000 -0.0000
vn 0.0000 -0.4320 0.9019
vn 1.0000 0.0000 -0.0000
vn 0.0000 0.0000 -1.0000
vn 0.0000 0.4110 -0.9116
vn -1.0000 0.0000 -0.0000
vn 0.0000 -0.9432 0.3323
vn 0.0000 0.9353 -0.3540
# 10 vertex normals

vt 0.6255 0.3952 0.0000
vt 0.7493 0.3952 0.0000
vt 0.7493 0.4323 0.0000
vt 0.6255 0.4323 0.0000
vt 0.4599 0.4050 0.0000
vt 0.4599 0.4810 0.0000
vt 0.3975 0.4810 0.0000
vt 0.3975 0.4050 0.0000
vt 0.4645 0.2526 0.0000
vt 0.4633 0.4066 0.0000
vt 0.4591 0.4066 0.0000
vt 0.4603 0.2526 0.0000
vt 0.4169 0.2528 0.0000
vt 0.4169 0.4755 0.0000
vt 0.4094 0.4755 0.0000
vt 0.4094 0.2528 0.0000
vt 0.4499 0.2535 0.0000
vt 0.4510 0.4030 0.0000
vt 0.4469 0.4030 0.0000
vt 0.4458 0.2535 0.0000
vt 0.3603 0.2553 0.0000
vt 0.3639 0.4780 0.0000
vt 0.3564 0.4781 0.0000
vt 0.3527 0.2555 0.0000
vt 0.4633 0.4165 0.0000
vt 0.4590 0.4164 0.0000
vt 0.3983 0.4920 0.0000
vt 0.3983 0.4844 0.0000
vt 0.4511 0.4197 0.0000
vt 0.4469 0.4197 0.0000
vt 0.3751 0.4869 0.0000
vt 0.3751 0.4944 0.0000
vt 0.4631 0.4339 0.0000
vt 0.4588 0.4338 0.0000
vt 0.3732 0.4920 0.0000
vt 0.3732 0.4844 0.0000
vt 0.4511 0.4366 0.0000
vt 0.4469 0.4366 0.0000
vt 0.4002 0.4866 0.0000
vt 0.4003 0.4942 0.0000
vt 0.4624 0.4972 0.0000
vt 0.4581 0.4972 0.0000
vt 0.2815 0.4920 0.0000
vt 0.2815 0.4844 0.0000
vt 0.4510 0.4981 0.0000
vt 0.4469 0.4981 0.0000
vt 0.4918 0.4858 0.0000
vt 0.4919 0.4934 0.0000
# 48 texture coords

g Plane001
usemtl 08___Default
s 1
f 1/1/1 2/2/1 3/3/1 4/4/1 
f 5/1/2 6/2/2 7/3/2 8/4/2 
s 2
f 9/5/3 10/6/3 11/7/3 12/8/3 
s 4
f 13/8/2 14/5/2 15/6/2 16/7/2 
s 8
f 12/9/2 17/10/4 18/11/4 9/12/2 
s 16
f 11/13/5 19/14/5 17/15/5 12/16/5 
s 32
f 10/17/6 20/18/7 19/19/7 11/20/6 
s 64
f 9/21/8 18/22/8 20/23/8 10/24/8 
s 8
f 21/25/9 22/26/9 18/11/4 17/10/4 
s 16
f 23/27/5 21/28/5 17/15/5 19/14/5 
s 32
f 24/29/10 23/30/10 19/19/7 20/18/7 
s 64
f 22/31/8 24/32/8 20/23/8 18/22/8 
s 8
f 25/33/3 26/34/3 22/26/9 21/25/9 
s 16
f 27/35/5 25/36/5 21/28/5 23/27/5 
s 32
f 28/37/1 27/38/1 23/30/10 24/29/10 
s 64
f 26/39/8 28/40/8 24/32/8 22/31/8 
s 8
f 14/41/3 13/42/3 26/34/3 25/33/3 
s 16
f 15/43/5 14/44/5 25/36/5 27/35/5 
s 32
f 16/45/1 15/46/1 27/38/1 28/37/1 
s 64
f 13/47/8 16/48/8 28/40/8 26/39/8 
s 2
f 29/5/3 30/6/3 31/7/3 32/8/3 
s 4
f 33/8/2 34/5/2 35/6/2 36/7/2 
s 8
f 32/9/2 37/10/4 38/11/4 29/12/2 
s 16
f 31/13/5 39/14/5 37/15/5 32/16/5 
s 32
f 30/17/6 40/18/7 39/19/7 31/20/6 
s 64
f 29/21/8 38/22/8 40/23/8 30/24/8 
s 8
f 41/25/9 42/26/9 38/11/4 37/10/4 
s 16
f 43/27/5 41/28/5 37/15/5 39/14/5 
s 32
f 44/29/10 43/30/10 39/19/7 40/18/7 
s 64
f 42/31/8 44/32/8 40/23/8 38/22/8 
s 8
f 45/33/3 46/34/3 42/26/9 41/25/9 
s 16
f 47/35/5 45/36/5 41/28/5 43/27/5 
s 32
f 48/37/1 47/38/1 43/30/10 44/29/10 
s 64
f 46/39/8 48/40/8 44/32/8 42/31/8 
s 8
f 34/41/3 33/42/3 46/34/3 45/33/3 
s 16
f 35/43/5 34/44/5 45/36/5 47/35/5 
s 32
f 36/45/1 35/46/1 47/38/1 48/37/1 
s 64
f 33/47/8 36/48/8 48/40/8 46/39/8 
s 2
f 49/5/3 50/6/3 51/7/3 52/8/3 
s 4
f 53/8/2 54/5/2 55/6/2 56/7/2 
s 8
f 52/9/2 57/10/4 58/11/4 49/12/2 
s 16
f 51/13/5 59/14/5 57/15/5 52/16/5 
s 32
f 50/17/6 60/18/7 59/19/7 51/20/6 
s 64
f 49/21/8 58/22/8 60/23/8 50/24/8 
s 8
f 61/25/9 62/26/9 58/11/4 57/10/4 
s 16
f 63/27/5 61/28/5 57/15/5 59/14/5 
s 32
f 64/29/10 63/30/10 59/19/7 60/18/7 
s 64
f 62/31/8 64/32/8 60/23/8 58/22/8 
s 8
f 65/33/3 66/34/3 62/26/9 61/25/9 
s 16
f 67/35/5 65/36/5 61/28/5 63/27/5 
s 32
f 68/37/1 67/38/1 63/30/10 64/29/10 
s 64
f 66/39/8 68/40/8 64/32/8 62/31/8 
s 8
f 54/41/3 53/42/3 66/34/3 65/33/3 
s 16
f 55/43/5 54/44/5 65/36/5 67/35/5 
s 32
f 56/45/1 55/46/1 67/38/1 68/37/1 
s 64
f 53/47/8 56/48/8 68/40/8 66/39/8 
# 56 polygons

