# 3ds Max Wavefront OBJ Exporter v0.97b - (c)2007 guruware
# File Created: 01.10.2014 17:54:42

mtllib collapsed_full.mtl

#
# object Box002
#

v  -5.8421 0.0000 0.7000
v  -5.8421 0.0000 -0.7000
v  -4.4421 0.0000 -0.7000
v  -4.4421 0.0000 0.7000
v  -5.8421 12.7692 0.7000
v  -4.4421 12.7692 0.7000
v  -4.4421 12.7692 -0.7000
v  -5.8421 12.7692 -0.7000
v  7.6713 0.0000 0.7000
v  7.6713 0.0000 -0.7000
v  9.0713 0.0000 -0.7000
v  9.0713 0.0000 0.7000
v  7.6713 12.7692 0.7000
v  9.0713 12.7692 0.7000
v  9.0713 12.7692 -0.7000
v  7.6713 12.7692 -0.7000
v  8.1692 9.7273 -0.5810
v  8.1692 9.7273 -1.0034
v  8.1692 11.1273 -1.0034
v  8.1692 11.1273 -0.5810
v  -4.9055 9.7273 -0.5810
v  -4.9055 11.1273 -0.5810
v  -4.9055 11.1273 -1.0034
v  -4.9055 9.7273 -1.0034
v  8.0641 4.4515 -0.5657
v  8.1734 4.4515 -0.9738
v  7.7109 5.7671 -1.0977
v  7.6016 5.7671 -0.6897
v  -3.8034 -0.0203 -3.7456
v  -4.2660 1.2953 -3.8696
v  -4.1566 1.2953 -4.2776
v  -3.6941 -0.0203 -4.1537
# 32 vertices

vn 0.0000 -1.0000 -0.0000
vn 0.0000 1.0000 -0.0000
vn 0.0000 0.0000 1.0000
vn 1.0000 0.0000 -0.0000
vn 0.0000 0.0000 -1.0000
vn -1.0000 0.0000 -0.0000
vn 0.9077 0.3420 0.2432
vn -0.9077 -0.3420 -0.2432
vn -0.2588 -0.0000 0.9659
vn -0.2588 0.0000 0.9659
vn -0.3304 0.9397 -0.0885
vn 0.2588 0.0000 -0.9659
vn 0.2588 -0.0000 -0.9659
vn 0.3304 -0.9397 0.0885
# 14 vertex normals

vt 0.5515 0.6885 0.0000
vt 0.5515 0.7317 0.0000
vt 0.5084 0.7317 0.0000
vt 0.5084 0.6885 0.0000
vt 0.5691 0.6890 0.0000
vt 0.6122 0.6890 0.0000
vt 0.6122 0.7321 0.0000
vt 0.5691 0.7321 0.0000
vt 0.7482 0.6883 0.0000
vt 0.7482 0.7314 0.0000
vt 0.5018 0.7314 0.0000
vt 0.5018 0.6883 0.0000
# 12 texture coords

g Box002
usemtl 09___Default
s 2
f 1/1/1 2/2/1 3/3/1 4/4/1 
s 4
f 5/5/2 6/6/2 7/7/2 8/8/2 
s 8
f 1/9/3 4/10/3 6/11/3 5/12/3 
s 16
f 4/9/4 3/10/4 7/11/4 6/12/4 
s 32
f 3/9/5 2/10/5 8/11/5 7/12/5 
s 64
f 2/9/6 1/10/6 5/11/6 8/12/6 
s 2
f 9/1/1 10/2/1 11/3/1 12/4/1 
s 4
f 13/5/2 14/6/2 15/7/2 16/8/2 
s 8
f 9/9/3 12/10/3 14/11/3 13/12/3 
s 16
f 12/9/4 11/10/4 15/11/4 14/12/4 
s 32
f 11/9/5 10/10/5 16/11/5 15/12/5 
s 64
f 10/9/6 9/10/6 13/11/6 16/12/6 
s 2
f 17/1/4 18/2/4 19/3/4 20/4/4 
s 4
f 21/5/6 22/6/6 23/7/6 24/8/6 
s 8
f 17/9/3 20/10/3 22/11/3 21/12/3 
s 16
f 20/9/2 19/10/2 23/11/2 22/12/2 
s 32
f 19/9/5 18/10/5 24/11/5 23/12/5 
s 64
f 18/9/1 17/10/1 21/11/1 24/12/1 
s 2
f 25/1/7 26/2/7 27/3/7 28/4/7 
s 4
f 29/5/8 30/6/8 31/7/8 32/8/8 
s 8
f 25/9/9 28/10/10 30/11/9 29/12/9 
s 16
f 28/9/11 27/10/11 31/11/11 30/12/11 
s 32
f 27/9/12 26/10/12 32/11/13 31/12/13 
s 64
f 26/9/14 25/10/14 29/11/14 32/12/14 
# 24 polygons

