# 3ds Max Wavefront OBJ Exporter v0.97b - (c)2007 guruware
# File Created: 08.10.2014 19:20:23

mtllib cover.mtl

#
# object Cylinder001
#

v  6.3057 0.0000 -0.1109
v  4.4285 0.0000 -4.6427
v  4.4285 0.9595 -4.6427
v  6.3057 0.9595 -0.1109
v  -0.1033 0.0000 -6.5198
v  -0.1033 0.9595 -6.5198
v  -4.6351 0.0000 -4.6427
v  -4.6351 0.9595 -4.6427
v  -6.5123 0.0000 -0.1109
v  -6.5123 0.9595 -0.1109
v  -4.6351 0.0000 4.4209
v  -4.6351 0.9595 4.4209
v  -0.1033 0.0000 6.2981
v  -0.1033 0.9595 6.2981
v  4.4285 0.0000 4.4209
v  4.4285 0.9595 4.4209
v  3.8542 0.9595 -4.0684
v  -0.1033 0.9595 -5.7076
v  -4.0608 0.9595 -4.0684
v  3.8542 0.9595 3.8466
v  -5.7000 0.9595 -0.1109
v  -4.0608 0.9595 3.8466
v  -0.1033 0.9595 5.4859
v  5.4934 0.9595 -0.1109
v  -0.1033 1.6252 5.4859
v  -0.1033 1.6252 6.2981
v  4.4285 1.6252 4.4209
v  3.8542 1.6252 3.8466
v  6.3057 1.6252 -0.1109
v  5.4934 1.6252 -0.1109
v  4.4285 1.6252 -4.6427
v  3.8542 1.6252 -4.0684
v  -0.1033 1.6252 -6.5198
v  -0.1033 1.6252 -5.7076
v  -4.6351 1.6252 -4.6427
v  -4.0608 1.6252 -4.0684
v  -6.5123 1.6252 -0.1109
v  -5.7000 1.6252 -0.1109
v  -4.6351 1.6252 4.4209
v  -4.0608 1.6252 3.8466
# 40 vertices

vn 1.0000 0.0000 0.0000
vn 0.7071 0.0000 -0.7071
vn -0.0000 0.0000 -1.0000
vn -0.7071 0.0000 -0.7071
vn -1.0000 0.0000 0.0000
vn -0.7071 0.0000 0.7071
vn -0.0000 0.0000 1.0000
vn 0.7071 0.0000 0.7071
vn 0.0000 -1.0000 -0.0000
vn 0.0000 1.0000 -0.0000
vn 0.9239 0.0000 -0.3827
vn 0.3827 0.0000 -0.9239
vn -0.3827 0.0000 -0.9239
vn -0.9239 0.0000 -0.3827
vn -0.9239 0.0000 0.3827
vn -0.3827 0.0000 0.9239
vn 0.3827 0.0000 0.9239
vn 0.9239 0.0000 0.3827
# 18 vertex normals

vt 0.5724 0.0123 1.0000
vt 0.5803 0.0123 1.0000
vt 0.5803 0.0759 1.0000
vt 0.5724 0.0759 1.0000
vt 0.5883 0.0123 1.0000
vt 0.5883 0.0759 1.0000
vt 0.5247 0.0123 1.0000
vt 0.5326 0.0123 1.0000
vt 0.5326 0.0759 1.0000
vt 0.5247 0.0759 1.0000
vt 0.5406 0.0123 1.0000
vt 0.5406 0.0759 1.0000
vt 0.5485 0.0123 1.0000
vt 0.5485 0.0759 1.0000
vt 0.5565 0.0123 1.0000
vt 0.5565 0.0759 1.0000
vt 0.5644 0.0123 1.0000
vt 0.5644 0.0759 1.0000
vt 0.3749 0.0630 -0.2500
vt 0.3633 0.0349 -0.2500
vt 0.3352 0.0233 -0.2500
vt 0.3352 0.1028 -0.2500
vt 0.3071 0.0349 -0.2500
vt 0.2955 0.0630 -0.2500
vt 0.3071 0.0911 -0.2500
vt 0.3633 0.0911 -0.2500
vt 0.3071 0.0911 0.2500
vt 0.2955 0.0630 0.2500
vt 0.3071 0.0349 0.2500
vt 0.3633 0.0911 0.2500
vt 0.3352 0.0233 0.2500
vt 0.3633 0.0349 0.2500
vt 0.3749 0.0630 0.2500
vt 0.3352 0.1028 0.2500
vt 0.5692 0.0161 -0.2500
vt 0.5733 0.0085 1.0000
vt 0.5904 0.0651 1.0000
vt 0.5827 0.0610 -0.2500
vt 0.5338 0.0822 1.0000
vt 0.5379 0.0746 1.0000
vt 0.5167 0.0256 1.0000
vt 0.5243 0.0297 1.0000
vt 0.5379 0.0746 -0.2500
vt 0.5243 0.0297 -0.2500
vt 0.5233 0.0488 1.0000
vt 0.5307 0.0645 1.0000
vt 0.5286 0.0656 1.0000
vt 0.5211 0.0496 1.0000
vt 0.5393 0.0796 1.0000
vt 0.5373 0.0808 1.0000
vt 0.5349 0.0809 1.0000
vt 0.5349 0.0635 1.0000
vt 0.5373 0.0634 1.0000
vt 0.5334 0.0464 1.0000
vt 0.5357 0.0459 1.0000
vt 0.5278 0.0302 1.0000
vt 0.5299 0.0292 1.0000
vt 0.5198 0.0153 1.0000
vt 0.5196 0.0145 1.0000
vt 0.5189 0.0322 1.0000
vt 0.5166 0.0324 1.0000
vt 0.5219 0.0119 0.2500
vt 0.5440 0.0110 0.2500
vt 0.5440 0.0143 1.0000
vt 0.5235 0.0135 1.0000
vt 0.5660 0.0113 0.2500
vt 0.5647 0.0140 -0.2500
vt 0.5793 0.0299 0.2500
vt 0.5767 0.0298 -0.2500
vt 0.5648 0.0472 0.2500
vt 0.5630 0.0446 -0.2500
vt 0.5444 0.0553 0.2500
vt 0.5437 0.0521 -0.2500
vt 0.5220 0.0563 0.2500
vt 0.5235 0.0546 -0.2500
vt 0.5211 0.0341 0.2500
vt 0.5244 0.0341 -0.2500
# 77 texture coords

g Cylinder001
usemtl 15___Default
s 8
f 1/1/1 2/2/2 3/3/2 4/4/1 
f 2/2/2 5/5/3 6/6/3 3/3/2 
f 5/7/3 7/8/4 8/9/4 6/10/3 
f 7/8/4 9/11/5 10/12/5 8/9/4 
f 9/11/5 11/13/6 12/14/6 10/12/5 
f 11/13/6 13/15/7 14/16/7 12/14/6 
f 13/15/7 15/17/8 16/18/8 14/16/7 
f 15/17/8 1/1/1 4/4/1 16/18/8 
s 1
f 13/19/9 11/20/9 9/21/9 1/22/9 
f 9/21/9 7/23/9 5/24/9 1/22/9 
f 5/24/9 2/25/9 1/22/9 
f 15/26/9 13/19/9 1/22/9 
f 17/27/10 18/28/10 19/29/10 20/30/10 
f 19/29/10 21/31/10 22/32/10 20/30/10 
f 22/32/10 23/33/10 20/30/10 
f 24/34/10 17/27/10 20/30/10 
s 2
f 25/35/10 26/36/10 27/37/10 28/38/10 
s 4
f 28/38/10 27/37/10 29/39/10 30/40/10 
s 16
f 30/40/10 29/39/10 31/41/10 32/42/10 
s 4
f 32/42/10 31/41/10 33/36/10 34/35/10 
s 16
f 34/35/10 33/36/10 35/37/10 36/38/10 
s 4
f 36/38/10 35/37/10 37/39/10 38/43/10 
s 16
f 38/43/10 37/39/10 39/41/10 40/44/10 
f 40/44/10 39/41/10 26/36/10 25/35/10 
s off
f 4/45/11 3/46/11 31/47/11 29/48/11 
f 3/46/12 6/49/12 33/50/12 31/47/12 
f 6/51/13 8/52/13 35/53/13 33/50/13 
f 8/52/14 10/54/14 37/55/14 35/53/14 
f 10/54/15 12/56/15 39/57/15 37/55/15 
f 12/56/16 14/58/16 26/59/16 39/57/16 
f 14/58/17 16/60/17 27/61/17 26/59/17 
f 16/60/18 4/45/18 29/48/18 27/61/18 
f 17/62/15 24/63/15 30/64/15 32/65/15 
f 24/63/14 20/66/14 28/67/14 30/64/14 
f 20/66/13 23/68/13 25/69/13 28/67/13 
f 23/68/12 22/70/12 40/71/12 25/69/12 
f 22/70/11 21/72/11 38/73/11 40/71/11 
f 21/72/18 19/74/18 36/75/18 38/73/18 
f 19/74/17 18/76/17 34/77/17 36/75/17 
f 18/76/16 17/62/16 32/65/16 34/77/16 
# 36 polygons - 4 triangles

