# 3ds Max Wavefront OBJ Exporter v0.97b - (c)2007 guruware
# File Created: 01.10.2014 18:05:33

mtllib deck.mtl

#
# object Box001
#

v  -20.0000 1.3617 30.0000
v  20.0000 1.3617 30.0000
v  20.0000 1.3617 -30.0000
v  -20.0000 1.3617 -30.0000
v  -20.0000 -1.3617 30.0000
v  -20.0000 -1.3617 -30.0000
v  20.0000 -1.3617 -30.0000
v  20.0000 -1.3617 30.0000
# 8 vertices

vn 0.0000 1.0000 -0.0000
vn 0.0000 -1.0000 -0.0000
vn 0.0000 0.0000 1.0000
vn 1.0000 0.0000 -0.0000
vn 0.0000 0.0000 -1.0000
vn -1.0000 0.0000 -0.0000
# 6 vertex normals

vt 0.7514 0.7520 0.0000
vt 0.9158 0.7520 0.0000
vt 0.9158 0.9985 0.0000
vt 0.7514 0.9985 0.0000
vt 0.7993 0.8854 0.0000
vt 0.7993 0.8755 0.0000
vt 0.9453 0.8755 0.0000
vt 0.9453 0.8854 0.0000
vt 0.7628 0.8854 0.0000
vt 0.7628 0.8755 0.0000
vt 0.9818 0.8755 0.0000
vt 0.9818 0.8854 0.0000
# 12 texture coords

g Box001
usemtl 09___Default
s 2
f 1/1/1 2/2/1 3/3/1 4/4/1 
s 4
f 5/2/2 6/3/2 7/4/2 8/1/2 
s 8
f 1/5/3 5/6/3 8/7/3 2/8/3 
s 16
f 2/9/4 8/10/4 7/11/4 3/12/4 
s 32
f 3/5/5 7/6/5 6/7/5 4/8/5 
s 64
f 4/9/6 6/10/6 5/11/6 1/12/6 
# 6 polygons

