# 3ds Max Wavefront OBJ Exporter v0.97b - (c)2007 guruware
# File Created: 01.10.2014 17:58:05

mtllib desk01.mtl

#
# object Box002
#

v  21.6450 -0.2384 2.9600
v  21.6450 -0.2384 -2.9600
v  21.6450 0.2384 -2.9600
v  21.6450 0.2384 2.9600
v  -21.6450 -0.2384 2.9600
v  -21.6450 0.2384 2.9600
v  -21.6450 0.2384 -2.9600
v  -21.6450 -0.2384 -2.9600
# 8 vertices

vn 1.0000 0.0000 -0.0000
vn -1.0000 -0.0000 -0.0000
vn 0.0000 0.0000 1.0000
vn -0.0000 1.0000 -0.0000
vn 0.0000 0.0000 -1.0000
vn -0.0000 -1.0000 -0.0000
# 6 vertex normals

vt 0.5515 0.6885 0.0000
vt 0.5515 0.7317 0.0000
vt 0.5084 0.7317 0.0000
vt 0.5084 0.6885 0.0000
vt 0.5691 0.6890 0.0000
vt 0.6122 0.6890 0.0000
vt 0.6122 0.7321 0.0000
vt 0.5691 0.7321 0.0000
vt 0.7482 0.6883 0.0000
vt 0.7482 0.7314 0.0000
vt 0.5018 0.7314 0.0000
vt 0.5018 0.6883 0.0000
# 12 texture coords

g Box002
usemtl 09___Default
s 2
f 1/1/1 2/2/1 3/3/1 4/4/1 
s 4
f 5/5/2 6/6/2 7/7/2 8/8/2 
s 8
f 1/9/3 4/10/3 6/11/3 5/12/3 
s 16
f 4/9/4 3/10/4 7/11/4 6/12/4 
s 32
f 3/9/5 2/10/5 8/11/5 7/12/5 
s 64
f 2/9/6 1/10/6 5/11/6 8/12/6 
# 6 polygons

