# 3ds Max Wavefront OBJ Exporter v0.97b - (c)2007 guruware
# File Created: 02.10.2014 15:15:54

mtllib fence_type2.mtl

#
# object Box001
#

v  -0.5170 0.0000 8.0496
v  -0.5170 0.0000 6.7563
v  0.4317 0.0000 6.7563
v  0.4317 0.0000 8.0496
v  -0.5170 12.9215 8.0496
v  0.4317 12.9215 8.0496
v  0.4317 12.9215 6.7563
v  -0.5170 12.9215 6.7563
v  -0.5170 0.0000 -5.3506
v  -0.5170 0.0000 -6.6439
v  0.4317 0.0000 -6.6439
v  0.4317 0.0000 -5.3506
v  -0.5170 12.9215 -5.3506
v  0.4317 12.9215 -5.3506
v  0.4317 12.9215 -6.6439
v  -0.5170 12.9215 -6.6439
v  0.2829 6.0078 -5.6928
v  0.2829 7.9506 -5.6928
v  0.7611 7.9506 -5.6928
v  0.7611 6.0078 -5.6928
v  0.2829 6.0078 7.2287
v  0.7611 6.0078 7.2287
v  0.7611 7.9506 7.2287
v  0.2829 7.9506 7.2287
v  0.2829 9.9879 -5.6928
v  0.2829 11.9307 -5.6928
v  0.7611 11.9307 -5.6928
v  0.7611 9.9879 -5.6928
v  0.2829 9.9879 7.2287
v  0.7611 9.9879 7.2287
v  0.7611 11.9307 7.2287
v  0.2829 11.9307 7.2287
# 32 vertices

vn 0.0000 -1.0000 -0.0000
vn 0.0000 1.0000 -0.0000
vn 0.0000 0.0000 1.0000
vn 1.0000 0.0000 -0.0000
vn 0.0000 0.0000 -1.0000
vn -1.0000 0.0000 -0.0000
# 6 vertex normals

vt 0.1491 0.7683 0.0000
vt 0.1491 0.7943 0.0000
vt 0.1300 0.7943 0.0000
vt 0.1300 0.7683 0.0000
vt 0.1583 0.7580 0.0000
vt 0.1796 0.7580 0.0000
vt 0.1796 0.9882 0.0000
vt 0.1583 0.9882 0.0000
vt 0.1581 0.7581 0.0000
vt 0.1796 0.7581 0.0000
vt 0.1796 0.9874 0.0000
vt 0.1581 0.9874 0.0000
vt 0.1179 0.7605 0.0000
vt 0.1179 0.7866 0.0000
vt 0.0987 0.7866 0.0000
vt 0.0987 0.7605 0.0000
vt 0.2222 0.7504 0.0000
vt 0.2471 0.7504 0.0000
vt 0.2471 0.8115 0.0000
vt 0.2222 0.8115 0.0000
vt 0.0945 0.8324 0.0000
vt 0.1202 0.8324 0.0000
vt 0.1202 0.9779 0.0000
vt 0.0945 0.9779 0.0000
# 24 texture coords

g Box001
usemtl 01___Default
s 2
f 1/1/1 2/2/1 3/3/1 4/4/1 
s 4
f 5/4/2 6/1/2 7/2/2 8/3/2 
s 8
f 1/5/3 4/6/3 6/7/3 5/8/3 
s 16
f 4/9/4 3/10/4 7/11/4 6/12/4 
s 32
f 3/5/5 2/6/5 8/7/5 7/8/5 
s 64
f 2/9/6 1/10/6 5/11/6 8/12/6 
s 2
f 9/1/1 10/2/1 11/3/1 12/4/1 
s 4
f 13/4/2 14/1/2 15/2/2 16/3/2 
s 8
f 9/5/3 12/6/3 14/7/3 13/8/3 
s 16
f 12/9/4 11/10/4 15/11/4 14/12/4 
s 32
f 11/5/5 10/6/5 16/7/5 15/8/5 
s 64
f 10/9/6 9/10/6 13/11/6 16/12/6 
s 2
f 17/13/5 18/14/5 19/15/5 20/16/5 
s 4
f 21/16/3 22/13/3 23/14/3 24/15/3 
s 8
f 17/17/1 20/18/1 22/19/1 21/20/1 
s 16
f 20/21/4 19/22/4 23/23/4 22/24/4 
s 32
f 19/17/2 18/18/2 24/19/2 23/20/2 
s 64
f 18/21/6 17/22/6 21/23/6 24/24/6 
s 2
f 25/13/5 26/14/5 27/15/5 28/16/5 
s 4
f 29/16/3 30/13/3 31/14/3 32/15/3 
s 8
f 25/17/1 28/18/1 30/19/1 29/20/1 
s 16
f 28/21/4 27/22/4 31/23/4 30/24/4 
s 32
f 27/17/2 26/18/2 32/19/2 31/20/2 
s 64
f 26/21/6 25/22/6 29/23/6 32/24/6 
# 24 polygons

