# 3ds Max Wavefront OBJ Exporter v0.97b - (c)2007 guruware
# File Created: 09.10.2014 19:52:23

mtllib garage.mtl

#
# object Box001
#

v  16.3300 0.0000 16.4985
v  16.3300 35.0538 16.4985
v  -16.3300 35.0538 16.4985
v  -16.3300 0.0000 16.4985
v  20.0000 0.0000 20.0000
v  20.0000 0.0000 -40.0000
v  20.0000 40.0000 -40.0000
v  20.0000 35.0538 20.0000
v  20.0000 40.0000 20.0000
v  -20.0000 0.0000 -40.0000
v  -20.0000 40.0000 -40.0000
v  -20.0000 0.0000 20.0000
v  -20.0000 35.0538 20.0000
v  -20.0000 40.0000 20.0000
v  -16.3300 35.0538 20.0000
v  16.3300 35.0538 20.0000
v  16.3300 0.0000 20.0000
v  -16.3300 0.0000 20.0000
v  -15.9175 40.0000 13.8763
v  15.9175 40.0000 13.8763
v  15.9175 40.0000 -33.8763
v  -15.9175 40.0000 -33.8763
v  -17.7655 45.9995 16.6483
v  -20.0000 44.2785 20.0000
v  20.0000 44.2785 20.0000
v  17.7655 45.9995 16.6483
v  20.0000 44.2785 -40.0000
v  17.7655 45.9995 -36.6483
v  -20.0000 44.2785 -40.0000
v  -17.7655 45.9995 -36.6483
# 30 vertices

vn 0.0000 0.0000 1.0000
vn 1.0000 0.0000 -0.0000
vn 0.0000 0.0000 -1.0000
vn -1.0000 0.0000 -0.0000
vn 0.0000 -1.0000 -0.0000
vn 0.0000 1.0000 -0.0000
vn 0.0000 0.8896 0.4568
vn 0.6102 0.7922 -0.0000
vn 0.0000 0.8896 -0.4568
vn -0.6102 0.7922 -0.0000
vn 0.0000 0.4194 -0.9078
vn 0.9557 0.2944 -0.0000
vn 0.0000 0.4194 0.9078
vn -0.9557 0.2944 -0.0000
# 14 vertex normals

vt 0.6297 0.4999 0.0000
vt 0.6296 0.3755 0.0000
vt 0.7455 0.3755 0.0000
vt 0.7456 0.4999 0.0000
vt 0.2802 0.5409 0.0000
vt 0.4518 0.5409 0.0000
vt 0.4518 0.6553 0.0000
vt 0.2802 0.6411 0.0000
vt 0.2802 0.6553 0.0000
vt 0.3374 0.5409 0.0000
vt 0.3374 0.6553 0.0000
vt 0.2597 0.5409 0.0000
vt 0.4313 0.5409 0.0000
vt 0.4313 0.6411 0.0000
vt 0.4313 0.6553 0.0000
vt 0.2597 0.6553 0.0000
vt 0.4044 0.6726 0.0000
vt 0.2862 0.6724 0.0000
vt 0.2862 0.6578 0.0000
vt 0.2971 0.6578 0.0000
vt 0.3935 0.6580 0.0000
vt 0.4044 0.6580 0.0000
vt 0.2697 0.6411 0.0000
vt 0.2697 0.5409 0.0000
vt 0.4418 0.5409 0.0000
vt 0.4418 0.6411 0.0000
vt 0.2597 0.6411 0.0000
vt 0.2971 0.6475 0.0000
vt 0.3936 0.6477 0.0000
vt 0.4519 0.5409 0.0000
vt 0.4519 0.6411 0.0000
vt 0.6392 0.6931 0.0000
vt 0.5290 0.6930 0.0000
vt 0.5291 0.5277 0.0000
vt 0.5392 0.5373 0.0000
vt 0.5392 0.5277 0.0000
vt 0.6292 0.5374 0.0000
vt 0.6292 0.5278 0.0000
vt 0.6393 0.5278 0.0000
vt 0.5718 0.5430 0.0000
vt 0.6799 0.5428 0.0000
vt 0.6801 0.7085 0.0000
vt 0.5721 0.7086 0.0000
vt 0.5604 0.5290 0.0000
vt 0.5536 0.5181 0.0000
vt 0.6980 0.5179 0.0000
vt 0.6912 0.5288 0.0000
vt 0.6983 0.7333 0.0000
vt 0.6915 0.7225 0.0000
vt 0.5539 0.7336 0.0000
vt 0.5608 0.7227 0.0000
vt 0.5544 0.5029 0.0000
vt 0.6971 0.5026 0.0000
vt 0.7133 0.5185 0.0000
vt 0.7136 0.7327 0.0000
vt 0.6975 0.7486 0.0000
vt 0.5548 0.7488 0.0000
vt 0.5387 0.7329 0.0000
vt 0.5383 0.5188 0.0000
# 59 texture coords

g Box001
usemtl 08___Default
s 8
f 1/1/1 2/2/1 3/3/1 4/4/1 
s 16
f 5/5/2 6/6/2 7/7/2 8/8/2 
f 7/7/2 9/9/2 8/8/2 
s 32
f 6/10/3 10/6/3 11/7/3 7/11/3 
s 64
f 10/12/4 12/13/4 13/14/4 14/15/4 
f 10/12/4 14/15/4 11/16/4 
s 8
f 9/17/1 14/18/1 13/19/1 15/20/1 
f 9/17/1 15/20/1 16/21/1 8/22/1 
f 5/5/1 8/8/1 16/23/1 17/24/1 
f 13/14/1 12/13/1 18/25/1 15/26/1 
s off
f 17/24/4 16/23/4 2/27/4 1/12/4 
f 16/21/5 15/20/5 3/28/5 2/29/5 
f 15/26/2 18/25/2 4/30/2 3/31/2 
f 10/32/5 6/33/5 5/34/5 1/35/5 
f 5/34/5 17/36/5 1/35/5 
f 10/32/5 1/35/5 4/37/5 18/38/5 
f 10/32/5 18/38/5 12/39/5 
s 4
f 19/40/6 20/41/6 21/42/6 22/43/6 
s 1
f 23/44/7 24/45/7 25/46/7 26/47/7 
s 2
f 26/47/8 25/46/8 27/48/8 28/49/8 
s 128
f 28/49/9 27/48/9 29/50/9 30/51/9 
s 2
f 30/51/10 29/50/10 24/45/10 23/44/10 
s off
f 14/52/1 9/53/1 25/46/1 24/45/1 
f 9/54/2 7/55/2 27/48/2 25/46/2 
f 7/56/3 11/57/3 29/50/3 27/48/3 
f 11/58/4 14/59/4 24/45/4 29/50/4 
f 20/41/11 19/40/11 23/44/11 26/47/11 
f 19/40/12 22/43/12 30/51/12 23/44/12 
f 22/43/13 21/42/13 28/49/13 30/51/13 
f 21/42/14 20/41/14 26/47/14 28/49/14 
# 26 polygons - 4 triangles

