# 3ds Max Wavefront OBJ Exporter v0.97b - (c)2007 guruware
# File Created: 04.10.2014 10:47:23

mtllib house12.mtl

#
# object Object004
#

v  -60.0000 111.8806 28.2887
v  -22.7692 109.0199 28.2887
v  -13.5469 109.0199 28.2887
v  -13.5469 156.3284 28.2887
v  -47.2079 109.0199 28.2887
v  -60.0000 109.0199 28.2887
v  30.0000 111.8806 28.2887
v  -1.8246 109.0199 28.2887
v  21.3687 109.0199 28.2887
v  30.0000 109.0199 28.2887
v  -22.7688 75.0882 28.2887
v  -13.5469 75.0882 28.2887
v  21.3698 75.0882 28.2887
v  30.0000 75.0882 28.2887
v  -47.1878 75.0882 28.2887
v  -60.0000 75.0882 28.2887
v  -1.8252 75.0882 28.2887
v  -47.9114 47.8340 28.2887
v  -22.4864 47.8340 28.2887
v  -13.5469 47.8340 28.2887
v  -60.0000 47.8340 28.2887
v  -1.6294 47.8340 28.2887
v  21.9138 47.8340 28.2887
v  30.0000 47.8340 28.2887
v  -47.9114 13.7400 28.2887
v  -60.0000 13.5166 28.2887
v  -22.4863 13.7400 28.2887
v  -13.5469 13.7400 28.2887
v  -1.6294 13.7400 28.2887
v  21.9138 13.7400 28.2887
v  30.0000 13.7400 28.2887
v  -47.9114 13.7400 23.2887
v  -47.9114 47.8340 23.2887
v  -22.4863 13.7400 23.2887
v  -22.4864 47.8340 23.2887
v  -1.6294 13.7400 23.2887
v  -1.6294 47.8340 23.2887
v  21.9138 13.7400 23.2887
v  21.9138 47.8340 23.2887
v  -47.2079 109.0199 23.2887
v  -22.7692 109.0199 23.2887
v  -47.1878 75.0882 23.2887
v  -22.7688 75.0882 23.2887
v  -1.8246 109.0199 23.2887
v  21.3687 109.0199 23.2887
v  -1.8252 75.0882 23.2887
v  21.3698 75.0882 23.2887
v  -13.5469 165.8433 36.6217
v  -60.0000 117.0052 36.6217
v  -60.0000 111.8806 36.6217
v  -13.5469 156.3284 36.6217
v  30.0000 117.0052 36.6217
v  30.0000 111.8806 36.6217
v  39.9997 104.1023 36.6217
v  39.9997 109.2269 36.6217
v  -69.9997 109.2269 36.6217
v  -69.9997 104.1023 36.6217
v  -60.0000 117.0052 28.2887
v  -13.5469 165.8433 28.2887
v  -69.9997 109.2269 28.2887
v  -69.9997 104.1023 28.2887
v  39.9997 104.1023 28.2887
v  39.9997 109.2269 28.2887
v  30.0000 117.0052 28.2887
v  -13.5469 0.0000 32.9565
v  -13.5469 10.7993 32.9565
v  -64.6355 10.5758 32.8663
v  -64.6355 0.0000 32.8663
v  34.6344 10.7993 32.8909
v  34.6344 0.0000 32.8909
v  30.0000 0.0000 28.2887
v  -13.5469 0.0000 28.2887
v  -13.5469 0.0000 -1.6718
v  8.4028 0.0000 -1.6718
v  -60.0000 111.8806 -31.6323
v  -13.5469 156.3284 -31.6323
v  -13.5469 109.0199 -31.6323
v  -22.7692 109.0199 -31.6323
v  -47.2079 109.0199 -31.6323
v  -60.0000 109.0199 -31.8768
v  30.0000 111.8806 -31.6323
v  30.0000 109.0199 -31.6323
v  21.3687 109.0199 -31.6323
v  -1.8246 109.0199 -31.6323
v  -22.7688 75.0882 -31.6323
v  -13.5469 75.0882 -31.6323
v  21.3698 75.0882 -31.6323
v  30.0000 75.0882 -31.8768
v  -47.1878 75.0882 -31.6323
v  -60.0000 75.0882 -31.8768
v  -1.8252 75.0882 -31.6323
v  -13.5469 47.8340 -31.6323
v  -22.4864 47.8340 -31.6323
v  -47.9114 47.8340 -31.6323
v  -60.0000 47.8340 -31.8768
v  -1.6294 47.8340 -31.6323
v  21.9138 47.8340 -31.6323
v  30.0000 47.8340 -31.6323
v  -47.9114 13.7400 -31.6323
v  -60.0000 13.6401 -31.8768
v  -13.5469 13.7400 -31.6323
v  -22.4863 13.7400 -31.6323
v  -1.6294 13.7400 -31.6323
v  30.0000 13.7400 -31.8768
v  21.9138 13.7400 -31.6323
v  -47.9114 47.8340 -26.6323
v  -47.9114 13.7400 -26.6323
v  -22.4863 13.7400 -26.6323
v  -22.4864 47.8340 -26.6323
v  -1.6294 47.8340 -26.6323
v  -1.6294 13.7400 -26.6323
v  21.9138 13.7400 -26.6323
v  21.9138 47.8340 -26.6323
v  -22.7692 109.0199 -26.6323
v  -47.2079 109.0199 -26.6323
v  -47.1878 75.0882 -26.6323
v  -22.7688 75.0882 -26.6323
v  21.3687 109.0199 -26.6323
v  -1.8246 109.0199 -26.6323
v  -1.8252 75.0882 -26.6323
v  21.3698 75.0882 -26.6323
v  -13.5469 165.8433 -39.9654
v  -13.5469 156.3284 -39.9654
v  -60.0000 111.8806 -39.9654
v  -60.0000 117.0052 -39.9654
v  30.0000 117.0052 -39.9654
v  30.0000 111.8806 -39.9654
v  39.9997 109.2269 -39.9654
v  39.9997 104.1023 -39.9654
v  -69.9997 104.1023 -39.9654
v  -69.9997 109.2269 -39.9654
v  -60.0000 117.0052 -31.8768
v  -13.5469 165.8433 -31.8768
v  -69.9997 109.2269 -31.8768
v  -69.9997 104.1023 -31.8768
v  38.5352 104.1023 -31.8093
v  38.5352 109.2269 -31.8093
v  30.0000 117.0052 -31.8768
v  -13.5469 0.0000 -36.3001
v  -64.6516 0.0000 -37.0809
v  -64.6516 10.6994 -37.0809
v  -13.5469 10.7993 -36.3001
v  34.9361 10.7993 -35.8692
v  34.7066 0.0000 -36.0066
v  30.0000 0.0000 -31.6323
v  -13.5469 0.0000 -31.6323
v  -60.0000 0.0000 -32.1213
v  -13.5469 0.0000 -32.1213
v  -60.0000 0.0000 28.2887
v  30.0000 111.8806 -32.1213
v  -60.0000 111.8806 -32.1213
v  -64.6678 10.6582 8.1521
v  -64.6479 0.0000 7.8933
v  -64.6678 10.7405 -13.9226
v  -55.0000 13.5989 8.1521
v  -55.0000 13.6813 -13.9226
v  -60.0000 13.6813 -13.9226
v  -60.0000 13.5989 8.1521
v  34.6678 0.0000 12.7778
v  34.6678 10.7993 12.7778
v  34.6678 10.7993 -13.0446
v  34.6678 0.0000 -13.0446
v  30.0000 0.0000 12.7778
v  30.0000 13.7400 12.7778
v  30.0000 13.7400 -13.0446
v  30.0000 0.0000 -13.0446
v  30.0000 0.0000 -32.1213
v  25.3320 13.7400 -13.0446
v  25.3320 0.0000 -13.0446
v  25.3320 0.0000 12.7778
v  25.3320 13.7400 12.7778
v  -60.0000 47.8340 -14.0996
v  -59.7513 47.8340 8.1750
v  -60.0000 75.0882 -13.9226
v  -60.0000 75.0882 8.1521
v  30.0000 75.0882 -13.0446
v  30.0000 51.7569 -13.0446
v  30.0000 51.7569 12.7778
v  30.0000 75.0882 12.6360
v  30.0000 75.0882 -12.8815
v  30.0000 109.0199 12.4943
v  30.0000 109.0199 -32.1213
v  30.0000 109.0199 -12.8814
v  -60.0000 13.2934 8.1750
v  -60.0000 109.0199 -13.9226
v  -60.0000 109.0199 8.1521
v  25.0000 109.0199 12.4943
v  25.0000 109.0199 -12.8814
v  25.0000 75.0882 12.4942
v  25.0000 75.0882 -12.8815
v  -55.0000 75.0882 8.1521
v  -55.0000 75.0882 -13.9226
v  -55.0000 109.0199 8.1521
v  -55.0000 109.0199 -13.9226
v  -55.0000 47.8340 -14.0996
v  -55.0000 13.6999 8.1750
v  25.3320 51.7569 -13.0446
v  25.3320 51.7569 12.7778
v  -55.0000 47.8340 8.1980
v  25.3320 -0.0660 12.7778
v  25.3320 -0.0660 -13.0446
v  -55.0000 47.8340 -13.9226
v  -55.0000 47.8340 8.1521
# 203 vertices

vn 0.0000 0.0000 1.0000
vn 1.0000 0.0000 -0.0000
vn 0.0000 1.0000 -0.0000
vn -1.0000 -0.0000 -0.0000
vn 0.0000 -1.0000 -0.0000
vn -1.0000 0.0000 -0.0000
vn 1.0000 0.0006 -0.0000
vn 1.0000 -0.0000 -0.0000
vn -0.6711 0.7413 -0.0000
vn -0.7246 0.6892 -0.0000
vn -0.6140 0.7893 -0.0000
vn 0.6140 -0.7893 -0.0000
vn 0.6535 -0.7569 -0.0000
vn 0.6913 -0.7225 -0.0000
vn -0.6656 -0.7463 -0.0000
vn -0.7143 -0.6998 -0.0000
vn -0.6140 -0.7893 -0.0000
vn 0.6140 0.7893 -0.0000
vn 0.6830 0.7304 -0.0000
vn 0.7464 0.6655 -0.0000
vn -0.0002 0.0000 1.0000
vn -0.0012 0.4796 0.8775
vn -0.0030 0.3337 0.9427
vn -0.0018 0.0000 1.0000
vn 0.0004 0.8445 0.5356
vn -0.0020 0.8414 0.5405
vn 0.0010 0.4819 0.8762
vn -0.0043 0.8382 0.5453
vn 0.0014 0.0000 1.0000
vn 0.0042 0.0188 -0.9998
vn 0.0000 0.0000 -1.0000
vn 0.0001 0.0005 -1.0000
vn 0.0108 0.0195 -0.9998
vn 0.0128 0.0147 -0.9998
vn -0.0071 0.0018 -1.0000
vn -0.0047 0.0012 -1.0000
vn 0.0070 -0.0048 -1.0000
vn 0.0012 -0.0011 -1.0000
vn -0.0099 -0.0004 -1.0000
vn -0.0109 0.0006 -0.9999
vn 0.0108 0.0039 -0.9999
vn 0.0128 0.0029 -0.9999
vn -0.0012 -0.0004 -1.0000
vn 0.0128 -0.0055 -0.9999
vn 0.0144 -0.0004 -0.9999
vn -0.0050 0.0012 -1.0000
vn -0.0097 0.0011 -1.0000
vn 0.0202 0.0000 -0.9998
vn -0.0151 0.0036 -0.9999
vn 0.6538 -0.7567 -0.0000
vn -0.6795 -0.7331 -0.0284
vn -0.6793 -0.7333 -0.0286
vn -0.6422 -0.7644 -0.0570
vn 0.9843 0.0000 0.1767
vn 0.6417 0.7648 0.0578
vn 0.6961 0.7173 0.0290
vn 0.6964 0.7176 0.0126
vn 0.0114 0.0031 -0.9999
vn 0.0153 0.0000 -0.9999
vn -0.1603 0.5754 -0.8020
vn 0.0078 0.4856 -0.8741
vn 0.0023 0.8466 -0.5322
vn 0.0011 0.8331 -0.5531
vn 0.0060 0.3200 -0.9474
vn -0.2897 0.9178 -0.2715
vn 0.0036 0.8596 -0.5110
vn 0.0075 0.0063 -1.0000
vn 0.0161 0.9999 -0.0000
vn 0.9985 0.0000 -0.0548
vn 0.6774 0.7354 -0.0174
vn -0.6774 -0.7354 0.0174
vn -1.0000 -0.0005 0.0006
vn -1.0000 -0.0045 0.0012
vn -1.0000 -0.0012 0.0002
vn 0.0000 1.0000 0.0021
vn 1.0000 0.0000 0.0017
vn 0.9992 0.0000 0.0405
vn 0.0093 -0.0129 0.9999
vn 0.9991 -0.0427 0.0077
vn 0.9995 -0.0252 0.0212
vn -0.5330 0.8461 0.0032
vn -0.5330 0.8461 0.0038
vn -0.5330 0.8461 0.0062
vn 0.5073 0.8617 0.0087
vn 0.0033 0.8517 0.5241
vn 0.5233 0.8522 0.0034
vn -1.0000 0.0034 0.0051
vn -0.9999 -0.0131 -0.0080
vn -1.0000 -0.0015 0.0007
vn -1.0000 0.0020 0.0031
vn -1.0000 -0.0037 -0.0078
vn -1.0000 0.0072 -0.0001
vn -1.0000 0.0048 -0.0042
vn 0.0026 -0.0004 -1.0000
vn 0.0283 -0.0042 -0.9996
vn 0.0257 -0.0038 -0.9997
vn 0.0000 0.0052 1.0000
vn -0.0115 0.9999 0.0018
vn -0.0810 0.9966 0.0175
vn -0.0696 0.9975 0.0149
vn 0.0000 1.0000 -0.0008
vn 0.0023 0.0003 -1.0000
# 102 vertex normals

vt 0.5441 0.4002 0.0000
vt 0.6256 0.3940 0.0000
vt 0.6457 0.3940 0.0000
vt 0.6457 0.4975 0.0000
vt 0.5721 0.3940 0.0000
vt 0.5441 0.3940 0.0000
vt 0.7410 0.4002 0.0000
vt 0.6714 0.3940 0.0000
vt 0.7222 0.3940 0.0000
vt 0.7410 0.3940 0.0000
vt 0.6471 0.3329 0.0000
vt 0.6267 0.3328 0.0000
vt 0.6267 0.2577 0.0000
vt 0.6471 0.2577 0.0000
vt 0.5494 0.3328 0.0000
vt 0.5303 0.3328 0.0000
vt 0.5303 0.2577 0.0000
vt 0.5494 0.2577 0.0000
vt 0.7012 0.3328 0.0000
vt 0.7012 0.2577 0.0000
vt 0.7295 0.2577 0.0000
vt 0.7295 0.3328 0.0000
vt 0.6008 0.3328 0.0000
vt 0.6008 0.2577 0.0000
vt 0.7028 0.3932 0.0000
vt 0.6465 0.3932 0.0000
vt 0.6267 0.3932 0.0000
vt 0.7295 0.3932 0.0000
vt 0.6003 0.3932 0.0000
vt 0.5482 0.3932 0.0000
vt 0.5303 0.3932 0.0000
vt 0.7028 0.4686 0.0000
vt 0.7295 0.4691 0.0000
vt 0.6465 0.4687 0.0000
vt 0.6267 0.4687 0.0000
vt 0.6003 0.4687 0.0000
vt 0.5482 0.4686 0.0000
vt 0.5303 0.4686 0.0000
vt 0.0917 0.3842 0.0000
vt 0.0892 0.4349 0.0000
vt 0.0609 0.4432 0.0000
vt 0.1049 0.4099 0.0000
vt 0.0472 0.4328 0.0000
vt 0.0339 0.4071 0.0000
vt 0.0496 0.3820 0.0000
vt 0.0779 0.3737 0.0000
vt 0.1015 0.4171 0.0000
vt 0.0606 0.4469 0.0000
vt 0.0376 0.4298 0.0000
vt 0.0906 0.4429 0.0000
vt 0.0372 0.4147 0.0000
vt 0.0481 0.3889 0.0000
vt 0.0780 0.3848 0.0000
vt 0.1011 0.4019 0.0000
vt 0.0717 0.3815 0.0000
vt 0.1055 0.4045 0.0000
vt 0.1037 0.4328 0.0000
vt 0.0996 0.3894 0.0000
vt 0.0772 0.4463 0.0000
vt 0.0493 0.4384 0.0000
vt 0.0434 0.4233 0.0000
vt 0.0452 0.3950 0.0000
vt 0.0866 0.3738 0.0000
vt 0.1001 0.4109 0.0000
vt 0.0827 0.4325 0.0000
vt 0.1038 0.3965 0.0000
vt 0.0529 0.4283 0.0000
vt 0.0356 0.4056 0.0000
vt 0.0393 0.3912 0.0000
vt 0.0567 0.3696 0.0000
vt 0.4886 0.4901 0.0000
vt 0.4885 0.3887 0.0000
vt 0.4940 0.3833 0.0000
vt 0.4985 0.4798 0.0000
vt 0.2625 0.3723 0.0000
vt 0.2667 0.4881 0.0000
vt 0.2550 0.4761 0.0000
vt 0.2559 0.3661 0.0000
vt 0.2581 0.3432 0.0000
vt 0.2621 0.3504 0.0000
vt 0.4881 0.3701 0.0000
vt 0.4913 0.3639 0.0000
vt 0.4762 0.3886 0.0000
vt 0.4762 0.4900 0.0000
vt 0.4764 0.3694 0.0000
vt 0.4771 0.3616 0.0000
vt 0.5313 0.0522 0.0000
vt 0.5178 0.0522 0.0000
vt 0.5178 0.0433 0.0000
vt 0.5313 0.0433 0.0000
vt 0.5839 0.0233 0.0000
vt 0.5854 0.0321 0.0000
vt 0.5163 0.0345 0.0000
vt 0.6494 0.0124 0.0000
vt 0.6508 0.0211 0.0000
vt 0.6950 0.0848 0.0000
vt 0.6995 0.0729 0.0000
vt 0.7074 0.0759 0.0000
vt 0.7028 0.0878 0.0000
vt 0.2748 0.3400 0.0000
vt 0.2758 0.3491 0.0000
vt 0.2770 0.3717 0.0000
vt 0.2815 0.4875 0.0000
vt 0.6035 0.0155 0.0000
vt 0.6035 0.0358 0.0000
vt 0.5074 0.0354 0.0000
vt 0.5073 0.0155 0.0000
vt 0.6259 0.0462 0.0000
vt 0.6035 0.0462 0.0000
vt 0.6702 0.0462 0.0000
vt 0.6855 0.0462 0.0000
vt 0.6942 0.0359 0.0000
vt 0.5867 0.0462 0.0000
vt 0.5160 0.0458 0.0000
vt 0.5388 0.0462 0.0000
vt 0.6942 0.0155 0.0000
vt 0.5024 0.8722 0.0000
vt 0.5024 0.7526 0.0000
vt 0.5638 0.7526 0.0000
vt 0.5638 0.8722 0.0000
vt 0.5040 0.8724 0.0000
vt 0.5040 0.7526 0.0000
vt 0.5639 0.7526 0.0000
vt 0.5639 0.8724 0.0000
vt 0.5024 0.8733 0.0000
vt 0.5024 0.7540 0.0000
vt 0.5639 0.7528 0.0000
vt 0.5639 0.8721 0.0000
vt 0.5033 0.8732 0.0000
vt 0.5033 0.7525 0.0000
vt 0.5634 0.7520 0.0000
vt 0.5634 0.8727 0.0000
vt 0.6058 0.0253 0.0000
vt 0.6137 0.0484 0.0000
vt 0.5978 0.0538 0.0000
vt 0.5938 0.0421 0.0000
vt 0.4757 0.3860 0.0000
vt 0.4856 0.3757 0.0000
vt 0.4811 0.2792 0.0000
vt 0.4756 0.2846 0.0000
vt 0.2625 0.2854 0.0000
vt 0.2559 0.2792 0.0000
vt 0.2550 0.3892 0.0000
vt 0.2667 0.3994 0.0000
vt 0.2621 0.2675 0.0000
vt 0.2581 0.2563 0.0000
vt 0.4784 0.2598 0.0000
vt 0.4752 0.2660 0.0000
vt 0.4633 0.2845 0.0000
vt 0.4633 0.3859 0.0000
vt 0.4635 0.2653 0.0000
vt 0.4642 0.2575 0.0000
vt 0.2748 0.2531 0.0000
vt 0.2758 0.2662 0.0000
vt 0.2770 0.2848 0.0000
vt 0.2815 0.3988 0.0000
vt 0.5896 0.0838 0.0000
vt 0.5816 0.0591 0.0000
vt 0.6217 0.0731 0.0000
vt 0.3854 0.4900 0.0000
vt 0.3855 0.3885 0.0000
vt 0.3837 0.3673 0.0000
vt 0.3884 0.4831 0.0000
vt 0.3824 0.3490 0.0000
vt 0.3823 0.3397 0.0000
vt 0.3856 0.3694 0.0000
vt 0.3857 0.3617 0.0000
vt 0.6380 0.0633 0.0000
vt 0.6419 0.0534 0.0000
vt 0.5178 0.1166 0.0000
vt 0.5313 0.1166 0.0000
vt 0.7467 0.0186 0.0000
vt 0.7467 0.0385 0.0000
vt 0.7002 0.0387 0.0000
vt 0.6997 0.0186 0.0000
vt 0.6134 0.0186 0.0000
vt 0.6586 0.0388 0.0000
vt 0.6134 0.0390 0.0000
vt 0.5955 0.0289 0.0000
vt 0.5956 0.0377 0.0000
vt 0.5948 0.0386 0.0000
vt 0.5947 0.0279 0.0000
vt 0.5961 0.0113 0.0000
vt 0.5966 0.0191 0.0000
vt 0.5957 0.0201 0.0000
vt 0.5954 0.0104 0.0000
vt 0.5768 0.0922 0.0000
vt 0.5764 0.0926 0.0000
vt 0.5759 0.0920 0.0000
vt 0.5765 0.0923 0.0000
vt 0.5514 0.0649 0.0000
vt 0.5533 0.0147 0.0000
vt 0.5796 0.0161 0.0000
vt 0.5784 0.0651 0.0000
vt 0.5717 0.1036 0.0000
vt 0.5580 0.0706 0.0000
vt 0.5731 0.0627 0.0000
vt 0.5896 0.0958 0.0000
vt 0.6250 0.0748 0.0000
vt 0.6117 0.0792 0.0000
vt 0.5873 0.0873 0.0000
vt 0.7381 0.0489 0.0000
vt 0.7002 0.0490 0.0000
vt 0.6586 0.0492 0.0000
vt 0.6244 0.0493 0.0000
vt 0.6161 0.0476 0.0000
vt 0.6074 0.0220 0.0000
vt 0.6084 0.0166 0.0000
vt 0.6084 0.0279 0.0000
vt 0.6058 0.0166 0.0000
vt 0.5555 0.0032 0.0000
vt 0.5908 0.0112 0.0000
vt 0.5921 0.0528 0.0000
vt 0.5500 0.0702 0.0000
vt 0.5689 0.0563 0.0000
vt 0.5711 0.0342 0.0000
vt 0.5832 0.0303 0.0000
vt 0.5839 0.0328 0.0000
vt 0.5739 0.0361 0.0000
vt 0.5598 0.1015 0.0000
vt 0.5807 0.0437 0.0000
vt 0.5846 0.0358 0.0000
vt 0.5865 0.0376 0.0000
vt 0.5816 0.0433 0.0000
vt 0.5981 0.0305 0.0000
vt 0.5923 0.0257 0.0000
vt 0.5919 0.0248 0.0000
vt 0.5983 0.0282 0.0000
vt 0.6297 0.3938 0.0000
vt 0.5806 0.3936 0.0000
vt 0.6702 0.3329 0.0000
vt 0.6702 0.3938 0.0000
vt 0.5356 0.3936 0.0000
vt 0.6297 0.3329 0.0000
vt 0.5806 0.3329 0.0000
vt 0.5357 0.3329 0.0000
vt 0.5751 0.3327 0.0000
vt 0.5751 0.3842 0.0000
vt 0.5330 0.4685 0.0000
vt 0.5329 0.3326 0.0000
vt 0.5752 0.4684 0.0000
vt 0.6667 0.3326 0.0000
vt 0.6325 0.4684 0.0000
vt 0.6323 0.3842 0.0000
vt 0.6320 0.3326 0.0000
vt 0.6668 0.3929 0.0000
vt 0.6669 0.4684 0.0000
vt 0.5755 0.3326 0.0000
vt 0.6317 0.2574 0.0000
vt 0.6667 0.2574 0.0000
vt 0.5329 0.2575 0.0000
vt 0.5755 0.2575 0.0000
vt 0.6297 0.4704 0.0000
vt 0.6702 0.4702 0.0000
vt 0.5804 0.4699 0.0000
vt 0.5356 0.4699 0.0000
vt 0.6297 0.2574 0.0000
vt 0.6702 0.2574 0.0000
vt 0.5806 0.2574 0.0000
vt 0.5358 0.2574 0.0000
vt 0.0691 0.3603 0.0000
vt 0.0973 0.3608 0.0000
vt 0.0687 0.3606 0.0000
vt 0.0971 0.3607 0.0000
vt 0.0711 0.4533 0.0000
vt 0.0430 0.4528 0.0000
vt 0.0421 0.4525 0.0000
vt 0.0707 0.4530 0.0000
vt 0.1068 0.4173 0.0000
vt 0.0914 0.3804 0.0000
vt 0.0634 0.3799 0.0000
vt 0.0998 0.3911 0.0000
vt 0.0419 0.4017 0.0000
vt 0.0489 0.4280 0.0000
vt 0.0573 0.4386 0.0000
vt 0.0853 0.4391 0.0000
vt 0.0415 0.4174 0.0000
vt 0.0940 0.3707 0.0000
vt 0.1014 0.3883 0.0000
vt 0.0584 0.4075 0.0000
vt 0.1036 0.4101 0.0000
vt 0.0894 0.4294 0.0000
vt 0.1227 0.2552 0.0000
vt 0.1224 0.2810 0.0000
vt 0.1136 0.2808 0.0000
vt 0.1140 0.2551 0.0000
vt 0.1214 0.3521 0.0000
vt 0.1127 0.3520 0.0000
vt 0.1209 0.4004 0.0000
vt 0.1121 0.4003 0.0000
vt 0.1199 0.4715 0.0000
vt 0.1112 0.4714 0.0000
vt 0.1196 0.4972 0.0000
vt 0.1109 0.4971 0.0000
vt 0.1014 0.3928 0.0000
vt 0.0740 0.3743 0.0000
vt 0.0508 0.3863 0.0000
vt 0.0819 0.3771 0.0000
vt 0.0729 0.4366 0.0000
vt 0.0962 0.4245 0.0000
vt 0.6879 0.8755 0.0000
vt 0.7498 0.8755 0.0000
vt 0.7498 1.0000 0.0000
vt 0.6879 1.0000 0.0000
vt 0.5033 0.7527 0.0000
vt 0.5631 0.7524 0.0000
vt 0.5631 0.8725 0.0000
vt 0.5033 0.8728 0.0000
vt 0.5026 0.8730 0.0000
vt 0.5026 0.7538 0.0000
vt 0.5637 0.7530 0.0000
vt 0.5637 0.8721 0.0000
vt 0.5029 0.8728 0.0000
vt 0.5029 0.7540 0.0000
vt 0.5626 0.7532 0.0000
vt 0.5626 0.8722 0.0000
# 316 texture coords

g Object004
usemtl 10___Default
s 1
f 1/1/1 2/2/1 3/3/1 4/4/1 
f 5/5/1 2/2/1 1/1/1 6/6/1 
f 7/7/1 8/8/1 9/9/1 10/10/1 
f 3/3/1 8/8/1 7/7/1 4/4/1 
f 11/11/1 12/12/1 3/13/1 2/14/1 
f 13/15/1 14/16/1 10/17/1 9/18/1 
f 15/19/1 5/20/1 6/21/1 16/22/1 
f 17/23/1 8/24/1 3/13/1 12/12/1 
f 12/12/1 18/25/1 19/26/1 20/27/1 
f 21/28/1 11/11/1 15/19/1 16/22/1 
f 21/28/1 18/25/1 12/12/1 11/11/1 
f 22/29/1 23/30/1 12/12/1 20/27/1 
f 24/31/1 17/23/1 12/12/1 23/30/1 
f 13/15/1 17/23/1 24/31/1 14/16/1 
f 25/32/1 18/25/1 21/28/1 26/33/1 
f 19/26/1 27/34/1 28/35/1 20/27/1 
f 29/36/1 22/29/1 20/27/1 28/35/1 
f 23/30/1 30/37/1 31/38/1 24/31/1 
s 2
f 18/39/2 25/40/2 32/41/2 33/42/2 
s 4
f 25/40/3 27/43/3 34/44/3 32/41/3 
s 2
f 27/43/4 19/45/4 35/46/4 34/44/4 
s 4
f 19/45/5 18/39/5 33/42/5 35/46/5 
s 2
f 22/47/2 29/48/2 36/49/2 37/50/2 
s 4
f 29/48/3 30/51/3 38/52/3 36/49/3 
s 2
f 30/51/6 23/53/6 39/54/6 38/52/6 
s 4
f 23/53/5 22/47/5 37/50/5 39/54/5 
s 2
f 2/55/5 5/56/5 40/57/5 41/58/5 
s 4
f 5/56/7 15/59/7 42/60/7 40/57/7 
s 2
f 15/59/3 11/61/3 43/62/3 42/60/3 
s 4
f 11/61/4 2/55/4 41/58/4 43/62/4 
s 2
f 9/63/5 8/64/5 44/65/5 45/66/5 
s 4
f 8/64/8 17/67/8 46/68/8 44/65/8 
s 2
f 17/67/3 13/69/3 47/70/3 46/68/3 
s 4
f 13/69/4 9/63/4 45/66/4 47/70/4 
f 48/71/1 49/72/1 50/73/1 51/74/1 
f 52/75/1 48/76/1 51/77/1 53/78/1 
f 52/75/1 53/78/1 54/79/1 55/80/1 
f 50/73/1 49/72/1 56/81/1 57/82/1 
s 1
f 58/83/9 49/72/9 48/71/10 59/84/10 
f 58/83/9 60/85/11 56/81/11 49/72/9 
s 8
f 60/85/6 61/86/6 57/82/6 56/81/6 
s 16
f 61/87/12 1/88/13 50/89/13 57/90/12 
f 4/91/14 51/92/14 50/89/13 1/93/13 
s 8
f 7/94/15 53/95/15 51/92/16 4/91/16 
f 7/96/15 62/97/17 54/98/17 53/99/15 
s 1
f 62/100/2 63/101/2 55/80/2 54/79/2 
s 2
f 63/101/18 64/102/19 52/75/19 55/80/18 
f 59/103/20 48/76/20 52/75/19 64/102/19 
s 18
f 65/104/21 66/105/22 67/106/23 68/107/24 
f 29/108/25 28/109/26 66/105/22 30/110/25 
f 31/111/25 30/110/25 66/105/22 69/112/25 
f 69/112/25 66/105/22 69/112/27 
f 66/105/22 28/109/26 27/113/28 26/114/28 
f 27/113/28 25/115/28 26/114/28 
f 66/105/22 26/114/28 67/106/23 
f 65/104/21 70/116/29 69/112/27 66/105/22 
s 1
f 33/117/1 32/118/1 34/119/1 35/120/1 
f 37/121/1 36/122/1 38/123/1 39/124/1 
f 40/125/1 42/126/1 43/127/1 41/128/1 
f 44/129/1 46/130/1 47/131/1 45/132/1 
f 71/133/5 72/134/5 73/135/5 74/136/5 
s 4
f 75/1/30 76/4/31 77/3/31 78/2/32 
f 79/5/33 80/6/34 75/1/30 78/2/32 
f 81/7/31 82/10/35 83/9/36 84/8/31 
f 77/3/31 76/4/31 81/7/31 84/8/31 
f 85/11/37 78/14/32 77/13/31 86/12/38 
f 87/15/39 83/18/36 82/17/35 88/16/40 
f 89/19/41 90/22/42 80/21/34 79/20/33 
f 91/23/43 86/12/38 77/13/31 84/24/31 
f 86/12/38 92/27/31 93/26/31 94/25/44 
f 95/28/45 90/22/42 89/19/41 85/11/37 
f 95/28/45 85/11/37 86/12/38 94/25/44 
f 96/29/31 92/27/31 86/12/38 97/30/46 
f 98/31/47 97/30/46 86/12/38 91/23/43 
f 87/15/39 88/16/40 98/31/47 91/23/43 
f 99/32/48 100/33/48 95/28/45 94/25/44 
f 93/26/31 92/27/31 101/35/31 102/34/31 
f 103/36/31 101/35/31 92/27/31 96/29/31 
f 97/30/46 98/31/47 104/38/49 105/37/49 
s 1
f 94/39/2 106/42/2 107/41/2 99/40/2 
s 2
f 99/40/3 107/41/3 108/44/3 102/43/3 
s 1
f 102/43/4 108/44/4 109/46/4 93/45/4 
s 2
f 93/45/5 109/46/5 106/42/5 94/39/5 
s 1
f 96/47/2 110/50/2 111/49/2 103/48/2 
s 2
f 103/48/3 111/49/3 112/52/3 105/51/3 
s 1
f 105/51/6 112/52/6 113/54/6 97/53/6 
s 2
f 97/53/5 113/54/5 110/50/5 96/47/5 
f 78/55/5 114/58/5 115/57/5 79/56/5 
s 8
f 79/56/7 115/57/7 116/60/7 89/59/7 
s 1
f 89/59/3 116/60/3 117/62/3 85/61/3 
s 8
f 85/61/4 117/62/4 114/58/4 78/55/4 
s 1
f 83/63/5 118/66/5 119/65/5 84/64/5 
s 2
f 84/64/8 119/65/8 120/68/8 91/67/8 
s 1
f 91/67/3 120/68/3 121/70/3 87/69/3 
s 2
f 87/69/4 121/70/4 118/66/4 83/63/4 
s 4
f 122/137/31 123/138/31 124/139/31 125/140/31 
f 126/141/31 127/142/31 123/143/31 122/144/31 
f 126/141/31 128/145/31 129/146/31 127/142/31 
f 124/139/31 130/147/31 131/148/31 125/140/31 
s 1
f 132/149/9 133/150/10 122/137/10 125/140/9 
f 132/149/9 125/140/9 131/148/11 134/151/11 
s 8
f 134/151/6 131/148/6 130/147/6 135/152/6 
s 16
f 135/87/12 130/90/12 124/89/13 75/88/50 
f 76/91/14 75/93/50 124/89/13 123/92/14 
s 8
f 81/94/51 76/91/16 123/92/16 127/95/52 
f 81/96/51 127/99/52 129/98/53 136/97/53 
s 1
f 136/153/54 129/146/54 128/145/54 137/154/54 
s 2
f 137/154/55 128/145/55 126/141/56 138/155/57 
f 133/156/20 138/155/57 126/141/56 122/144/20 
s 18
f 139/104/58 140/107/59 141/106/60 142/105/61 
f 142/105/61 101/109/62 103/108/63 105/110/63 
f 142/105/61 105/110/63 104/111/63 143/112/64 
f 142/105/61 141/106/60 100/114/65 102/113/66 
f 100/114/65 99/115/66 102/113/66 
f 142/105/61 102/113/66 101/109/62 
f 139/104/58 142/105/61 143/112/64 144/116/67 
s 1
f 106/117/31 109/120/31 108/119/31 107/118/31 
f 110/121/31 113/124/31 112/123/31 111/122/31 
f 115/125/31 114/128/31 117/127/31 116/126/31 
f 119/129/31 118/132/31 121/131/31 120/130/31 
f 145/133/5 74/136/5 73/135/5 146/134/5 
f 147/157/5 148/158/5 72/134/5 149/159/5 
f 59/84/68 133/160/10 132/161/9 58/83/10 
s 2
f 64/102/20 138/162/57 133/163/20 59/103/68 
s 1
f 137/164/69 63/101/69 62/100/69 136/165/69 
s 8
f 60/85/6 134/166/6 135/167/6 61/86/6 
s 2
f 138/162/57 64/102/70 63/101/70 137/164/70 
s 8
f 7/96/71 150/168/71 136/169/71 62/97/71 
s 16
f 151/170/12 1/88/12 61/87/12 135/171/12 
s 1
f 58/83/11 132/161/9 134/166/11 60/85/11 
s 8
f 68/172/72 67/173/73 152/174/3 153/175/74 
f 140/176/74 153/175/74 152/174/3 154/177/6 
f 154/177/6 141/178/74 140/176/74 
s 16
f 34/179/6 32/180/6 25/181/6 27/182/6 
f 38/183/6 36/184/6 29/185/6 30/186/6 
f 155/187/75 156/188/75 157/189/75 158/190/75 
s 4
f 70/191/76 159/192/76 160/193/76 69/194/76 
f 160/193/76 69/194/76 69/194/76 
s 2
f 143/195/77 161/196/78 162/197/79 144/198/80 
s 1
f 147/157/5 149/159/5 68/199/5 153/200/5 
f 147/157/5 153/200/5 140/201/5 
s 16
f 152/174/81 67/173/81 26/202/81 158/203/81 
f 154/177/82 152/174/82 158/203/82 157/204/82 
f 141/178/60 154/177/83 157/204/83 100/205/65 
s 1
f 65/206/5 68/199/5 149/159/5 72/134/5 
f 70/207/5 65/206/5 72/134/5 71/133/5 
f 159/208/5 70/209/5 71/133/5 163/210/5 
s 8
f 160/193/31 159/192/31 163/211/31 164/212/31 
s 16
f 69/194/84 160/193/84 164/212/84 31/213/84 
s 4
f 162/197/1 161/196/1 165/214/1 166/215/1 
s 1
f 144/216/5 162/217/5 166/218/5 167/219/5 
s 8
f 161/196/85 143/195/85 104/220/86 165/214/85 
s 4
f 168/221/1 169/222/1 166/223/1 165/224/1 
s 8
f 170/225/31 171/226/31 164/227/31 163/228/31 
s 1
f 166/218/5 169/222/5 148/158/5 167/219/5 
f 170/225/5 71/133/5 148/158/5 169/222/5 
f 170/225/5 163/228/5 71/133/5 
f 172/229/87 173/230/88 90/231/89 95/232/90 
f 21/233/91 174/234/6 90/231/89 173/230/88 
f 175/235/6 174/234/6 21/233/91 16/236/6 
f 176/237/2 177/238/2 104/239/2 88/240/2 
f 104/239/2 177/238/2 165/241/2 
f 14/242/2 164/243/2 178/244/2 179/245/2 
f 164/243/2 14/242/2 24/246/2 31/247/2 
f 176/237/2 180/248/2 178/244/2 177/238/2 
f 179/245/2 178/244/2 180/248/2 
f 181/249/2 10/250/2 14/242/2 179/245/2 
f 182/251/2 180/248/2 176/237/2 88/240/2 
f 182/251/2 183/252/2 180/248/2 
f 157/253/6 172/229/87 95/232/90 100/254/6 
f 173/230/88 184/255/92 26/256/93 21/233/91 
f 174/234/6 185/257/6 80/258/6 90/231/89 
f 186/259/6 175/235/6 16/236/6 6/260/6 
f 183/261/5 181/262/5 187/263/5 188/264/5 
f 181/262/94 179/265/95 189/266/96 187/263/31 
f 179/265/3 180/267/3 190/268/3 189/266/3 
f 180/267/1 183/261/1 188/264/1 190/268/1 
s 2
f 174/269/3 175/270/3 191/271/3 192/272/3 
s 4
f 175/270/31 186/273/31 193/274/31 191/271/31 
s 2
f 186/273/5 185/275/5 194/276/5 193/274/5 
s 4
f 185/275/1 174/269/1 192/272/1 194/276/1 
s 2
f 172/277/97 157/278/97 156/279/97 195/280/97 
s 4
f 157/278/98 184/281/99 196/282/100 156/279/101 
s 1
f 166/283/1 165/284/1 168/285/1 169/286/1 
f 165/284/1 177/287/1 197/288/1 168/285/1 
f 177/287/5 178/289/5 198/290/5 197/288/5 
f 178/289/31 164/291/31 171/292/31 198/290/31 
f 164/291/31 163/293/31 170/294/31 171/292/31 
s 4
f 173/295/5 172/296/5 195/297/5 199/298/5 
s 2
f 184/299/102 173/295/102 199/298/102 196/300/102 
f 200/301/2 201/302/2 197/303/2 198/304/2 
s 1
f 189/305/2 190/306/2 188/307/2 187/308/2 
f 194/309/6 192/310/6 191/311/6 193/312/6 
f 202/313/6 156/314/6 155/315/6 203/316/6 
# 182 polygons - 12 triangles

