# 3ds Max Wavefront OBJ Exporter v0.97b - (c)2007 guruware
# File Created: 11.10.2014 11:52:05

mtllib house26.mtl

#
# object Box001
#

v  -30.0000 0.0000 10.4908
v  -30.0000 0.0000 -40.0000
v  40.0000 0.0000 -40.0000
v  -30.0000 0.0000 24.6019
v  40.0000 0.0000 24.6019
v  -2.0000 43.0073 24.6019
v  -2.0000 16.4054 24.6019
v  12.2174 16.4054 24.6019
v  12.2174 43.0073 24.6019
v  -30.0000 9.2103 -40.0000
v  -30.0000 34.5596 -40.0000
v  -30.0000 43.7699 -40.0000
v  -30.0000 49.2161 -40.0000
v  40.0000 49.2161 -40.0000
v  40.0000 43.0073 -40.0000
v  40.0000 16.4054 -40.0000
v  -30.0000 49.2161 24.6019
v  -30.0000 43.7699 10.4908
v  -30.0000 43.0073 24.6019
v  -30.0000 16.4054 24.6019
v  -62.1368 43.7699 10.4908
v  -62.1368 32.9124 10.4908
v  -44.4097 32.9124 10.4908
v  -44.4097 43.7699 10.4908
v  40.0000 93.8867 -40.0000
v  40.0000 125.5406 -10.0000
v  40.0000 93.8867 24.6019
v  -30.0000 84.4869 -26.4062
v  -30.0000 58.6159 -26.4062
v  -30.0000 58.6159 11.0080
v  -30.0000 84.4869 11.0080
v  -74.6706 9.2103 10.4908
v  -74.6706 0.0000 10.4908
v  -62.1368 0.0000 10.4908
v  -74.6706 34.5596 10.4908
v  -74.6706 43.7699 10.4908
v  -44.4097 0.0000 10.4908
v  40.0000 49.2161 24.6019
v  -20.6197 43.0073 24.6019
v  30.8371 43.0073 24.6019
v  40.0000 43.0073 24.6019
v  40.0000 16.4054 24.6019
v  30.8371 16.4054 24.6019
v  -20.6197 16.4054 24.6019
v  40.0000 43.0073 8.4514
v  40.0000 43.0073 -7.6991
v  40.0000 43.0073 -23.8495
v  40.0000 16.4054 -23.8495
v  40.0000 16.4054 -7.6991
v  40.0000 16.4054 8.4514
v  42.7649 93.6044 24.9104
v  42.7643 93.5861 24.9305
v  -30.0000 93.8867 24.6019
v  -30.0000 88.4256 24.6019
v  -9.2703 88.4256 24.6019
v  19.9614 88.4256 24.6019
v  40.0000 88.4256 24.6019
v  40.0000 58.6159 24.6019
v  19.9614 58.6159 24.6019
v  -9.2703 58.6159 24.6019
v  -30.0000 58.6159 24.6019
v  -30.0000 93.8867 -40.0000
v  40.0000 88.4256 -40.0000
v  19.0766 88.4256 -40.0000
v  -14.1299 88.4256 -40.0000
v  -30.0000 88.4256 -40.0000
v  -30.0000 58.6159 -40.0000
v  -14.1299 58.6159 -40.0000
v  19.0766 58.6159 -40.0000
v  40.0000 58.6159 -40.0000
v  -30.0000 125.5406 -10.0000
v  40.0000 58.6159 -22.0143
v  40.0000 58.6159 8.5408
v  40.0000 88.4256 8.5408
v  40.0000 88.4256 -22.0143
v  -74.6706 75.4239 -17.0555
v  -74.6706 43.7699 -40.0000
v  -74.6706 34.5596 -40.0000
v  -74.6706 34.5596 -29.3755
v  -74.6706 34.5596 -0.1337
v  -74.6706 0.0000 -40.0000
v  -74.6706 9.2103 -0.1337
v  -74.6706 9.2103 -29.3755
v  -74.6706 9.2103 -40.0000
v  -60.2146 9.2103 -40.0000
v  -43.2912 9.2103 -40.0000
v  -43.2912 34.5596 -40.0000
v  -60.2146 34.5596 -40.0000
v  36.1640 43.0073 8.4514
v  36.1640 43.0073 -7.6991
v  36.1640 43.0073 -23.8495
v  36.1640 16.4054 8.4514
v  36.1640 16.4054 -23.8495
v  36.1640 16.4054 -7.6991
v  -70.8346 34.5596 -29.3755
v  -70.8346 34.5596 -0.1337
v  -70.8346 9.2103 -29.3755
v  -70.8346 9.2103 -0.1337
v  -60.2146 9.2103 -36.1640
v  -43.2912 9.2103 -36.1640
v  -60.2146 34.5596 -36.1640
v  -43.2912 34.5596 -36.1640
v  -9.2703 88.4256 20.7659
v  19.9614 88.4256 20.7659
v  -9.2703 58.6159 20.7659
v  19.9614 58.6159 20.7659
v  19.0766 88.4256 -36.1640
v  -14.1299 88.4256 -36.1640
v  19.0766 58.6159 -36.1640
v  -14.1299 58.6159 -36.1640
v  -44.4097 32.9124 6.6548
v  -44.4097 0.0000 6.6548
v  -62.1368 32.9124 6.6548
v  -62.1368 0.0000 6.6548
v  -20.6197 43.0073 20.7659
v  -2.0000 43.0073 20.7659
v  -20.6197 16.4054 20.7659
v  -2.0000 16.4054 20.7659
v  12.2174 43.0073 20.7659
v  30.8371 43.0073 20.7659
v  12.2174 16.4054 20.7659
v  30.8371 16.4054 20.7659
v  36.1640 58.6159 -22.0143
v  36.1640 58.6159 8.5408
v  36.1640 88.4256 -22.0143
v  36.1640 88.4256 8.5408
v  40.0000 96.7172 27.1912
v  40.0000 129.3745 -10.1367
v  -30.0000 129.3745 -10.1367
v  -30.0000 96.7172 27.1912
v  -30.0000 79.2563 -17.2260
v  -74.6706 79.2563 -17.2260
v  -74.6706 46.2883 13.3847
v  -30.0000 46.2883 13.3847
v  40.0000 96.5256 -42.7844
v  -30.0000 96.5256 -42.7844
v  -30.0000 46.0214 -43.1061
v  -74.6706 46.0214 -43.1061
v  -32.7129 92.0559 26.6031
v  42.7129 92.0559 26.6031
v  42.6936 94.8735 29.2067
v  -32.6936 94.8735 29.2067
v  43.8363 125.5406 -10.0000
v  43.8363 129.3745 -10.1367
v  42.7692 93.6112 -40.2611
v  42.7126 91.9178 -41.8660
v  42.6919 94.5418 -44.6646
v  -32.7126 91.9178 -41.8660
v  -32.6919 94.5418 -44.6646
v  -33.8363 125.5406 -10.0000
v  -33.8363 129.3745 -10.1367
v  -30.0000 75.4239 -17.0555
v  -30.0000 40.6638 -42.2515
v  -77.3832 41.5736 -41.5920
v  -77.3533 43.8011 -44.7155
v  -30.0000 42.9153 -45.3575
v  -78.5068 75.4239 -17.0555
v  -78.5068 79.2563 -17.2260
v  -77.3832 41.7236 12.2716
v  -77.3550 44.2209 15.1838
v  -30.0000 40.8760 13.0092
v  -30.0000 43.3944 15.9031
# 162 vertices

vn 0.0000 -1.0000 -0.0000
vn 0.0000 0.0000 1.0000
vn 0.0000 0.0000 -1.0000
vn -1.0000 0.0000 -0.0000
vn 1.0000 0.0000 -0.0000
vn 0.0000 -0.7377 -0.6751
vn 0.0000 1.0000 -0.0000
vn 0.0000 1.0000 0.0000
vn 1.0000 -0.0000 -0.0000
vn -1.0000 -0.0000 -0.0000
vn 0.0000 -0.0000 -1.0000
vn 0.0000 0.7526 0.6585
vn 0.0000 0.9994 -0.0348
vn 0.0000 0.6804 0.7328
vn 0.0000 0.7049 -0.7093
vn 0.0000 0.6144 -0.7890
vn 0.0000 -0.6787 0.7344
vn 0.9995 0.0011 0.0317
vn 0.9997 -0.0107 0.0197
vn 0.9997 -0.0140 -0.0205
vn 0.9995 -0.0011 -0.0320
vn 0.0000 -0.7295 -0.6840
vn -0.9996 -0.0084 -0.0255
vn -0.9997 -0.0061 0.0243
vn -0.0234 -0.8116 -0.5837
vn -0.9995 -0.0109 -0.0292
vn -0.9996 -0.0078 0.0282
vn -0.0234 -0.7565 0.6536
vn 0.0000 -0.7378 -0.6750
vn -0.0000 -0.6879 0.7258
vn 0.0000 -0.6879 0.7258
vn 0.0000 0.7378 0.6750
vn -0.0090 0.7521 0.6589
vn -0.0096 0.7043 -0.7098
vn 0.0000 0.6879 -0.7258
vn 0.0096 0.7043 -0.7098
vn 0.0090 0.7521 0.6589
vn 0.0000 -0.6565 -0.7544
vn 0.0000 0.6565 0.7544
vn -0.0131 0.6795 0.7335
vn -0.0139 0.6133 -0.7897
vn -0.0000 0.5869 -0.8097
vn -0.0000 -0.5869 0.8097
# 43 vertex normals

vt 0.6932 0.6005 0.0000
vt 0.6924 0.7043 0.0000
vt 0.5486 0.7032 0.0000
vt 0.6934 0.5715 0.0000
vt 0.5496 0.5705 0.0000
vt 0.3516 0.6909 0.0000
vt 0.3516 0.5999 0.0000
vt 0.4002 0.5999 0.0000
vt 0.4002 0.6909 0.0000
vt 0.2553 0.5438 0.0000
vt 0.4947 0.5438 0.0000
vt 0.4947 0.5753 0.0000
vt 0.4947 0.6620 0.0000
vt 0.4947 0.6935 0.0000
vt 0.4947 0.7121 0.0000
vt 0.2553 0.7121 0.0000
vt 0.2553 0.6909 0.0000
vt 0.2553 0.5999 0.0000
vt 0.4953 0.7121 0.0000
vt 0.2744 0.7121 0.0000
vt 0.2744 0.6935 0.0000
vt 0.4470 0.6935 0.0000
vt 0.4953 0.6909 0.0000
vt 0.4953 0.5999 0.0000
vt 0.4953 0.5438 0.0000
vt 0.4470 0.5438 0.0000
vt 0.3721 0.7113 0.0000
vt 0.3721 0.6698 0.0000
vt 0.4400 0.6697 0.0000
vt 0.4400 0.7113 0.0000
vt 0.2676 0.7118 0.0000
vt 0.3655 0.6078 0.0000
vt 0.4793 0.7111 0.0000
vt 0.3236 0.6621 0.0000
vt 0.3236 0.5751 0.0000
vt 0.4495 0.5751 0.0000
vt 0.4495 0.6622 0.0000
vt 0.3241 0.5789 0.0000
vt 0.3241 0.5437 0.0000
vt 0.3721 0.5437 0.0000
vt 0.3241 0.6761 0.0000
vt 0.3241 0.7113 0.0000
vt 0.4952 0.5436 0.0000
vt 0.4952 0.7113 0.0000
vt 0.4400 0.5436 0.0000
vt 0.4952 0.7121 0.0000
vt 0.2559 0.7121 0.0000
vt 0.2559 0.6909 0.0000
vt 0.2880 0.6909 0.0000
vt 0.4639 0.6909 0.0000
vt 0.4952 0.6909 0.0000
vt 0.2559 0.5438 0.0000
vt 0.4952 0.5438 0.0000
vt 0.4952 0.5999 0.0000
vt 0.4639 0.5999 0.0000
vt 0.2880 0.5999 0.0000
vt 0.2559 0.5999 0.0000
vt 0.4951 0.7121 0.0000
vt 0.2742 0.7121 0.0000
vt 0.2742 0.6909 0.0000
vt 0.3294 0.6909 0.0000
vt 0.3846 0.6909 0.0000
vt 0.4399 0.6909 0.0000
vt 0.4951 0.6909 0.0000
vt 0.2742 0.5438 0.0000
vt 0.4951 0.5438 0.0000
vt 0.4951 0.5999 0.0000
vt 0.4399 0.5999 0.0000
vt 0.3846 0.5999 0.0000
vt 0.3294 0.5999 0.0000
vt 0.2742 0.5999 0.0000
vt 0.4838 0.7031 0.0000
vt 0.4839 0.7032 0.0000
vt 0.4952 0.6941 0.0000
vt 0.2600 0.6944 0.0000
vt 0.2600 0.6760 0.0000
vt 0.3296 0.6759 0.0000
vt 0.4278 0.6758 0.0000
vt 0.4952 0.6758 0.0000
vt 0.2598 0.5443 0.0000
vt 0.4950 0.5440 0.0000
vt 0.4950 0.5756 0.0000
vt 0.4277 0.5757 0.0000
vt 0.3295 0.5758 0.0000
vt 0.2598 0.5759 0.0000
vt 0.4950 0.6936 0.0000
vt 0.2598 0.6939 0.0000
vt 0.2598 0.6755 0.0000
vt 0.3301 0.6754 0.0000
vt 0.4416 0.6753 0.0000
vt 0.4950 0.6752 0.0000
vt 0.2596 0.5438 0.0000
vt 0.4948 0.5435 0.0000
vt 0.4949 0.5751 0.0000
vt 0.4415 0.5751 0.0000
vt 0.3300 0.5753 0.0000
vt 0.2597 0.5754 0.0000
vt 0.3813 0.5708 0.0000
vt 0.4801 0.6730 0.0000
vt 0.4802 0.6907 0.0000
vt 0.2683 0.6739 0.0000
vt 0.4356 0.7036 0.0000
vt 0.3130 0.7041 0.0000
vt 0.2683 0.6916 0.0000
vt 0.2779 0.5435 0.0000
vt 0.4952 0.5435 0.0000
vt 0.4952 0.5751 0.0000
vt 0.2779 0.5751 0.0000
vt 0.2779 0.5440 0.0000
vt 0.4950 0.5438 0.0000
vt 0.4950 0.5754 0.0000
vt 0.4346 0.5754 0.0000
vt 0.3319 0.5755 0.0000
vt 0.2780 0.5756 0.0000
vt 0.4952 0.6939 0.0000
vt 0.2781 0.6941 0.0000
vt 0.2781 0.6758 0.0000
vt 0.3321 0.6757 0.0000
vt 0.4347 0.6756 0.0000
vt 0.4952 0.6755 0.0000
vt 0.2779 0.6754 0.0000
vt 0.4952 0.6754 0.0000
vt 0.3741 0.6863 0.0000
vt 0.2836 0.5614 0.0000
vt 0.2836 0.5251 0.0000
vt 0.4828 0.5614 0.0000
vt 0.3255 0.5251 0.0000
vt 0.4409 0.5251 0.0000
vt 0.4828 0.5251 0.0000
vt 0.3017 0.5435 0.0000
vt 0.4952 0.5437 0.0000
vt 0.4951 0.5789 0.0000
vt 0.4544 0.5789 0.0000
vt 0.3424 0.5789 0.0000
vt 0.3017 0.5788 0.0000
vt 0.3239 0.5434 0.0000
vt 0.4950 0.5435 0.0000
vt 0.4950 0.5788 0.0000
vt 0.4396 0.5788 0.0000
vt 0.3748 0.5787 0.0000
vt 0.3238 0.5787 0.0000
vt 0.4948 0.7113 0.0000
vt 0.3237 0.7111 0.0000
vt 0.3237 0.6758 0.0000
vt 0.3747 0.6758 0.0000
vt 0.4395 0.6759 0.0000
vt 0.4949 0.6760 0.0000
vt 0.3016 0.6760 0.0000
vt 0.3423 0.6760 0.0000
vt 0.4952 0.6761 0.0000
vt 0.4544 0.6761 0.0000
vt 0.8166 0.4059 0.0000
vt 0.8166 0.4508 0.0000
vt 0.8059 0.4508 0.0000
vt 0.8059 0.4059 0.0000
vt 0.8166 0.3610 0.0000
vt 0.8059 0.3610 0.0000
vt 0.8188 0.2772 0.0000
vt 0.8188 0.3512 0.0000
vt 0.8081 0.3512 0.0000
vt 0.8082 0.2772 0.0000
vt 0.8188 0.3961 0.0000
vt 0.8188 0.4410 0.0000
vt 0.8081 0.4410 0.0000
vt 0.8081 0.3961 0.0000
vt 0.8166 0.2871 0.0000
vt 0.8059 0.2871 0.0000
vt 0.8033 0.3727 0.0000
vt 0.8050 0.2782 0.0000
vt 0.8173 0.2785 0.0000
vt 0.8157 0.3729 0.0000
vt 0.8027 0.4518 0.0000
vt 0.8041 0.3700 0.0000
vt 0.8165 0.3702 0.0000
vt 0.8151 0.4520 0.0000
vt 0.8058 0.2755 0.0000
vt 0.8182 0.2757 0.0000
vt 0.8019 0.4545 0.0000
vt 0.8143 0.4547 0.0000
vt 0.8208 0.3094 0.0000
vt 0.8172 0.4107 0.0000
vt 0.8037 0.4232 0.0000
vt 0.8083 0.2959 0.0000
vt 0.8159 0.2917 0.0000
vt 0.8159 0.4501 0.0000
vt 0.8030 0.4631 0.0000
vt 0.8030 0.2788 0.0000
vt 0.8219 0.3303 0.0000
vt 0.8205 0.4317 0.0000
vt 0.8074 0.4445 0.0000
vt 0.8091 0.3172 0.0000
vt 0.8047 0.4507 0.0000
vt 0.8047 0.2923 0.0000
vt 0.8177 0.2793 0.0000
vt 0.8177 0.4636 0.0000
vt 0.8195 0.3659 0.0000
vt 0.8177 0.4523 0.0000
vt 0.8064 0.4521 0.0000
vt 0.8081 0.3656 0.0000
vt 0.8200 0.2787 0.0000
vt 0.8182 0.3669 0.0000
vt 0.8069 0.3667 0.0000
vt 0.8086 0.2785 0.0000
vt 0.8165 0.4534 0.0000
vt 0.8052 0.4531 0.0000
vt 0.8212 0.2777 0.0000
vt 0.8099 0.2775 0.0000
vt 0.8205 0.3735 0.0000
vt 0.8203 0.4867 0.0000
vt 0.8072 0.4866 0.0000
vt 0.8075 0.3734 0.0000
vt 0.8203 0.2708 0.0000
vt 0.8200 0.3724 0.0000
vt 0.8069 0.3724 0.0000
vt 0.8072 0.2708 0.0000
vt 0.8198 0.4856 0.0000
vt 0.8067 0.4856 0.0000
vt 0.8208 0.2718 0.0000
vt 0.8077 0.2718 0.0000
vt 0.8003 0.4448 0.0000
vt 0.8028 0.2763 0.0000
vt 0.8172 0.2766 0.0000
vt 0.8147 0.4451 0.0000
vt 0.8015 0.4656 0.0000
vt 0.8025 0.3994 0.0000
vt 0.8172 0.3997 0.0000
vt 0.8158 0.4659 0.0000
vt 0.8050 0.2765 0.0000
vt 0.8197 0.2767 0.0000
vt 0.8036 0.3526 0.0000
vt 0.8038 0.2820 0.0000
vt 0.8183 0.2820 0.0000
vt 0.8182 0.3527 0.0000
vt 0.8015 0.4556 0.0000
vt 0.8017 0.3547 0.0000
vt 0.8162 0.3547 0.0000
vt 0.8161 0.4556 0.0000
vt 0.8018 0.2840 0.0000
vt 0.8163 0.2840 0.0000
vt 0.8035 0.4536 0.0000
vt 0.8180 0.4536 0.0000
vt 0.8073 0.3481 0.0000
vt 0.8074 0.2775 0.0000
vt 0.8219 0.2775 0.0000
vt 0.8218 0.3481 0.0000
vt 0.8051 0.4511 0.0000
vt 0.8053 0.3501 0.0000
vt 0.8198 0.3502 0.0000
vt 0.8197 0.4511 0.0000
vt 0.8054 0.2795 0.0000
vt 0.8200 0.2795 0.0000
vt 0.8071 0.4490 0.0000
vt 0.8217 0.4491 0.0000
vt 0.8183 0.3637 0.0000
vt 0.8193 0.4525 0.0000
vt 0.8082 0.4527 0.0000
vt 0.8071 0.3639 0.0000
vt 0.8129 0.2752 0.0000
vt 0.8139 0.3618 0.0000
vt 0.8027 0.3620 0.0000
vt 0.8017 0.2753 0.0000
vt 0.8150 0.4506 0.0000
vt 0.8038 0.4508 0.0000
vt 0.8172 0.2771 0.0000
vt 0.8061 0.2772 0.0000
vt 0.5753 0.6864 0.0000
vt 0.5752 0.6568 0.0000
vt 0.5831 0.6568 0.0000
vt 0.6789 0.5945 0.0000
vt 0.5831 0.6203 0.0000
vt 0.5752 0.6203 0.0000
vt 0.5752 0.5946 0.0000
vt 0.6790 0.6863 0.0000
vt 0.1888 0.7592 0.0000
vt 0.1885 0.8788 0.0000
vt 0.0201 0.8788 0.0000
vt 0.0198 0.7592 0.0000
vt 0.1451 0.8787 0.0000
vt 0.0280 0.8787 0.0000
vt 0.0280 0.7608 0.0000
vt 0.1451 0.7608 0.0000
vt 0.1887 0.9905 0.0000
vt 0.0199 0.9905 0.0000
vt 0.1451 0.9891 0.0000
vt 0.0280 0.9891 0.0000
vt 0.5764 0.6446 0.0000
vt 0.5764 0.6137 0.0000
vt 0.5777 0.6131 0.0000
vt 0.5777 0.6453 0.0000
vt 0.5759 0.6135 0.0000
vt 0.5612 0.6001 0.0000
vt 0.5611 0.5984 0.0000
vt 0.5757 0.6134 0.0000
vt 0.5485 0.6134 0.0000
vt 0.5479 0.6137 0.0000
vt 0.5465 0.6132 0.0000
vt 0.5478 0.6446 0.0000
vt 0.5464 0.6452 0.0000
vt 0.5611 0.6584 0.0000
vt 0.5611 0.6600 0.0000
vt 0.5328 0.6122 0.0000
vt 0.5179 0.6324 0.0000
vt 0.5156 0.6319 0.0000
vt 0.5327 0.6097 0.0000
vt 0.5180 0.6339 0.0000
vt 0.5435 0.6502 0.0000
vt 0.5432 0.6524 0.0000
vt 0.5162 0.6353 0.0000
vt 0.5694 0.6422 0.0000
vt 0.5717 0.6432 0.0000
vt 0.5561 0.6164 0.0000
vt 0.5579 0.6148 0.0000
vt 0.5301 0.6004 0.0000
vt 0.5314 0.5982 0.0000
vt 0.5751 0.6440 0.0000
vt 0.5751 0.6145 0.0000
vt 0.5492 0.6144 0.0000
vt 0.5612 0.6011 0.0000
vt 0.5491 0.6440 0.0000
vt 0.5611 0.6574 0.0000
vt 0.0132 0.7526 0.0000
vt 0.1954 0.7526 0.0000
vt 0.0111 0.8788 0.0000
vt 0.0134 0.9970 0.0000
vt 0.1952 0.9970 0.0000
vt 0.1975 0.8788 0.0000
vt 0.5681 0.6416 0.0000
vt 0.5545 0.6178 0.0000
vt 0.5370 0.6074 0.0000
vt 0.5289 0.6026 0.0000
vt 0.5470 0.6133 0.0000
vt 0.0210 0.7536 0.0000
vt 0.1451 0.7507 0.0000
vt 0.0180 0.8787 0.0000
vt 0.0210 0.9962 0.0000
vt 0.1451 0.9991 0.0000
vt 0.5192 0.6317 0.0000
vt 0.5438 0.6481 0.0000
vt 0.5020 0.3738 0.0000
vt 0.5022 0.2529 0.0000
vt 0.5633 0.2530 0.0000
vt 0.5636 0.3736 0.0000
vt 0.6239 0.2530 0.0000
vt 0.6239 0.3736 0.0000
vt 0.5021 0.3737 0.0000
vt 0.5021 0.2531 0.0000
vt 0.6237 0.2531 0.0000
vt 0.6237 0.3737 0.0000
vt 0.5072 0.3744 0.0000
vt 0.5072 0.2534 0.0000
vt 0.5635 0.2534 0.0000
vt 0.5637 0.3743 0.0000
vt 0.5020 0.3737 0.0000
vt 0.5020 0.2532 0.0000
vt 0.6238 0.2531 0.0000
vt 0.1256 0.3762 0.0000
vt 0.1862 0.3762 0.0000
vt 0.1862 0.4987 0.0000
vt 0.1256 0.4987 0.0000
vt 0.5073 0.3743 0.0000
vt 0.5637 0.2533 0.0000
vt 0.5637 0.3744 0.0000
vt 0.5636 0.2533 0.0000
vt 0.5073 0.3744 0.0000
vt 0.5073 0.2533 0.0000
vt 0.6238 0.2532 0.0000
vt 0.6238 0.3737 0.0000
# 367 texture coords

g Box001
usemtl 08___Default
s 2
f 1/1/1 2/2/1 3/3/1 4/4/1 
f 4/4/1 3/3/1 5/5/1 
s 8
f 6/6/2 7/7/2 8/8/2 9/9/2 
s 32
f 3/10/3 2/11/3 10/12/3 11/13/3 
f 3/10/3 11/13/3 12/14/3 13/15/3 
f 13/15/3 14/16/3 15/17/3 16/18/3 
f 3/10/3 13/15/3 16/18/3 
s 64
f 17/19/4 13/20/4 12/21/4 18/22/4 
f 19/23/4 17/19/4 18/22/4 20/24/4 
f 4/25/4 20/24/4 18/22/4 1/26/4 
s off
f 21/27/2 22/28/2 23/29/2 24/30/2 
f 25/31/5 26/32/5 27/33/5 
f 28/34/4 29/35/4 30/36/4 31/37/4 
f 32/38/2 33/39/2 34/40/2 35/41/2 
f 36/42/2 35/41/2 34/40/2 22/28/2 
f 21/27/2 36/42/2 22/28/2 
f 1/43/2 18/44/2 24/30/2 23/29/2 
f 37/45/2 1/43/2 23/29/2 
s 8
f 38/46/2 17/47/2 19/48/2 39/49/2 
f 38/46/2 39/49/2 6/6/2 9/9/2 
f 38/46/2 9/9/2 40/50/2 41/51/2 
f 4/52/2 5/53/2 42/54/2 43/55/2 
f 4/52/2 43/55/2 8/8/2 7/7/2 
f 4/52/2 7/7/2 44/56/2 20/57/2 
s 16
f 14/58/5 38/59/5 41/60/5 45/61/5 
f 14/58/5 45/61/5 46/62/5 47/63/5 
f 15/64/5 14/58/5 47/63/5 
f 5/65/5 3/66/5 16/67/5 48/68/5 
f 5/65/5 48/68/5 49/69/5 50/70/5 
f 42/71/5 5/65/5 50/70/5 
s 8
f 19/48/2 20/57/2 44/56/2 39/49/2 
f 42/54/2 41/51/2 40/50/2 43/55/2 
s 16
f 41/60/5 42/71/5 50/70/5 45/61/5 
f 16/67/5 15/64/5 47/63/5 48/68/5 
s off
f 27/33/6 51/72/6 52/73/6 
f 27/74/2 53/75/2 54/76/2 55/77/2 
f 27/74/2 55/77/2 56/78/2 57/79/2 
f 17/80/2 38/81/2 58/82/2 59/83/2 
f 17/80/2 59/83/2 60/84/2 61/85/2 
f 62/86/3 25/87/3 63/88/3 64/89/3 
f 62/86/3 64/89/3 65/90/3 66/91/3 
f 14/92/3 13/93/3 67/94/3 68/95/3 
f 14/92/3 68/95/3 69/96/3 70/97/3 
f 71/98/4 62/99/4 66/100/4 53/101/4 
f 53/101/4 66/100/4 28/102/4 31/103/4 
f 54/104/4 53/101/4 31/103/4 
f 13/105/4 17/106/4 61/107/4 30/36/4 
f 13/105/4 30/36/4 29/35/4 67/108/4 
f 38/109/5 14/110/5 70/111/5 72/112/5 
f 38/109/5 72/112/5 73/113/5 58/114/5 
f 25/115/5 27/116/5 57/117/5 74/118/5 
f 25/115/5 74/118/5 75/119/5 63/120/5 
f 54/76/2 61/85/2 60/84/2 55/77/2 
f 58/82/2 57/79/2 56/78/2 59/83/2 
f 63/88/3 70/97/3 69/96/3 64/89/3 
f 67/94/3 66/91/3 65/90/3 68/95/3 
f 66/121/4 67/108/4 29/35/4 28/34/4 
f 61/107/4 54/122/4 31/37/4 30/36/4 
f 70/111/5 63/120/5 75/119/5 72/112/5 
f 57/117/5 58/114/5 73/113/5 74/118/5 
s 64
f 76/123/4 77/124/4 78/125/4 36/126/4 
f 36/126/4 78/125/4 79/127/4 80/128/4 
f 35/129/4 36/126/4 80/128/4 
f 81/130/4 33/131/4 32/132/4 82/133/4 
f 81/130/4 82/133/4 83/134/4 84/135/4 
s off
f 2/136/3 81/137/3 84/138/3 85/139/3 
f 2/136/3 85/139/3 86/140/3 10/141/3 
f 77/142/3 12/143/3 11/144/3 87/145/3 
f 77/142/3 87/145/3 88/146/3 78/147/3 
s 64
f 78/148/4 84/135/4 83/134/4 79/149/4 
f 32/132/4 35/150/4 80/151/4 82/133/4 
s off
f 84/138/3 78/147/3 88/146/3 85/139/3 
f 11/144/3 10/141/3 86/140/3 87/145/3 
f 46/152/1 45/153/1 89/154/1 90/155/1 
f 47/156/1 46/152/1 90/155/1 91/157/1 
f 45/158/3 50/159/3 92/160/3 89/161/3 
f 49/162/7 48/163/7 93/164/7 94/165/7 
f 50/159/7 49/162/7 94/165/7 92/160/7 
f 48/166/2 47/156/2 91/157/2 93/167/2 
f 80/168/1 79/169/1 95/170/1 96/171/1 
f 79/172/2 83/173/2 97/174/2 95/175/2 
f 83/173/8 82/176/8 98/177/8 97/174/8 
f 82/178/3 80/168/3 96/171/3 98/179/3 
f 86/180/7 85/181/7 99/182/7 100/183/7 
f 85/184/5 88/185/5 101/186/5 99/187/5 
f 88/188/1 87/189/1 102/190/1 101/191/1 
f 87/192/4 86/193/4 100/194/4 102/195/4 
f 56/196/1 55/197/1 103/198/1 104/199/1 
f 55/200/9 60/201/9 105/202/9 103/203/9 
f 60/201/7 59/204/7 106/205/7 105/202/7 
f 59/206/4 56/196/4 104/199/4 106/207/4 
f 65/208/1 64/209/1 107/210/1 108/211/1 
f 64/212/10 69/213/10 109/214/10 107/215/10 
f 69/213/7 68/216/7 110/217/7 109/214/7 
f 68/218/5 65/208/5 108/211/5 110/219/5 
f 37/220/4 23/221/4 111/222/4 112/223/4 
f 23/224/1 22/225/1 113/226/1 111/227/1 
f 22/225/5 34/228/5 114/229/5 113/226/5 
f 6/230/1 39/231/1 115/232/1 116/233/1 
f 39/234/5 44/235/5 117/236/5 115/237/5 
f 44/235/7 7/238/7 118/239/7 117/236/7 
f 7/240/4 6/230/4 116/233/4 118/241/4 
f 40/242/1 9/243/1 119/244/1 120/245/1 
f 9/246/5 8/247/5 121/248/5 119/249/5 
f 8/247/7 43/250/7 122/251/7 121/248/7 
f 43/252/4 40/242/4 120/245/4 122/253/4 
f 73/254/7 72/255/7 123/256/7 124/257/7 
f 72/258/2 75/259/2 125/260/2 123/261/2 
f 75/259/1 74/262/1 126/263/1 125/260/1 
f 74/264/11 73/254/11 124/257/11 126/265/11 
f 1/266/1 37/267/1 112/268/1 81/269/1 
f 114/270/1 34/271/1 33/272/1 81/269/1 
f 112/268/1 114/270/1 81/269/1 
f 1/266/1 81/269/1 2/273/1 
s 4
f 127/274/12 128/275/13 129/276/13 130/277/12 
s off
f 131/278/14 132/279/14 133/280/14 134/281/14 
s 4
f 135/282/15 136/283/15 129/276/13 128/275/13 
s off
f 137/284/16 138/285/16 132/279/16 131/278/16 
f 139/286/17 140/287/17 141/288/17 142/289/17 
f 51/290/18 143/291/18 144/292/18 52/293/18 
f 140/287/19 52/293/19 144/292/19 141/288/19 
f 145/294/20 146/295/20 147/296/20 143/291/20 
f 143/291/21 147/296/21 144/292/21 
f 146/295/22 148/297/22 149/298/22 147/296/22 
f 148/297/23 150/299/23 151/300/23 149/298/23 
f 150/299/24 139/286/24 142/289/24 151/300/24 
f 152/301/5 12/302/5 137/303/5 131/304/5 
f 153/305/25 154/306/25 155/307/25 156/308/25 
f 154/306/26 157/309/26 158/310/26 155/307/26 
f 157/309/27 159/311/27 160/312/27 158/310/27 
f 159/311/28 161/313/28 162/314/28 160/312/28 
f 53/315/29 27/316/29 140/287/29 139/286/29 
f 27/316/29 52/293/29 140/287/29 
f 25/317/30 145/294/30 143/291/30 26/318/30 
f 25/317/31 62/319/31 148/297/31 146/295/31 
f 62/319/31 71/320/31 150/299/31 148/297/31 
f 71/320/29 53/315/29 139/286/29 150/299/29 
f 127/274/32 130/277/32 142/321/32 141/322/32 
f 130/277/33 129/276/33 151/323/33 142/321/33 
f 129/276/34 136/283/34 149/324/34 151/323/34 
f 136/283/35 135/282/35 147/325/35 149/324/35 
f 135/282/36 128/275/36 144/326/36 147/325/36 
f 128/275/37 127/274/37 141/322/37 144/326/37 
f 76/327/38 36/328/38 159/311/38 157/309/38 
f 24/329/38 18/330/38 161/313/38 21/331/38 
f 36/328/38 21/331/38 161/313/38 159/311/38 
f 134/281/39 133/280/39 160/332/39 162/333/39 
f 133/280/40 132/279/40 158/334/40 160/332/40 
f 132/279/41 138/285/41 155/335/41 158/334/41 
f 138/285/42 137/284/42 156/336/42 155/335/42 
f 137/303/5 12/302/5 153/305/5 156/308/5 
f 12/337/43 77/338/43 154/306/43 153/305/43 
f 77/338/43 76/327/43 157/309/43 154/306/43 
f 27/316/29 26/318/29 143/291/29 51/290/29 
f 25/317/30 146/295/30 145/294/30 
s 16
f 89/339/5 92/340/5 94/341/5 90/342/5 
f 90/342/5 94/341/5 93/343/5 91/344/5 
s 64
f 95/345/4 97/346/4 98/347/4 96/348/4 
s off
f 99/349/3 101/350/3 102/351/3 100/352/3 
f 103/353/2 105/354/2 106/355/2 104/348/2 
f 107/353/3 109/346/3 110/355/3 108/348/3 
f 114/356/2 112/357/2 111/358/2 113/359/2 
s 8
f 115/360/2 117/350/2 118/361/2 116/362/2 
f 122/363/2 120/352/2 119/364/2 121/365/2 
s off
f 123/366/5 125/367/5 126/353/5 124/346/5 
# 150 polygons - 15 triangles

