# 3ds Max Wavefront OBJ Exporter v0.97b - (c)2007 guruware
# File Created: 11.10.2014 12:30:49

mtllib house42.mtl

#
# object Box001
#

v  12.2174 16.4054 24.6019
v  12.2174 43.0073 24.6019
v  -2.0000 43.0073 24.6019
v  -2.0000 16.4054 24.6019
v  -6.6667 0.0000 -34.0000
v  -6.6667 41.7212 -34.0000
v  16.6667 41.7212 -34.0000
v  16.6667 0.0000 -34.0000
v  -30.0000 43.7699 -40.0000
v  -30.0000 43.7699 10.4908
v  -30.0000 49.2161 24.6019
v  -30.0000 49.2161 -40.0000
v  -30.0000 16.4054 24.6019
v  -30.0000 43.0073 24.6019
v  -30.0000 0.0000 10.4908
v  -30.0000 0.0000 24.6019
v  40.0000 93.8867 -40.0000
v  40.0000 125.5406 -10.0000
v  40.0000 93.8867 24.6019
v  -30.0000 58.6159 11.0080
v  -30.0000 84.4869 11.0080
v  -30.0000 84.4869 -26.4062
v  -30.0000 58.6159 -26.4062
v  -20.6197 43.0073 24.6019
v  40.0000 49.2161 24.6019
v  30.8371 43.0073 24.6019
v  40.0000 43.0073 24.6019
v  40.0000 16.4054 24.6019
v  30.8371 16.4054 24.6019
v  40.0000 0.0000 24.6019
v  -20.6197 16.4054 24.6019
v  40.0000 43.0073 8.4514
v  40.0000 49.2161 -40.0000
v  40.0000 43.0073 -7.6991
v  40.0000 43.0073 -23.8495
v  40.0000 43.0073 -40.0000
v  40.0000 16.4054 -40.0000
v  40.0000 16.4054 -23.8495
v  40.0000 0.0000 -40.0000
v  40.0000 16.4054 -7.6991
v  40.0000 16.4054 8.4514
v  42.7649 93.6044 24.9104
v  42.7643 93.5861 24.9305
v  -30.0000 88.4256 24.6019
v  -9.2703 88.4256 24.6019
v  -30.0000 93.8867 24.6019
v  19.9614 88.4256 24.6019
v  40.0000 88.4256 24.6019
v  40.0000 58.6159 24.6019
v  19.9614 58.6159 24.6019
v  -9.2703 58.6159 24.6019
v  -30.0000 58.6159 24.6019
v  40.0000 88.4256 -40.0000
v  19.0766 88.4256 -40.0000
v  -30.0000 93.8867 -40.0000
v  -14.1299 88.4256 -40.0000
v  -30.0000 88.4256 -40.0000
v  -6.6667 49.2161 -40.0000
v  -30.0000 58.6159 -40.0000
v  16.6667 49.2161 -40.0000
v  -14.1299 58.6159 -40.0000
v  19.0766 58.6159 -40.0000
v  40.0000 58.6159 -40.0000
v  -30.0000 125.5406 -10.0000
v  40.0000 58.6159 -22.0143
v  40.0000 58.6159 8.5408
v  40.0000 88.4256 8.5408
v  40.0000 88.4256 -22.0143
v  36.1640 43.0073 8.4514
v  36.1640 43.0073 -7.6991
v  36.1640 43.0073 -23.8495
v  36.1640 16.4054 8.4514
v  36.1640 16.4054 -23.8495
v  36.1640 16.4054 -7.6991
v  -9.2703 88.4256 20.7659
v  19.9614 88.4256 20.7659
v  -9.2703 58.6159 20.7659
v  19.9614 58.6159 20.7659
v  19.0766 88.4256 -36.1640
v  -14.1299 88.4256 -36.1640
v  19.0766 58.6159 -36.1640
v  -14.1299 58.6159 -36.1640
v  -20.6197 43.0073 20.7659
v  -2.0000 43.0073 20.7659
v  -20.6197 16.4054 20.7659
v  -2.0000 16.4054 20.7659
v  12.2174 43.0073 20.7659
v  30.8371 43.0073 20.7659
v  12.2174 16.4054 20.7659
v  30.8371 16.4054 20.7659
v  36.1640 58.6159 -22.0143
v  36.1640 58.6159 8.5408
v  36.1640 88.4256 -22.0143
v  36.1640 88.4256 8.5408
v  -30.0000 129.3745 -10.1367
v  -30.0000 96.7172 27.1912
v  40.0000 96.7172 27.1912
v  40.0000 129.3745 -10.1367
v  40.0000 96.5256 -42.7844
v  -30.0000 96.5256 -42.7844
v  42.6936 94.8735 29.2067
v  -32.6936 94.8735 29.2067
v  -32.7129 92.0559 26.6031
v  42.7129 92.0559 26.6031
v  43.8363 129.3745 -10.1367
v  43.8363 125.5406 -10.0000
v  42.6919 94.5418 -44.6646
v  42.7692 93.6112 -40.2611
v  42.7126 91.9178 -41.8660
v  -32.6919 94.5418 -44.6646
v  -32.7126 91.9178 -41.8660
v  -33.8363 129.3745 -10.1367
v  -33.8363 125.5406 -10.0000
v  -30.0000 34.5596 -40.0000
v  -30.0000 9.2103 -40.0000
v  -30.0000 0.0000 -40.0000
v  -6.6667 0.0000 -40.0000
v  -6.6667 41.7212 -40.0000
v  16.6667 41.7212 -40.0000
v  16.6667 0.0000 -40.0000
# 120 vertices

vn 0.0000 0.0000 1.0000
vn 0.0000 0.0000 -1.0000
vn -1.0000 0.0000 -0.0000
vn 1.0000 0.0000 -0.0000
vn 0.0000 -0.7377 -0.6751
vn 0.0000 -1.0000 -0.0000
vn 0.0000 1.0000 -0.0000
vn 0.0000 0.9994 -0.0348
vn 0.0000 0.7526 0.6585
vn 0.0000 0.7049 -0.7093
vn 0.0000 -0.6787 0.7344
vn 0.9995 0.0011 0.0317
vn 0.9997 -0.0107 0.0197
vn 0.9997 -0.0140 -0.0205
vn 0.9995 -0.0011 -0.0320
vn 0.0000 -0.7295 -0.6840
vn -0.9996 -0.0084 -0.0255
vn -0.9997 -0.0061 0.0243
vn 0.0000 -0.7378 -0.6750
vn 0.0000 -0.6879 0.7258
vn 0.0000 0.7378 0.6750
vn -0.0090 0.7521 0.6589
vn -0.0096 0.7043 -0.7098
vn 0.0000 0.6879 -0.7258
vn 0.0096 0.7043 -0.7098
vn 0.0090 0.7521 0.6589
# 26 vertex normals

vt 0.7020 0.2885 0.0000
vt 0.7020 0.3323 0.0000
vt 0.6786 0.3323 0.0000
vt 0.6786 0.2885 0.0000
vt 0.2495 0.3771 0.0000
vt 0.2495 0.4980 0.0000
vt 0.1891 0.4980 0.0000
vt 0.1891 0.3771 0.0000
vt 0.6414 0.3336 0.0000
vt 0.7245 0.3336 0.0000
vt 0.7477 0.3425 0.0000
vt 0.6414 0.3425 0.0000
vt 0.7477 0.2885 0.0000
vt 0.7477 0.3323 0.0000
vt 0.7245 0.2615 0.0000
vt 0.7477 0.2615 0.0000
vt 0.6381 0.3424 0.0000
vt 0.6853 0.2923 0.0000
vt 0.7400 0.3421 0.0000
vt 0.7256 0.2766 0.0000
vt 0.7256 0.3185 0.0000
vt 0.6651 0.3185 0.0000
vt 0.6651 0.2766 0.0000
vt 0.6325 0.3323 0.0000
vt 0.6479 0.3323 0.0000
vt 0.6325 0.3425 0.0000
vt 0.7326 0.3323 0.0000
vt 0.7326 0.2885 0.0000
vt 0.6325 0.2615 0.0000
vt 0.6479 0.2885 0.0000
vt 0.6325 0.2885 0.0000
vt 0.6413 0.3323 0.0000
vt 0.6679 0.3323 0.0000
vt 0.7476 0.3425 0.0000
vt 0.6413 0.3425 0.0000
vt 0.6945 0.3323 0.0000
vt 0.7210 0.3323 0.0000
vt 0.7476 0.3323 0.0000
vt 0.7476 0.2885 0.0000
vt 0.7210 0.2885 0.0000
vt 0.6413 0.2615 0.0000
vt 0.7476 0.2615 0.0000
vt 0.6945 0.2885 0.0000
vt 0.6679 0.2885 0.0000
vt 0.6413 0.2885 0.0000
vt 0.7422 0.3382 0.0000
vt 0.7423 0.3383 0.0000
vt 0.6344 0.3252 0.0000
vt 0.6680 0.3251 0.0000
vt 0.7476 0.3339 0.0000
vt 0.6344 0.3340 0.0000
vt 0.7153 0.3251 0.0000
vt 0.7476 0.3251 0.0000
vt 0.7476 0.2768 0.0000
vt 0.7152 0.2769 0.0000
vt 0.6344 0.2618 0.0000
vt 0.7476 0.2616 0.0000
vt 0.6679 0.2769 0.0000
vt 0.6344 0.2770 0.0000
vt 0.6343 0.3249 0.0000
vt 0.6682 0.3249 0.0000
vt 0.7476 0.3336 0.0000
vt 0.6343 0.3338 0.0000
vt 0.7219 0.3248 0.0000
vt 0.7476 0.3248 0.0000
vt 0.7098 0.2614 0.0000
vt 0.7475 0.2614 0.0000
vt 0.7475 0.2766 0.0000
vt 0.6720 0.2615 0.0000
vt 0.6343 0.2615 0.0000
vt 0.7218 0.2766 0.0000
vt 0.6681 0.2767 0.0000
vt 0.6343 0.2767 0.0000
vt 0.7404 0.3322 0.0000
vt 0.6384 0.3242 0.0000
vt 0.6928 0.2745 0.0000
vt 0.7404 0.3237 0.0000
vt 0.7190 0.3385 0.0000
vt 0.6599 0.3387 0.0000
vt 0.6385 0.3327 0.0000
vt 0.7477 0.2766 0.0000
vt 0.6430 0.2614 0.0000
vt 0.7477 0.2614 0.0000
vt 0.6430 0.2766 0.0000
vt 0.7476 0.2767 0.0000
vt 0.7185 0.2767 0.0000
vt 0.6431 0.2616 0.0000
vt 0.6691 0.2768 0.0000
vt 0.6431 0.2768 0.0000
vt 0.6431 0.3251 0.0000
vt 0.6691 0.3250 0.0000
vt 0.7476 0.3338 0.0000
vt 0.6432 0.3339 0.0000
vt 0.7186 0.3250 0.0000
vt 0.7476 0.3249 0.0000
vt 0.6430 0.3249 0.0000
vt 0.7477 0.3249 0.0000
vt 0.8059 0.4508 0.0000
vt 0.8059 0.4059 0.0000
vt 0.8166 0.4059 0.0000
vt 0.8166 0.4508 0.0000
vt 0.8059 0.3610 0.0000
vt 0.8166 0.3610 0.0000
vt 0.8081 0.3512 0.0000
vt 0.8082 0.2772 0.0000
vt 0.8188 0.2772 0.0000
vt 0.8188 0.3512 0.0000
vt 0.8081 0.4410 0.0000
vt 0.8081 0.3961 0.0000
vt 0.8188 0.3961 0.0000
vt 0.8188 0.4410 0.0000
vt 0.8059 0.2871 0.0000
vt 0.8166 0.2871 0.0000
vt 0.8064 0.4521 0.0000
vt 0.8081 0.3656 0.0000
vt 0.8195 0.3659 0.0000
vt 0.8177 0.4523 0.0000
vt 0.8069 0.3667 0.0000
vt 0.8086 0.2785 0.0000
vt 0.8200 0.2787 0.0000
vt 0.8182 0.3669 0.0000
vt 0.8052 0.4531 0.0000
vt 0.8165 0.4534 0.0000
vt 0.8099 0.2775 0.0000
vt 0.8212 0.2777 0.0000
vt 0.8072 0.4866 0.0000
vt 0.8075 0.3734 0.0000
vt 0.8205 0.3735 0.0000
vt 0.8203 0.4867 0.0000
vt 0.8069 0.3724 0.0000
vt 0.8072 0.2708 0.0000
vt 0.8203 0.2708 0.0000
vt 0.8200 0.3724 0.0000
vt 0.8067 0.4856 0.0000
vt 0.8198 0.4856 0.0000
vt 0.8077 0.2718 0.0000
vt 0.8208 0.2718 0.0000
vt 0.8183 0.2820 0.0000
vt 0.8182 0.3527 0.0000
vt 0.8036 0.3526 0.0000
vt 0.8038 0.2820 0.0000
vt 0.8162 0.3547 0.0000
vt 0.8161 0.4556 0.0000
vt 0.8015 0.4556 0.0000
vt 0.8017 0.3547 0.0000
vt 0.8163 0.2840 0.0000
vt 0.8018 0.2840 0.0000
vt 0.8180 0.4536 0.0000
vt 0.8035 0.4536 0.0000
vt 0.8219 0.2775 0.0000
vt 0.8218 0.3481 0.0000
vt 0.8073 0.3481 0.0000
vt 0.8074 0.2775 0.0000
vt 0.8198 0.3502 0.0000
vt 0.8197 0.4511 0.0000
vt 0.8051 0.4511 0.0000
vt 0.8053 0.3501 0.0000
vt 0.8200 0.2795 0.0000
vt 0.8054 0.2795 0.0000
vt 0.8217 0.4491 0.0000
vt 0.8071 0.4490 0.0000
vt 0.8082 0.4527 0.0000
vt 0.8071 0.3639 0.0000
vt 0.8183 0.3637 0.0000
vt 0.8193 0.4525 0.0000
vt 0.8027 0.3620 0.0000
vt 0.8017 0.2753 0.0000
vt 0.8129 0.2752 0.0000
vt 0.8139 0.3618 0.0000
vt 0.8038 0.4508 0.0000
vt 0.8150 0.4506 0.0000
vt 0.8061 0.2772 0.0000
vt 0.8172 0.2771 0.0000
vt 0.0407 0.8772 0.0000
vt 0.0403 0.7642 0.0000
vt 0.2001 0.7642 0.0000
vt 0.1998 0.8772 0.0000
vt 0.1999 0.9828 0.0000
vt 0.0405 0.9828 0.0000
vt 0.5777 0.6131 0.0000
vt 0.5777 0.6453 0.0000
vt 0.5764 0.6446 0.0000
vt 0.5764 0.6137 0.0000
vt 0.5611 0.5984 0.0000
vt 0.5757 0.6134 0.0000
vt 0.5759 0.6135 0.0000
vt 0.5612 0.6001 0.0000
vt 0.5465 0.6132 0.0000
vt 0.5485 0.6134 0.0000
vt 0.5479 0.6137 0.0000
vt 0.5464 0.6452 0.0000
vt 0.5478 0.6446 0.0000
vt 0.5611 0.6600 0.0000
vt 0.5611 0.6584 0.0000
vt 0.5751 0.6440 0.0000
vt 0.5751 0.6145 0.0000
vt 0.5612 0.6011 0.0000
vt 0.5492 0.6144 0.0000
vt 0.5491 0.6440 0.0000
vt 0.5611 0.6574 0.0000
vt 0.0342 0.7580 0.0000
vt 0.2064 0.7580 0.0000
vt 0.0322 0.8772 0.0000
vt 0.0344 0.9889 0.0000
vt 0.2061 0.9889 0.0000
vt 0.2083 0.8772 0.0000
vt 0.5633 0.2530 0.0000
vt 0.5636 0.3736 0.0000
vt 0.5020 0.3738 0.0000
vt 0.5022 0.2529 0.0000
vt 0.6239 0.2530 0.0000
vt 0.6239 0.3736 0.0000
vt 0.6238 0.2531 0.0000
vt 0.6237 0.3737 0.0000
vt 0.5020 0.3737 0.0000
vt 0.5020 0.2532 0.0000
vt 0.5021 0.2531 0.0000
vt 0.5637 0.2533 0.0000
vt 0.5637 0.3744 0.0000
vt 0.5073 0.3743 0.0000
vt 0.5072 0.2534 0.0000
vt 0.5073 0.3744 0.0000
vt 0.5073 0.2533 0.0000
vt 0.5636 0.2533 0.0000
vt 0.5637 0.3743 0.0000
vt 0.6238 0.2532 0.0000
vt 0.6238 0.3737 0.0000
vt 0.7244 0.2617 0.0000
vt 0.7247 0.3334 0.0000
vt 0.6420 0.3338 0.0000
vt 0.6420 0.3187 0.0000
vt 0.6418 0.2772 0.0000
vt 0.6417 0.2621 0.0000
vt 0.7090 0.2615 0.0000
vt 0.7474 0.2615 0.0000
vt 0.7474 0.2767 0.0000
vt 0.7474 0.3184 0.0000
vt 0.7474 0.3336 0.0000
vt 0.7474 0.3425 0.0000
vt 0.7090 0.3302 0.0000
vt 0.7090 0.3425 0.0000
vt 0.6706 0.3425 0.0000
vt 0.6322 0.3425 0.0000
vt 0.6322 0.3323 0.0000
vt 0.6706 0.3302 0.0000
vt 0.6706 0.2615 0.0000
vt 0.6322 0.2885 0.0000
vt 0.6322 0.2615 0.0000
vt 0.8275 0.3216 0.0000
vt 0.8138 0.4538 0.0000
vt 0.8046 0.4439 0.0000
vt 0.8091 0.3203 0.0000
vt 0.8101 0.4464 0.0000
vt 0.8094 0.3655 0.0000
vt 0.8193 0.3746 0.0000
vt 0.8199 0.4371 0.0000
vt 0.8136 0.4360 0.0000
vt 0.7999 0.3038 0.0000
vt 0.8183 0.3024 0.0000
vt 0.8228 0.4261 0.0000
vt 0.6826 0.6589 0.0000
vt 0.6975 0.6590 0.0000
vt 0.6972 0.7171 0.0000
vt 0.5374 0.5420 0.0000
vt 0.5365 0.7162 0.0000
vt 0.6829 0.6009 0.0000
vt 0.6978 0.6010 0.0000
vt 0.5725 0.5422 0.0000
vt 0.6982 0.5429 0.0000
# 269 texture coords

g Box001
usemtl 09___Default
s 1
f 1/1/1 2/2/1 3/3/1 4/4/1 
s 4
f 5/5/2 6/6/2 7/7/2 8/8/2 
s 1
f 9/9/3 10/10/3 11/11/3 12/12/3 
f 10/10/3 13/13/3 14/14/3 11/11/3 
f 10/10/3 15/15/3 16/16/3 13/13/3 
f 17/17/4 18/18/4 19/19/4 
f 20/20/3 21/21/3 22/22/3 23/23/3 
f 14/24/1 24/25/1 25/11/1 11/26/1 
f 3/3/1 2/2/1 25/11/1 24/25/1 
f 26/27/1 27/14/1 25/11/1 2/2/1 
f 28/13/1 29/28/1 16/29/1 30/16/1 
f 1/1/1 4/4/1 16/29/1 29/28/1 
f 31/30/1 13/31/1 16/29/1 4/4/1 
f 27/32/4 32/33/4 33/34/4 25/35/4 
f 34/36/4 35/37/4 33/34/4 32/33/4 
f 36/38/4 33/34/4 35/37/4 
f 37/39/4 38/40/4 30/41/4 39/42/4 
f 40/43/4 41/44/4 30/41/4 38/40/4 
f 28/45/4 30/41/4 41/44/4 
f 31/30/1 24/25/1 14/24/1 13/31/1 
f 26/27/1 29/28/1 28/13/1 27/14/1 
f 41/44/4 32/33/4 27/32/4 28/45/4 
f 35/37/4 38/40/4 37/39/4 36/38/4 
f 19/19/5 42/46/5 43/47/5 
f 44/48/1 45/49/1 19/50/1 46/51/1 
f 47/52/1 48/53/1 19/50/1 45/49/1 
f 49/54/1 50/55/1 11/56/1 25/57/1 
f 51/58/1 52/59/1 11/56/1 50/55/1 
f 53/60/2 54/61/2 55/62/2 17/63/2 
f 56/64/2 57/65/2 55/62/2 54/61/2 
f 58/66/2 12/67/2 59/68/2 60/69/2 
f 33/70/2 60/69/2 59/68/2 61/71/2 
f 62/72/2 63/73/2 33/70/2 61/71/2 
f 57/74/3 46/75/3 64/76/3 55/77/3 
f 22/78/3 21/79/3 46/75/3 57/74/3 
f 44/80/3 46/75/3 21/79/3 
f 52/81/3 20/20/3 12/82/3 11/83/3 
f 23/23/3 59/84/3 12/82/3 20/20/3 
f 63/85/4 65/86/4 25/87/4 33/42/4 
f 66/88/4 49/89/4 25/87/4 65/86/4 
f 48/90/4 67/91/4 17/92/4 19/93/4 
f 68/94/4 53/95/4 17/92/4 67/91/4 
f 51/58/1 45/49/1 44/48/1 52/59/1 
f 47/52/1 50/55/1 49/54/1 48/53/1 
f 62/72/2 54/61/2 53/60/2 63/73/2 
f 56/64/2 61/71/2 59/68/2 57/65/2 
f 23/23/3 22/22/3 57/96/3 59/84/3 
f 21/21/3 20/20/3 52/81/3 44/97/3 
f 68/94/4 65/86/4 63/85/4 53/95/4 
f 66/88/4 67/91/4 48/90/4 49/89/4 
f 69/98/6 70/99/6 34/100/6 32/101/6 
f 70/99/6 71/102/6 35/103/6 34/100/6 
f 72/104/2 69/105/2 32/106/2 41/107/2 
f 73/108/7 74/109/7 40/110/7 38/111/7 
f 74/109/7 72/104/7 41/107/7 40/110/7 
f 71/102/1 73/112/1 38/113/1 35/103/1 
f 75/114/6 76/115/6 47/116/6 45/117/6 
f 77/118/4 75/119/4 45/120/4 51/121/4 
f 78/122/7 77/118/7 51/121/7 50/123/7 
f 76/115/3 78/124/3 50/125/3 47/116/3 
f 79/126/6 80/127/6 56/128/6 54/129/6 
f 81/130/3 79/131/3 54/132/3 62/133/3 
f 82/134/7 81/130/7 62/133/7 61/135/7 
f 80/127/4 82/136/4 61/137/4 56/128/4 
f 83/138/6 84/139/6 3/140/6 24/141/6 
f 85/142/4 83/143/4 24/144/4 31/145/4 
f 86/146/7 85/142/7 31/145/7 4/147/7 
f 84/139/3 86/148/3 4/149/3 3/140/3 
f 87/150/6 88/151/6 26/152/6 2/153/6 
f 89/154/4 87/155/4 2/156/4 1/157/4 
f 90/158/7 89/154/7 1/157/7 29/159/7 
f 88/151/3 90/160/3 29/161/3 26/152/3 
f 91/162/7 92/163/7 66/164/7 65/165/7 
f 93/166/1 91/167/1 65/168/1 68/169/1 
f 94/170/6 93/166/6 68/169/6 67/171/6 
f 92/163/2 94/172/2 67/173/2 66/164/2 
f 95/174/8 96/175/9 97/176/9 98/177/8 
f 95/174/8 98/177/8 99/178/10 100/179/10 
f 101/180/11 102/181/11 103/182/11 104/183/11 
f 105/184/12 43/185/12 42/186/12 106/187/12 
f 105/184/13 101/180/13 104/183/13 43/185/13 
f 107/188/14 106/187/14 108/189/14 109/190/14 
f 106/187/15 107/188/15 105/184/15 
f 110/191/16 107/188/16 109/190/16 111/192/16 
f 112/193/17 110/191/17 111/192/17 113/194/17 
f 102/181/18 112/193/18 113/194/18 103/182/18 
f 104/183/19 103/182/19 46/195/19 19/196/19 
f 19/196/19 43/185/19 104/183/19 
f 106/187/20 18/197/20 17/198/20 108/189/20 
f 111/192/20 109/190/20 17/198/20 55/199/20 
f 113/194/20 111/192/20 55/199/20 64/200/20 
f 103/182/19 113/194/19 64/200/19 46/195/19 
f 102/201/21 101/202/21 97/176/21 96/175/21 
f 112/203/22 102/201/22 96/175/22 95/174/22 
f 110/204/23 112/203/23 95/174/23 100/179/23 
f 107/205/24 110/204/24 100/179/24 99/178/24 
f 105/206/25 107/205/25 99/178/25 98/177/25 
f 101/202/26 105/206/26 98/177/26 97/176/26 
f 106/187/19 42/186/19 19/196/19 18/197/19 
f 17/198/20 109/190/20 108/189/20 
f 74/207/4 70/208/4 69/209/4 72/210/4 
f 73/211/4 71/212/4 70/208/4 74/207/4 
f 78/213/1 76/214/1 75/215/1 77/216/1 
f 82/213/2 80/214/2 79/215/2 81/217/2 
f 86/218/1 84/219/1 83/220/1 85/221/1 
f 87/222/1 89/223/1 90/224/1 88/225/1 
f 94/215/4 92/217/4 91/226/4 93/227/4 
s 2
f 15/228/3 10/229/3 9/230/3 114/231/3 
f 15/228/3 114/231/3 115/232/3 116/233/3 
s 4
f 117/234/2 116/235/2 115/236/2 114/237/2 
f 117/234/2 114/237/2 9/238/2 12/239/2 
f 118/240/2 117/234/2 12/239/2 58/241/2 
f 60/242/2 33/243/2 36/244/2 119/245/2 
f 120/246/2 119/245/2 36/244/2 37/247/2 
f 37/247/2 39/248/2 120/246/2 
s 1
f 58/241/2 60/242/2 119/245/2 118/240/2 
s off
f 117/249/4 118/250/4 6/251/4 5/252/4 
f 118/253/6 119/254/6 7/255/6 6/256/6 
f 119/257/3 120/258/3 8/259/3 7/260/3 
f 8/261/6 120/262/6 39/263/6 16/264/6 
f 39/263/6 30/265/6 16/264/6 
f 5/266/6 8/261/6 16/264/6 117/267/6 
f 117/267/6 16/264/6 15/268/6 116/269/6 
# 113 polygons - 10 triangles

