# 3ds Max Wavefront OBJ Exporter v0.97b - (c)2007 guruware
# File Created: 04.10.2014 11:26:07

mtllib iron_fence.mtl

#
# object Box002
#

v  4.3228 -8.5923 -0.1738
v  4.3228 -8.5923 0.1738
v  4.0294 -8.5923 0.1738
v  4.0294 -8.5923 -0.1738
v  4.3228 6.7113 -0.1738
v  4.0294 6.7113 -0.1738
v  4.0294 6.7113 0.1738
v  4.3228 6.7113 0.1738
v  1.6296 -8.5923 -0.1738
v  1.6296 -8.5923 0.1738
v  1.3362 -8.5923 0.1738
v  1.3362 -8.5923 -0.1738
v  1.6296 6.7113 -0.1738
v  1.3362 6.7113 -0.1738
v  1.3362 6.7113 0.1738
v  1.6296 6.7113 0.1738
v  -1.1700 -8.5923 -0.1738
v  -1.1700 -8.5923 0.1738
v  -1.4634 -8.5923 0.1738
v  -1.4634 -8.5923 -0.1738
v  -1.1700 6.7113 -0.1738
v  -1.4634 6.7113 -0.1738
v  -1.4634 6.7113 0.1738
v  -1.1700 6.7113 0.1738
v  -3.9576 -8.5923 -0.1738
v  -3.9576 -8.5923 0.1738
v  -4.2510 -8.5923 0.1738
v  -4.2510 -8.5923 -0.1738
v  -3.9576 6.7113 -0.1738
v  -4.2510 6.7113 -0.1738
v  -4.2510 6.7113 0.1738
v  -3.9576 6.7113 0.1738
v  -4.8173 4.2280 -0.1738
v  -4.8173 4.2280 0.1738
v  -4.8173 4.5214 0.1738
v  -4.8173 4.5214 -0.1738
v  4.8173 4.2280 -0.1738
v  4.8173 4.5214 -0.1738
v  4.8173 4.5214 0.1738
v  4.8173 4.2280 0.1738
v  -4.8173 2.9292 -0.1738
v  -4.8173 2.9292 0.1738
v  -4.8173 3.2226 0.1738
v  -4.8173 3.2226 -0.1738
v  4.8173 2.9292 -0.1738
v  4.8173 3.2226 -0.1738
v  4.8173 3.2226 0.1738
v  4.8173 2.9292 0.1738
v  -4.8173 -6.0628 -0.1738
v  -4.8173 -6.0628 0.1738
v  -4.8173 -5.7694 0.1738
v  -4.8173 -5.7694 -0.1738
v  4.8173 -6.0628 -0.1738
v  4.8173 -5.7694 -0.1738
v  4.8173 -5.7694 0.1738
v  4.8173 -6.0628 0.1738
v  -1.7349 7.0409 -0.0000
v  -1.3342 6.3707 -0.0000
v  -1.3342 7.0409 0.4748
v  -1.7349 7.0409 0.4748
v  -1.3342 8.5923 -0.0000
v  -0.9335 7.0409 0.4748
v  -0.9335 7.0409 -0.0000
v  -0.9335 7.0409 -0.4748
v  -1.3342 7.0409 -0.4748
v  -1.7349 7.0409 -0.4748
v  -4.5334 7.0409 -0.0000
v  -4.1327 6.3707 -0.0000
v  -4.1327 7.0409 0.4748
v  -4.5334 7.0409 0.4748
v  -4.1327 8.5923 -0.0000
v  -3.7320 7.0409 0.4748
v  -3.7320 7.0409 -0.0000
v  -3.7320 7.0409 -0.4748
v  -4.1327 7.0409 -0.4748
v  -4.5334 7.0409 -0.4748
v  1.0601 7.0409 -0.0000
v  1.4608 6.3707 -0.0000
v  1.4608 7.0409 0.4748
v  1.0601 7.0409 0.4748
v  1.4608 8.5923 -0.0000
v  1.8616 7.0409 0.4748
v  1.8616 7.0409 -0.0000
v  1.8616 7.0409 -0.4748
v  1.4608 7.0409 -0.4748
v  1.0601 7.0409 -0.4748
v  3.7514 7.0409 -0.0000
v  4.1521 6.3707 -0.0000
v  4.1521 7.0409 0.4748
v  3.7514 7.0409 0.4748
v  4.1521 8.5923 -0.0000
v  4.5528 7.0409 0.4748
v  4.5528 7.0409 -0.0000
v  4.5528 7.0409 -0.4748
v  4.1521 7.0409 -0.4748
v  3.7514 7.0409 -0.4748
# 96 vertices

vn 0.0000 -1.0000 -0.0000
vn 0.0000 1.0000 -0.0000
vn 0.0000 0.0000 1.0000
vn 1.0000 0.0000 -0.0000
vn 0.0000 0.0000 -1.0000
vn -1.0000 0.0000 -0.0000
vn 0.5774 -0.5774 -0.5774
vn 0.5774 -0.5774 0.5774
vn -0.5774 -0.5774 0.5774
vn -0.5774 -0.5774 -0.5774
vn 0.5774 0.5774 -0.5774
vn -0.5774 0.5774 -0.5774
vn -0.5774 0.5774 0.5774
vn 0.5774 0.5774 0.5774
vn -0.9637 -0.2670 -0.0000
vn 0.0000 -1.0000 0.0000
vn 0.0000 -0.2577 0.9662
vn -0.7205 -0.1185 0.6833
vn 0.0000 1.0000 0.0000
vn 0.7205 -0.1185 0.6833
vn 0.9637 -0.2670 -0.0000
vn 0.7205 -0.1185 -0.6833
vn 0.0000 -0.2577 -0.9662
vn -0.7205 -0.1185 -0.6833
vn -0.0000 -1.0000 0.0000
vn -0.0000 -0.2577 0.9662
vn -0.0000 1.0000 -0.0000
vn -0.0000 -0.2577 -0.9662
# 28 vertex normals

vt 0.5084 0.0523 0.0000
vt 0.5084 0.0091 0.0000
vt 0.5515 0.0091 0.0000
vt 0.5515 0.0523 0.0000
vt 0.6122 0.0527 0.0000
vt 0.5691 0.0527 0.0000
vt 0.5691 0.0096 0.0000
vt 0.6122 0.0096 0.0000
vt 0.5018 0.0520 0.0000
vt 0.5018 0.0089 0.0000
vt 0.7482 0.0089 0.0000
vt 0.7482 0.0520 0.0000
vt 0.5515 0.0307 0.0000
vt 0.5300 0.0307 0.0000
vt 0.5300 0.0091 0.0000
vt 0.6866 0.0197 0.0000
vt 0.6250 0.0305 0.0000
vt 0.6731 0.0687 0.0000
vt 0.5084 0.0307 0.0000
vt 0.5300 0.0523 0.0000
# 20 texture coords

g Box002
usemtl 10___Default
s 1
f 1/1/1 2/2/1 3/3/1 4/4/1 
f 5/5/2 6/6/2 7/7/2 8/8/2 
f 8/9/3 7/10/3 3/11/3 2/12/3 
f 5/9/4 8/10/4 2/11/4 1/12/4 
f 6/9/5 5/10/5 1/11/5 4/12/5 
f 7/9/6 6/10/6 4/11/6 3/12/6 
f 9/1/7 10/2/8 11/3/9 12/4/10 
f 13/5/11 14/6/12 15/7/13 16/8/14 
f 16/9/14 15/10/13 11/11/9 10/12/8 
f 13/9/11 16/10/14 10/11/8 9/12/7 
f 14/9/12 13/10/11 9/11/7 12/12/10 
f 15/9/13 14/10/12 12/11/10 11/12/9 
f 17/1/7 18/2/8 19/3/9 20/4/10 
f 21/5/11 22/6/12 23/7/13 24/8/14 
f 24/9/14 23/10/13 19/11/9 18/12/8 
f 21/9/11 24/10/14 18/11/8 17/12/7 
f 22/9/12 21/10/11 17/11/7 20/12/10 
f 23/9/13 22/10/12 20/11/10 19/12/9 
f 25/1/7 26/2/8 27/3/9 28/4/10 
f 29/5/11 30/6/12 31/7/13 32/8/14 
f 32/9/14 31/10/13 27/11/9 26/12/8 
f 29/9/11 32/10/14 26/11/8 25/12/7 
f 30/9/12 29/10/11 25/11/7 28/12/10 
f 31/9/13 30/10/12 28/11/10 27/12/9 
f 33/1/10 34/2/9 35/3/13 36/4/12 
f 37/5/7 38/6/11 39/7/14 40/8/8 
f 40/9/8 39/10/14 35/11/13 34/12/9 
f 37/9/7 40/10/8 34/11/9 33/12/10 
f 38/9/11 37/10/7 33/11/10 36/12/12 
f 39/9/14 38/10/11 36/11/12 35/12/13 
f 41/1/10 42/2/9 43/3/13 44/4/12 
f 45/5/7 46/6/11 47/7/14 48/8/8 
f 48/9/8 47/10/14 43/11/13 42/12/9 
f 45/9/7 48/10/8 42/11/9 41/12/10 
f 46/9/11 45/10/7 41/11/10 44/12/12 
f 47/9/14 46/10/11 44/11/12 43/12/13 
f 49/1/10 50/2/9 51/3/13 52/4/12 
f 53/5/7 54/6/11 55/7/14 56/8/8 
f 56/9/8 55/10/14 51/11/13 50/12/9 
f 53/9/7 56/10/8 50/11/9 49/12/10 
f 54/9/11 53/10/7 49/11/10 52/12/12 
f 55/9/14 54/10/11 52/11/12 51/12/13 
f 57/13/15 58/14/16 59/15/17 60/3/18 
f 61/10/19 60/11/18 59/16/17 62/17/20 
f 61/10/19 62/11/20 63/16/21 64/17/22 
f 61/10/19 64/11/22 65/16/23 66/17/24 
f 61/18/19 66/11/24 57/16/15 60/17/18 
f 64/1/22 63/19/21 58/14/16 65/20/23 
f 66/4/24 65/20/23 58/14/16 57/13/15 
f 62/2/20 59/15/17 58/14/16 63/19/21 
f 67/13/15 68/14/16 69/15/17 70/3/18 
f 71/10/19 70/11/18 69/16/17 72/17/20 
f 71/10/19 72/11/20 73/16/21 74/17/22 
f 71/10/19 74/11/22 75/16/23 76/17/24 
f 71/18/19 76/11/24 67/16/15 70/17/18 
f 74/1/22 73/19/21 68/14/16 75/20/23 
f 76/4/24 75/20/23 68/14/16 67/13/15 
f 72/2/20 69/15/17 68/14/16 73/19/21 
f 77/13/15 78/14/16 79/15/17 80/3/18 
f 81/10/2 80/11/18 79/16/17 82/17/20 
f 81/10/2 82/11/20 83/16/21 84/17/22 
f 81/10/2 84/11/22 85/16/23 86/17/24 
f 81/18/2 86/11/24 77/16/15 80/17/18 
f 84/1/22 83/19/21 78/14/16 85/20/23 
f 86/4/24 85/20/23 78/14/16 77/13/15 
f 82/2/20 79/15/17 78/14/16 83/19/21 
f 87/13/15 88/14/25 89/15/26 90/3/18 
f 91/10/27 90/11/18 89/16/26 92/17/20 
f 91/10/27 92/11/20 93/16/21 94/17/22 
f 91/10/27 94/11/22 95/16/28 96/17/24 
f 91/18/27 96/11/24 87/16/15 90/17/18 
f 94/1/22 93/19/21 88/14/25 95/20/28 
f 96/4/24 95/20/28 88/14/25 87/13/15 
f 92/2/20 89/15/26 88/14/25 93/19/21 
# 74 polygons

