# 3ds Max Wavefront OBJ Exporter v0.97b - (c)2007 guruware
# File Created: 02.10.2014 15:21:34

mtllib plate_wall_turn.mtl

#
# object Box001
#

v  -0.8050 -43.4911 -0.9032
v  -1.0680 -25.3372 -0.9032
v  -1.0680 -25.3372 30.0000
v  -0.8050 -43.4911 30.0000
v  -1.5484 -24.7350 30.0000
v  -1.5484 -24.7350 -0.9032
v  -1.2855 -43.5072 -0.9032
v  -1.2855 -43.5072 30.0000
v  40.0000 0.0000 -0.9032
v  40.0000 0.6022 -0.9032
v  40.0000 0.6022 30.0000
v  40.0000 0.0000 30.0000
v  27.4892 0.0000 -30.0000
v  27.4892 0.6022 -30.0000
v  40.0000 0.6022 -30.0000
v  40.0000 0.0000 -30.0000
v  -1.2855 -43.5072 -30.0000
v  -0.8050 -43.4911 -30.0000
v  27.4892 0.0000 -0.9032
v  27.4892 0.6022 -0.9032
v  27.4892 0.6022 30.0000
v  27.4892 0.0000 30.0000
v  5.7582 -10.1882 -30.0000
v  5.7582 -9.5860 -30.0000
v  5.7582 -10.1882 -0.9032
v  5.7582 -9.5860 -0.9032
v  5.7582 -9.5860 30.0000
v  5.7582 -10.1882 30.0000
v  -1.0680 -25.3372 -30.0000
v  -1.5484 -24.7350 -30.0000
# 30 vertices

vn 0.9999 0.0145 -0.0000
vn 0.9792 -0.2030 -0.0000
vn -0.9764 0.2160 -0.0000
vn -0.9999 -0.0140 -0.0000
vn 0.0000 0.0000 1.0000
vn 1.0000 0.0000 -0.0000
vn 0.0000 0.0000 -1.0000
vn 0.0335 -0.9994 -0.0000
vn 0.0000 -1.0000 -0.0000
vn 0.2174 -0.9761 -0.0000
vn 0.0000 1.0000 -0.0000
vn -0.2174 0.9761 -0.0000
vn 0.7124 -0.7018 -0.0000
vn -0.7032 0.7110 -0.0000
# 14 vertex normals

vt 0.4982 0.1911 0.0000
vt 0.4446 0.1911 0.0000
vt 0.4446 0.1304 0.0000
vt 0.4982 0.1304 0.0000
vt 0.3053 0.1304 0.0000
vt 0.3053 0.1911 0.0000
vt 0.2517 0.1911 0.0000
vt 0.2517 0.1304 0.0000
vt 0.3234 0.1146 0.0000
vt 0.3234 0.1360 0.0000
vt 0.2861 0.1360 0.0000
vt 0.2861 0.1146 0.0000
vt 0.3576 0.1139 0.0000
vt 0.3576 0.1367 0.0000
vt 0.2872 0.1367 0.0000
vt 0.2872 0.1139 0.0000
vt 0.3129 0.1146 0.0000
vt 0.3129 0.1360 0.0000
vt 0.3535 0.1139 0.0000
vt 0.3535 0.1367 0.0000
vt 0.2517 0.2483 0.0000
vt 0.2902 0.1911 0.0000
vt 0.2902 0.2483 0.0000
vt 0.4597 0.1911 0.0000
vt 0.4597 0.1304 0.0000
vt 0.4579 0.1146 0.0000
vt 0.4579 0.1360 0.0000
vt 0.4310 0.1360 0.0000
vt 0.4310 0.1146 0.0000
vt 0.3596 0.1146 0.0000
vt 0.3596 0.1360 0.0000
vt 0.3572 0.1911 0.0000
vt 0.3572 0.2483 0.0000
vt 0.3927 0.1911 0.0000
vt 0.3927 0.1304 0.0000
vt 0.3843 0.1360 0.0000
vt 0.3843 0.1146 0.0000
vt 0.4205 0.1146 0.0000
vt 0.4205 0.1360 0.0000
vt 0.4446 0.2483 0.0000
vt 0.4982 0.2483 0.0000
vt 0.3053 0.2483 0.0000
vt 0.4240 0.1139 0.0000
vt 0.4240 0.1367 0.0000
vt 0.2902 0.1304 0.0000
vt 0.4597 0.2483 0.0000
vt 0.3572 0.1304 0.0000
vt 0.3927 0.2483 0.0000
# 48 texture coords

g Box001
usemtl 01___Default
s 2
f 1/1/1 2/2/2 3/3/2 4/4/1 
s 4
f 5/5/3 6/6/3 7/7/4 8/8/4 
s 8
f 3/9/5 5/10/5 8/11/5 4/12/5 
s 16
f 9/13/6 10/14/6 11/15/6 12/16/6 
s 32
f 13/17/7 14/18/7 15/11/7 16/12/7 
s 64
f 1/19/8 7/20/8 17/15/8 18/16/8 
s 2
f 16/21/9 9/7/9 19/22/10 13/23/10 
s 4
f 11/4/11 10/1/11 20/24/12 21/25/12 
s 8
f 12/26/5 11/27/5 21/28/5 22/29/5 
s 32
f 23/30/7 24/31/7 14/18/7 13/17/7 
s 2
f 13/23/10 19/22/10 25/32/13 23/33/13 
s 4
f 21/25/12 20/24/12 26/34/14 27/35/14 
s 8
f 22/29/5 21/28/5 27/36/5 28/37/5 
s 32
f 29/38/7 30/39/7 24/31/7 23/30/7 
s 2
f 23/33/13 25/32/13 2/2/2 29/40/2 
s 4
f 27/35/14 26/34/14 6/6/3 5/5/3 
s 8
f 28/37/5 27/36/5 5/10/5 3/9/5 
s 32
f 18/26/7 17/27/7 30/39/7 29/38/7 
s 2
f 18/41/1 29/40/2 2/2/2 1/1/1 
s 4
f 30/42/3 17/21/4 7/7/4 6/6/3 
s 16
f 16/43/6 15/44/6 10/14/6 9/13/6 
s 64
f 4/43/8 8/44/8 7/20/8 1/19/8 
s 2
f 12/8/9 22/45/10 19/22/10 9/7/9 
s 4
f 15/41/11 14/46/12 20/24/12 10/1/11 
s 2
f 22/45/10 28/47/13 25/32/13 19/22/10 
s 4
f 14/46/12 24/48/14 26/34/14 20/24/12 
s 2
f 28/47/13 3/3/2 2/2/2 25/32/13 
s 4
f 24/48/14 30/42/3 6/6/3 26/34/14 
# 28 polygons

