# 3ds Max Wavefront OBJ Exporter v0.97b - (c)2007 guruware
# File Created: 04.10.2014 11:17:18

mtllib posne_cabel.mtl

#
# object Plane001
#

v  3.5934 35.6242 -3.3259
v  3.9036 35.6242 -3.3259
v  3.9036 37.6058 -39.5314
v  3.5934 37.6058 -39.5314
v  3.5934 37.6058 32.8796
v  3.9036 37.6058 32.8796
# 6 vertices

vn 0.0000 1.0000 -0.0000
vn 0.0000 0.9985 0.0547
vn 0.0000 0.9985 -0.0547
# 3 vertex normals

vt 0.9209 0.3205 0.0000
vt 0.9716 0.3205 0.0000
vt 0.9716 0.7489 0.0000
vt 0.9209 0.7489 0.0000
vt 0.9209 0.5348 0.0000
vt 0.9716 0.5348 0.0000
# 6 texture coords

g Plane001
usemtl 10___Default
s 1
f 1/1/1 2/2/1 3/3/2 4/4/2 
f 5/5/3 6/6/3 2/2/1 1/1/1 
# 2 polygons

#
# object Plane002
#

v  -3.6052 35.6242 -3.3259
v  -3.2950 35.6242 -3.3259
v  -3.2950 37.6058 -39.5314
v  -3.6052 37.6058 -39.5314
v  -3.6052 37.6058 32.8796
v  -3.2950 37.6058 32.8796
# 6 vertices

vn 0.0000 1.0000 -0.0000
vn 0.0000 0.9985 0.0547
vn 0.0000 0.9985 -0.0547
# 3 vertex normals

vt 0.9209 0.3205 0.0000
vt 0.9716 0.3205 0.0000
vt 0.9716 0.7489 0.0000
vt 0.9209 0.7489 0.0000
vt 0.9209 0.5348 0.0000
vt 0.9716 0.5348 0.0000
# 6 texture coords

g Plane002
usemtl 10___Default
s 1
f 7/7/4 8/8/4 9/9/5 10/10/5 
f 11/11/6 12/12/6 8/8/4 7/7/4 
# 2 polygons

