# 3ds Max Wavefront OBJ Exporter v0.97b - (c)2007 guruware
# File Created: 04.10.2014 22:22:13

mtllib small_wall.mtl

#
# object Box001
#

v  -10.0000 0.0000 -6.4549
v  -10.0000 0.0000 -10.0000
v  10.0000 0.0000 -10.0000
v  10.0000 0.0000 -6.4549
v  -10.0000 16.5230 -6.4549
v  10.0000 16.5230 -6.4549
v  10.0000 16.5230 -10.0000
v  -10.0000 16.5230 -10.0000
v  10.0000 14.8573 -6.4549
v  -10.0000 14.8573 -6.4549
v  10.0000 14.8573 -10.0000
v  -10.0000 14.8573 -10.0000
v  -11.1778 14.8573 -5.2771
v  11.1778 14.8573 -5.2771
v  11.1778 16.5230 -5.2771
v  -11.1778 16.5230 -5.2771
v  11.1778 14.8573 -11.1778
v  11.1778 16.5230 -11.1778
v  -11.1778 14.8573 -11.1778
v  -11.1778 16.5230 -11.1778
# 20 vertices

vn 0.0000 -1.0000 -0.0000
vn 0.0000 1.0000 -0.0000
vn 0.0000 0.0000 1.0000
vn 1.0000 0.0000 -0.0000
vn 0.0000 0.0000 -1.0000
vn -1.0000 0.0000 -0.0000
# 6 vertex normals

vt 0.9387 0.3019 0.0000
vt 0.9387 0.3194 0.0000
vt 0.8398 0.3194 0.0000
vt 0.8398 0.3019 0.0000
vt 0.8393 0.3017 0.0000
vt 0.9382 0.3019 0.0000
vt 0.9382 0.3194 0.0000
vt 0.8392 0.3192 0.0000
vt 0.5275 0.3390 0.0000
vt 0.6207 0.3390 0.0000
vt 0.6207 0.4083 0.0000
vt 0.5275 0.4082 0.0000
vt 0.6373 0.3390 0.0000
vt 0.6372 0.4083 0.0000
vt 0.7305 0.3390 0.0000
vt 0.7305 0.4083 0.0000
vt 0.5110 0.3390 0.0000
vt 0.5110 0.4082 0.0000
vt 0.8335 0.2876 0.0000
vt 0.9441 0.2878 0.0000
vt 0.9441 0.2961 0.0000
vt 0.8335 0.2958 0.0000
vt 0.9523 0.2961 0.0000
vt 0.9522 0.3253 0.0000
vt 0.9440 0.3253 0.0000
vt 0.9440 0.3335 0.0000
vt 0.8334 0.3333 0.0000
vt 0.8334 0.3250 0.0000
vt 0.8252 0.3250 0.0000
vt 0.8252 0.2958 0.0000
vt 0.8393 0.2818 0.0000
vt 0.9383 0.2820 0.0000
vt 0.9581 0.3019 0.0000
vt 0.9581 0.3195 0.0000
vt 0.9381 0.3393 0.0000
vt 0.8392 0.3391 0.0000
vt 0.8194 0.3192 0.0000
vt 0.8194 0.3016 0.0000
# 38 texture coords

g Box001
usemtl 10___Default
s 2
f 1/1/1 2/2/1 3/3/1 4/4/1 
s 4
f 5/5/2 6/6/2 7/7/2 8/8/2 
s 8
f 1/9/3 4/10/3 9/11/3 10/12/3 
s 16
f 4/10/4 3/13/4 11/14/4 9/11/4 
s 32
f 3/13/5 2/15/5 12/16/5 11/14/5 
s 64
f 2/17/6 1/9/6 10/12/6 12/18/6 
s off
f 13/19/3 14/20/3 15/21/3 16/22/3 
f 14/23/4 17/24/4 18/25/4 15/21/4 
f 17/26/5 19/27/5 20/28/5 18/25/5 
f 19/29/6 13/30/6 16/22/6 20/28/6 
f 10/31/1 9/32/1 14/20/1 13/19/1 
f 9/33/1 11/34/1 17/24/1 14/23/1 
f 11/35/1 12/36/1 19/27/1 17/26/1 
f 12/37/1 10/38/1 13/30/1 19/29/1 
f 6/6/2 5/5/2 16/22/2 15/21/2 
f 5/5/2 8/8/2 20/28/2 16/22/2 
f 8/8/2 7/7/2 18/25/2 20/28/2 
f 7/7/2 6/6/2 15/21/2 18/25/2 
# 18 polygons

