# 3ds Max Wavefront OBJ Exporter v0.97b - (c)2007 guruware
# File Created: 12.10.2014 10:59:45

mtllib 02_lp.mtl

#
# object Group002
#

v  0.6897 0.1864 0.0802
v  0.7961 0.3211 0.1752
v  0.7989 0.2240 0.1918
v  0.7332 0.1093 0.1638
v  0.8453 0.3795 0.2341
v  0.8333 0.2285 0.2438
v  0.7454 0.0706 0.2517
v  0.8421 0.3896 0.4039
v  0.7716 0.3403 0.4748
v  0.8142 0.2571 0.4290
v  0.8303 0.2403 0.4048
v  0.7448 0.0754 0.4511
v  0.7112 0.0907 0.5404
v  0.6358 0.1814 0.6211
v  -0.1576 -0.3666 -0.3057
v  -0.3608 -0.2919 -0.2841
v  -0.3388 -0.2521 -0.2973
v  -0.1830 -0.1324 -0.4230
v  -0.4600 -0.0945 -0.2929
v  -0.3694 -0.0276 -0.3855
v  -0.1072 1.1829 0.2169
v  -0.1901 1.2359 0.2218
v  -0.1684 1.2304 0.2860
v  -0.1018 1.1815 0.2982
v  -0.2802 1.2498 0.2612
v  -0.2171 1.2288 0.3399
v  -0.1134 1.1479 0.3824
v  0.1386 0.2181 -0.4088
v  0.1895 -0.0156 -0.3730
v  -0.0188 -0.0272 -0.4408
v  0.0287 0.2520 -0.4567
v  -0.2570 0.0507 -0.4806
v  -0.1674 0.1015 -0.4950
v  -0.1021 0.2794 -0.4667
v  -0.3317 1.1392 0.0739
v  -0.3768 1.1485 0.1436
v  -0.3088 1.2056 0.1313
v  -0.2550 1.1823 0.0910
v  -0.3688 1.1737 0.2270
v  -0.3008 1.2291 0.1875
v  -0.2157 1.2092 0.1525
v  -0.2292 0.2679 -0.4385
v  -0.3115 -0.0413 0.6204
v  -0.3551 0.1848 0.5825
v  -0.4390 0.0030 0.4521
v  -0.4047 -0.0614 0.4971
v  -0.5134 -0.1773 0.2320
v  -0.4644 -0.2459 0.3776
v  -0.4604 0.0985 0.4060
v  0.3693 0.0861 -0.2128
v  0.2360 0.3136 -0.3032
v  0.1251 0.4369 -0.3434
v  -0.3070 -0.2784 0.4912
v  -0.2152 -0.5273 0.1205
v  -0.1863 -0.5063 0.2546
v  -0.3240 -0.4690 0.2280
v  -0.3729 -0.4588 0.1159
v  -0.2501 -0.4246 0.3946
v  -0.4006 -0.3939 0.3049
v  -0.4838 -0.3218 0.1754
v  -0.1316 0.6042 0.6078
v  0.0799 0.6325 0.6572
v  0.0519 0.8744 0.5506
v  -0.1632 0.8711 0.4938
v  0.3733 0.8476 0.4578
v  0.0532 0.9940 0.4315
v  0.3296 0.7618 0.5827
v  0.2631 0.6332 0.6308
v  0.1561 0.3712 0.7404
v  0.3770 0.4868 0.6662
v  0.5600 0.6142 0.5653
v  -0.0241 0.5003 -0.3517
v  0.0183 0.8069 -0.0874
v  0.3128 0.6773 -0.0999
v  0.4045 0.7718 0.0895
v  0.1160 0.9531 0.0802
v  -0.1335 1.1452 0.1239
v  -0.1628 1.0723 0.0421
v  -0.2582 1.0599 0.0247
v  -0.1757 0.7788 -0.0857
v  -0.1737 0.5112 -0.3146
v  -0.4476 0.7040 0.0077
v  -0.3955 0.9601 0.0648
v  -0.3354 0.9570 0.0294
v  -0.3461 0.7347 -0.0367
v  -0.2077 1.1227 0.4059
v  -0.3111 0.9562 0.4318
v  -0.3182 0.5856 0.5530
v  -0.3913 0.9737 0.3960
v  -0.4098 0.5690 0.4984
v  -0.2422 0.2180 0.6715
v  -0.0780 0.2701 0.7087
v  -0.1829 -0.0530 0.7151
v  -0.0228 -0.0097 0.7237
v  0.2438 0.1021 0.7351
v  0.5209 0.3058 0.6760
v  0.0395 -0.2769 0.6251
v  0.3709 -0.1209 0.6472
v  0.0997 -0.4056 0.5507
v  0.4306 -0.2130 0.5990
v  0.1809 -0.4631 0.4012
v  0.4558 -0.2510 0.4860
v  0.1708 -0.5203 0.1704
v  0.4826 -0.2780 0.3069
v  0.7407 0.0624 0.3495
v  0.8666 0.2455 0.3137
v  0.5188 -0.2702 0.1834
v  0.1988 -0.5282 0.0485
v  0.2068 -0.4584 -0.0544
v  0.4995 -0.2162 0.0765
v  0.2277 -0.2415 -0.2183
v  0.4333 -0.0889 -0.0901
v  0.6213 0.3144 0.0212
v  0.7372 0.4394 0.1463
v  0.4576 0.5511 -0.0531
v  0.5789 0.6396 0.0856
v  0.7818 0.5176 0.2438
v  0.6548 0.6956 0.2060
v  0.4358 0.8530 0.2303
v  0.6818 0.7109 0.3152
v  0.4338 0.8835 0.3426
v  0.1358 1.0297 0.1937
v  0.1178 1.0350 0.2938
v  0.7618 0.5279 0.4602
v  0.7940 0.5476 0.3621
v  0.6394 0.6730 0.4245
v  0.8657 0.4002 0.3196
v  0.6782 0.4744 0.5465
v  -0.0199 -0.5042 -0.1632
v  0.0063 -0.3363 -0.2859
v  -0.2201 -0.4711 -0.1806
v  -0.0557 -0.5535 -0.0202
v  -0.2385 -0.5282 -0.0368
v  -0.4264 -0.4353 -0.0161
v  -0.3980 -0.3624 -0.1643
v  -0.5197 -0.2551 0.0067
v  -0.5014 -0.1705 -0.1427
v  -0.5462 -0.0693 0.0344
v  -0.5672 0.0294 -0.1049
v  -0.4855 0.0982 -0.2641
v  -0.5746 0.2616 0.0067
v  -0.4698 0.3558 -0.1514
v  -0.3568 0.4744 -0.2581
v  -0.3706 0.2143 -0.3733
v  -0.4953 0.6619 0.1392
v  -0.4453 0.9948 0.2496
v  -0.4411 1.0094 0.1575
v  -0.5173 0.6115 0.2565
v  -0.5699 0.2107 0.1472
v  -0.4655 0.5587 0.3921
v  -0.4397 0.9384 0.3422
v  -0.3073 1.1770 0.3641
v  -0.3615 1.1865 0.3043
v  -0.0443 -0.5765 0.1417
v  -0.0330 -0.5384 0.3267
v  -0.0746 -0.4449 0.4773
v  -0.1410 -0.2963 0.5934
# 157 vertices

vn 0.6807 -0.1509 -0.7169
vn 0.7301 0.0504 -0.6815
vn 0.7904 -0.2382 -0.5644
vn 0.7877 -0.3790 -0.4857
vn 0.8484 0.1806 -0.4977
vn 0.8682 -0.3095 -0.3878
vn 0.8528 -0.4973 -0.1596
vn 0.8703 0.1115 0.4797
vn 0.7020 0.0441 0.7108
vn 0.7718 -0.0851 0.6301
vn 0.8657 -0.2412 0.4386
vn 0.8355 -0.5002 0.2273
vn 0.7213 -0.3269 0.6107
vn 0.5339 -0.0955 0.8401
vn -0.0140 -0.6281 -0.7780
vn -0.4821 -0.4337 -0.7612
vn -0.3030 -0.2972 -0.9055
vn -0.0876 -0.4052 -0.9100
vn -0.7812 -0.2149 -0.5861
vn -0.5919 -0.1818 -0.7853
vn 0.5202 0.8192 -0.2414
vn 0.2843 0.9268 -0.2453
vn 0.4043 0.9027 0.1469
vn 0.5512 0.8120 0.1923
vn -0.2467 0.9662 0.0750
vn 0.0510 0.8141 0.5784
vn 0.3102 0.6539 0.6901
vn 0.5128 0.0877 -0.8540
vn 0.4993 -0.2426 -0.8318
vn 0.2420 -0.2678 -0.9326
vn 0.2583 0.1431 -0.9554
vn -0.3361 -0.1072 -0.9357
vn 0.0224 -0.0131 -0.9997
vn -0.0245 0.2884 -0.9572
vn -0.4657 0.4725 -0.7482
vn -0.7939 0.5239 -0.3087
vn -0.3445 0.8286 -0.4413
vn 0.0844 0.7102 -0.6990
vn -0.8146 0.5787 -0.0384
vn -0.3279 0.9111 -0.2497
vn 0.2453 0.8560 -0.4550
vn -0.3739 0.3684 -0.8512
vn -0.6682 -0.1935 0.7184
vn -0.7426 0.0249 0.6693
vn -0.8802 -0.0557 0.4713
vn -0.8007 -0.1497 0.5800
vn -0.9676 -0.1478 0.2045
vn -0.8241 -0.2863 0.4888
vn -0.9038 -0.0069 0.4280
vn 0.7015 -0.0708 -0.7092
vn 0.6213 0.1925 -0.7595
vn 0.4014 0.4163 -0.8158
vn -0.5365 -0.4909 0.6865
vn -0.3335 -0.9362 0.1112
vn -0.3117 -0.9082 0.2792
vn -0.4677 -0.8521 0.2350
vn -0.6018 -0.7915 0.1066
vn -0.3986 -0.7441 0.5361
vn -0.6421 -0.6807 0.3526
vn -0.8750 -0.4741 0.0980
vn -0.2742 0.2951 0.9153
vn -0.0703 0.3420 0.9371
vn 0.0255 0.5238 0.8515
vn -0.2399 0.3116 0.9194
vn 0.3958 0.7401 0.5437
vn 0.3440 0.7251 0.5966
vn 0.2601 0.5259 0.8098
vn 0.1440 0.3388 0.9298
vn 0.0207 0.1456 0.9891
vn 0.2289 0.2746 0.9339
vn 0.4357 0.4574 0.7752
vn 0.0629 0.5610 -0.8254
vn 0.1695 0.6016 -0.7806
vn 0.4190 0.5822 -0.6968
vn 0.4598 0.6933 -0.5549
vn 0.4103 0.6456 -0.6441
vn 0.4148 0.7051 -0.5751
vn 0.2537 0.5590 -0.7894
vn -0.1393 0.3722 -0.9176
vn -0.2130 0.4868 -0.8471
vn -0.2578 0.5606 -0.7870
vn -0.7948 0.3275 -0.5109
vn -0.6961 0.2470 -0.6742
vn -0.4213 0.2506 -0.8716
vn -0.4150 0.4488 -0.7914
vn -0.0701 0.4643 0.8829
vn -0.2803 0.2929 0.9142
vn -0.4170 0.2291 0.8796
vn -0.6312 0.3092 0.7113
vn -0.7387 0.1167 0.6638
vn -0.4547 0.1128 0.8835
vn -0.1980 0.1327 0.9712
vn -0.3026 -0.2362 0.9234
vn -0.0041 -0.1749 0.9846
vn 0.1267 -0.1156 0.9852
vn 0.3336 0.1082 0.9365
vn -0.0110 -0.4505 0.8927
vn 0.2389 -0.2978 0.9243
vn 0.0970 -0.7055 0.7020
vn 0.4571 -0.5466 0.7016
vn 0.3754 -0.8673 0.3269
vn 0.6366 -0.7147 0.2898
vn 0.3869 -0.9048 0.1780
vn 0.6632 -0.7259 0.1821
vn 0.8287 -0.5578 0.0459
vn 0.9677 -0.2502 -0.0306
vn 0.7438 -0.6586 -0.1139
vn 0.4405 -0.8769 -0.1922
vn 0.5123 -0.6747 -0.5314
vn 0.7301 -0.4761 -0.4901
vn 0.5531 -0.4570 -0.6966
vn 0.7132 -0.3078 -0.6298
vn 0.6447 0.0859 -0.7596
vn 0.6924 0.2521 -0.6760
vn 0.6023 0.2889 -0.7442
vn 0.5888 0.4680 -0.6590
vn 0.8093 0.4162 -0.4145
vn 0.6455 0.6148 -0.4532
vn 0.4996 0.7869 -0.3621
vn 0.7000 0.7111 0.0660
vn 0.5022 0.8504 0.1570
vn 0.5108 0.8145 -0.2752
vn 0.4865 0.8454 0.2204
vn 0.7163 0.3906 0.5782
vn 0.8581 0.5020 0.1078
vn 0.5525 0.6608 0.5080
vn 0.9741 0.2247 -0.0241
vn 0.5585 0.2174 0.8005
vn 0.1650 -0.8050 -0.5699
vn 0.2992 -0.5293 -0.7940
vn -0.2387 -0.7978 -0.5537
vn 0.0348 -0.9672 -0.2518
vn -0.3100 -0.9308 -0.1939
vn -0.7223 -0.6817 -0.1167
vn -0.6741 -0.5751 -0.4635
vn -0.9434 -0.3197 -0.0878
vn -0.9019 -0.2870 -0.3229
vn -0.9860 -0.1656 0.0210
vn -0.9644 -0.0908 -0.2482
vn -0.8337 0.0836 -0.5458
vn -0.9730 0.1558 -0.1702
vn -0.8408 0.2747 -0.4664
vn -0.5673 0.4331 -0.7004
vn -0.6449 0.2472 -0.7232
vn -0.9610 0.1977 -0.1936
vn -0.9467 0.2926 0.1349
vn -0.9228 0.2829 -0.2614
vn -0.9761 0.1400 0.1663
vn -0.9812 0.0044 0.1931
vn -0.9028 0.0681 0.4246
vn -0.9069 0.2010 0.3703
vn -0.3804 0.5544 0.7402
vn -0.7354 0.5966 0.3214
vn -0.0251 -0.9971 0.0724
vn -0.0388 -0.9454 0.3235
vn -0.2163 -0.7614 0.6112
vn -0.2919 -0.5493 0.7830
# 157 vertex normals

vt 0.3554 0.7945 0.0000
vt 0.3568 0.8370 0.0000
vt 0.3535 0.8158 0.0000
vt 0.3386 0.7862 0.0000
vt 0.3461 0.8505 0.0000
vt 0.3499 0.8171 0.0000
vt 0.3282 0.7803 0.0000
vt 0.3273 0.8532 0.0000
vt 0.3126 0.8416 0.0000
vt 0.3268 0.8254 0.0000
vt 0.3286 0.8214 0.0000
vt 0.3056 0.7864 0.0000
vt 0.2954 0.7886 0.0000
vt 0.2784 0.7997 0.0000
vt 0.4902 0.6085 0.0000
vt 0.5379 0.6083 0.0000
vt 0.5386 0.6136 0.0000
vt 0.5135 0.6569 0.0000
vt 0.5679 0.6477 0.0000
vt 0.5544 0.6664 0.0000
vt 0.5847 0.9806 0.0000
vt 0.6136 0.9816 0.0000
vt 0.6028 0.9973 0.0000
vt 0.5805 0.9987 0.0000
vt 0.0244 0.9748 0.0000
vt 0.0459 0.9656 0.0000
vt 0.0531 0.9805 0.0000
vt 0.0412 0.9923 0.0000
vt 0.0766 0.9575 0.0000
vt 0.0753 0.9787 0.0000
vt 0.4838 0.7471 0.0000
vt 0.4574 0.7027 0.0000
vt 0.4926 0.6872 0.0000
vt 0.5038 0.7454 0.0000
vt 0.5387 0.6888 0.0000
vt 0.5285 0.7026 0.0000
vt 0.5216 0.7422 0.0000
vt 0.6320 0.9316 0.0000
vt 0.6480 0.9324 0.0000
vt 0.6341 0.9482 0.0000
vt 0.6192 0.9470 0.0000
vt 0.6610 0.9428 0.0000
vt 0.6399 0.9587 0.0000
vt 0.6156 0.9636 0.0000
vt 0.5378 0.7350 0.0000
vt 0.1290 0.6685 0.0000
vt 0.0931 0.7096 0.0000
vt 0.0863 0.6506 0.0000
vt 0.1055 0.6447 0.0000
vt 0.0716 0.5807 0.0000
vt 0.1116 0.5911 0.0000
vt 0.0603 0.6729 0.0000
vt 0.4203 0.7384 0.0000
vt 0.4649 0.7769 0.0000
vt 0.4908 0.7938 0.0000
vt 0.1509 0.6090 0.0000
vt 0.2097 0.5123 0.0000
vt 0.2083 0.5438 0.0000
vt 0.1706 0.5381 0.0000
vt 0.1588 0.5129 0.0000
vt 0.1808 0.5759 0.0000
vt 0.1433 0.5594 0.0000
vt 0.1101 0.5391 0.0000
vt 0.1093 0.8277 0.0000
vt 0.1542 0.8493 0.0000
vt 0.1356 0.9044 0.0000
vt 0.0838 0.8886 0.0000
vt 0.2161 0.9365 0.0000
vt 0.1298 0.9423 0.0000
vt 0.2032 0.9013 0.0000
vt 0.1928 0.8664 0.0000
vt 0.1846 0.7960 0.0000
vt 0.2214 0.8419 0.0000
vt 0.2587 0.8870 0.0000
vt 0.5181 0.7976 0.0000
vt 0.5316 0.8856 0.0000
vt 0.4630 0.8756 0.0000
vt 0.4386 0.9212 0.0000
vt 0.5164 0.9392 0.0000
vt 0.5893 0.9581 0.0000
vt 0.5903 0.9327 0.0000
vt 0.6113 0.9208 0.0000
vt 0.5735 0.8646 0.0000
vt 0.5449 0.7940 0.0000
vt 0.6347 0.8278 0.0000
vt 0.6386 0.8888 0.0000
vt 0.6237 0.8928 0.0000
vt 0.6118 0.8428 0.0000
vt 0.0575 0.9415 0.0000
vt 0.0445 0.8962 0.0000
vt 0.0694 0.8085 0.0000
vt 0.0249 0.8931 0.0000
vt 0.0485 0.7959 0.0000
vt 0.1169 0.7311 0.0000
vt 0.1452 0.7565 0.0000
vt 0.1563 0.6823 0.0000
vt 0.1794 0.7019 0.0000
vt 0.2195 0.7461 0.0000
vt 0.2544 0.8140 0.0000
vt 0.2175 0.6474 0.0000
vt 0.2643 0.7112 0.0000
vt 0.2449 0.6240 0.0000
vt 0.2794 0.6982 0.0000
vt 0.2837 0.6069 0.0000
vt 0.2936 0.6867 0.0000
vt 0.3369 0.5700 0.0000
vt 0.3213 0.6766 0.0000
vt 0.3167 0.7794 0.0000
vt 0.3433 0.8221 0.0000
vt 0.3362 0.6815 0.0000
vt 0.3715 0.5841 0.0000
vt 0.3904 0.6052 0.0000
vt 0.3496 0.6898 0.0000
vt 0.4205 0.6574 0.0000
vt 0.3859 0.7079 0.0000
vt 0.3793 0.8173 0.0000
vt 0.3628 0.8597 0.0000
vt 0.4271 0.8609 0.0000
vt 0.3972 0.8983 0.0000
vt 0.3435 0.8823 0.0000
vt 0.3659 0.9243 0.0000
vt 0.4244 0.9562 0.0000
vt 0.3280 0.9383 0.0000
vt 0.4162 0.9813 0.0000
vt 0.5124 0.9702 0.0000
vt 0.5110 0.9931 0.0000
vt 0.2336 0.9637 0.0000
vt 0.1415 0.9775 0.0000
vt 0.3046 0.8806 0.0000
vt 0.3212 0.8887 0.0000
vt 0.2904 0.9186 0.0000
vt 0.3369 0.8548 0.0000
vt 0.2846 0.8639 0.0000
vt 0.4457 0.5839 0.0000
vt 0.4592 0.6232 0.0000
vt 0.4937 0.5766 0.0000
vt 0.4365 0.5556 0.0000
vt 0.4925 0.5483 0.0000
vt 0.5529 0.5567 0.0000
vt 0.5447 0.5855 0.0000
vt 0.5995 0.5915 0.0000
vt 0.5849 0.6216 0.0000
vt 0.6295 0.6353 0.0000
vt 0.6116 0.6652 0.0000
vt 0.5830 0.6880 0.0000
vt 0.6425 0.7174 0.0000
vt 0.6077 0.7452 0.0000
vt 0.5798 0.7760 0.0000
vt 0.5603 0.7188 0.0000
vt 0.6657 0.8156 0.0000
vt 0.6806 0.8969 0.0000
vt 0.6606 0.8982 0.0000
vt 0.6920 0.8022 0.0000
vt 0.6675 0.7025 0.0000
vt 0.7256 0.7914 0.0000
vt 0.7264 0.6704 0.0000
vt 0.6630 0.5982 0.0000
vt 0.0089 0.8830 0.0000
vt 0.0229 0.7873 0.0000
vt 0.7036 0.8884 0.0000
vt 0.0310 0.9457 0.0000
vt 0.0130 0.9481 0.0000
vt 0.6747 0.9521 0.0000
vt 0.6473 0.9738 0.0000
vt 0.6189 0.5573 0.0000
vt 0.5554 0.5285 0.0000
vt 0.4884 0.5158 0.0000
vt 0.4177 0.5258 0.0000
vt 0.2479 0.5649 0.0000
vt 0.2665 0.5262 0.0000
vt 0.2187 0.5961 0.0000
vt 0.1864 0.6287 0.0000
# 172 texture coords

g Group002
usemtl defaultMat
s 1
f 1/1/1 2/2/2 3/3/3 4/4/4 
f 5/5/5 6/6/6 3/3/3 2/2/2 
f 7/7/7 4/4/4 3/3/3 6/6/6 
f 8/8/8 9/9/9 10/10/10 11/11/11 
f 12/12/12 11/11/11 10/10/10 13/13/13 
f 14/14/14 13/13/13 10/10/10 9/9/9 
f 15/15/15 16/16/16 17/17/17 18/18/18 
f 19/19/19 20/20/20 17/17/17 16/16/16 
f 21/21/21 22/22/22 23/23/23 24/24/24 
f 25/25/25 26/26/26 23/27/23 22/28/22 
f 27/29/27 24/30/24 23/27/23 26/26/26 
f 28/31/28 29/32/29 30/33/30 31/34/31 
f 32/35/32 33/36/33 30/33/30 18/18/18 
f 34/37/34 31/34/31 30/33/30 33/36/33 
f 35/38/35 36/39/36 37/40/37 38/41/38 
f 39/42/39 40/43/40 37/40/37 36/39/36 
f 41/44/41 38/41/38 37/40/37 40/43/40 
f 42/45/42 34/37/34 33/36/33 32/35/32 
f 43/46/43 44/47/44 45/48/45 46/49/46 
f 46/49/46 45/48/45 47/50/47 48/51/48 
f 49/52/49 47/50/47 45/48/45 44/47/44 
f 50/53/50 29/32/29 28/31/28 51/54/51 
f 52/55/52 51/54/51 28/31/28 31/34/31 
f 53/56/53 43/46/43 46/49/46 48/51/48 
f 54/57/54 55/58/55 56/59/56 57/60/57 
f 58/61/58 59/62/59 56/59/56 55/58/55 
f 60/63/60 57/60/57 56/59/56 59/62/59 
f 61/64/61 62/65/62 63/66/63 64/67/64 
f 65/68/65 66/69/66 63/66/63 67/70/67 
f 68/71/68 67/70/67 63/66/63 62/65/62 
f 69/72/69 70/73/70 68/71/68 62/65/62 
f 71/74/71 67/70/67 68/71/68 70/73/70 
f 52/55/52 72/75/72 73/76/73 74/77/74 
f 75/78/75 74/77/74 73/76/73 76/79/76 
f 77/80/77 76/79/76 73/76/73 78/81/78 
f 79/82/79 78/81/78 73/76/73 80/83/80 
f 81/84/81 80/83/80 73/76/73 72/75/72 
f 82/85/82 83/86/83 84/87/84 85/88/85 
f 35/38/35 79/82/79 84/87/84 83/86/83 
f 80/83/80 85/88/85 84/87/84 79/82/79 
f 86/89/86 87/90/87 64/67/64 63/66/63 
f 88/91/88 61/64/61 64/67/64 87/90/87 
f 89/92/89 90/93/90 88/91/88 87/90/87 
f 44/47/44 91/94/91 88/91/88 90/93/90 
f 92/95/92 61/64/61 88/91/88 91/94/91 
f 62/65/62 61/64/61 92/95/92 69/72/69 
f 93/96/93 94/97/94 92/95/92 91/94/91 
f 95/98/95 69/72/69 92/95/92 94/97/94 
f 70/73/70 69/72/69 95/98/95 96/99/96 
f 97/100/97 98/101/98 95/98/95 94/97/94 
f 14/14/14 96/99/96 95/98/95 98/101/98 
f 99/102/99 100/103/100 98/101/98 97/100/97 
f 13/13/13 14/14/14 98/101/98 100/103/100 
f 101/104/101 102/105/102 100/103/100 99/102/99 
f 12/12/12 13/13/13 100/103/100 102/105/102 
f 103/106/103 104/107/104 102/105/102 101/104/101 
f 105/108/105 12/12/12 102/105/102 104/107/104 
f 11/11/11 12/12/12 105/108/105 106/109/106 
f 107/110/107 7/7/7 105/108/105 104/107/104 
f 6/6/6 106/109/106 105/108/105 7/7/7 
f 103/106/103 108/111/108 107/110/107 104/107/104 
f 109/112/109 110/113/110 107/110/107 108/111/108 
f 4/4/4 7/7/7 107/110/107 110/113/110 
f 111/114/111 112/115/112 110/113/110 109/112/109 
f 1/1/1 4/4/4 110/113/110 112/115/112 
f 29/32/29 50/53/50 112/115/112 111/114/111 
f 113/116/113 1/1/1 112/115/112 50/53/50 
f 2/2/2 1/1/1 113/116/113 114/117/114 
f 51/54/51 115/118/115 113/116/113 50/53/50 
f 116/119/116 114/117/114 113/116/113 115/118/115 
f 117/120/117 114/117/114 116/119/116 118/121/118 
f 74/77/74 75/78/75 116/119/116 115/118/115 
f 119/122/119 118/121/118 116/119/116 75/78/75 
f 120/123/120 118/121/118 119/122/119 121/124/121 
f 76/79/76 122/125/122 119/122/119 75/78/75 
f 123/126/123 121/124/121 119/122/119 122/125/122 
f 65/68/65 121/127/121 123/128/123 66/69/66 
f 21/21/21 24/24/24 123/126/123 122/125/122 
f 27/29/27 66/69/66 123/128/123 24/30/24 
f 77/80/77 21/21/21 122/125/122 76/79/76 
f 124/129/124 125/130/125 120/123/120 126/131/126 
f 117/120/117 118/121/118 120/123/120 125/130/125 
f 65/68/65 126/131/126 120/123/120 121/127/121 
f 8/8/8 127/132/127 125/130/125 124/129/124 
f 5/5/5 117/120/117 125/130/125 127/132/127 
f 11/11/11 106/109/106 127/132/127 8/8/8 
f 6/6/6 5/5/5 127/132/127 106/109/106 
f 9/9/9 8/8/8 124/129/124 128/133/128 
f 71/74/71 128/133/128 124/129/124 126/131/126 
f 70/73/70 96/99/96 128/133/128 71/74/71 
f 14/14/14 9/9/9 128/133/128 96/99/96 
f 67/70/67 71/74/71 126/131/126 65/68/65 
f 2/2/2 114/117/114 117/120/117 5/5/5 
f 52/55/52 74/77/74 115/118/115 51/54/51 
f 129/134/129 130/135/130 111/114/111 109/112/109 
f 30/33/30 29/32/29 111/114/111 130/135/130 
f 131/136/131 15/15/15 130/135/130 129/134/129 
f 18/18/18 30/33/30 130/135/130 15/15/15 
f 132/137/132 133/138/133 131/136/131 129/134/129 
f 134/139/134 135/140/135 131/136/131 133/138/133 
f 16/16/16 15/15/15 131/136/131 135/140/135 
f 136/141/136 137/142/137 135/140/135 134/139/134 
f 19/19/19 16/16/16 135/140/135 137/142/137 
f 138/143/138 139/144/139 137/142/137 136/141/136 
f 140/145/140 19/19/19 137/142/137 139/144/139 
f 141/146/141 142/147/142 140/145/140 139/144/139 
f 143/148/143 144/149/144 140/145/140 142/147/142 
f 20/20/20 19/19/19 140/145/140 144/149/144 
f 81/84/81 42/45/42 144/149/144 143/148/143 
f 32/35/32 20/20/20 144/149/144 42/45/42 
f 82/85/82 85/88/85 143/148/143 142/147/142 
f 80/83/80 81/84/81 143/148/143 85/88/85 
f 145/150/145 82/85/82 142/147/142 141/146/141 
f 146/151/146 147/152/147 145/150/145 148/153/148 
f 83/86/83 82/85/82 145/150/145 147/152/147 
f 149/154/149 148/153/148 145/150/145 141/146/141 
f 150/155/150 148/153/148 149/154/149 49/156/49 
f 139/144/139 138/143/138 149/154/149 141/146/141 
f 47/157/47 49/156/49 149/154/149 138/143/138 
f 89/92/89 151/158/151 150/159/150 90/93/90 
f 146/151/146 148/153/148 150/155/150 151/160/151 
f 44/47/44 90/93/90 150/159/150 49/52/49 
f 152/161/152 153/162/153 151/158/151 89/92/89 
f 39/42/39 146/151/146 151/160/151 153/163/153 
f 26/26/26 25/25/25 153/162/153 152/161/152 
f 40/43/40 39/42/39 153/163/153 25/164/25 
f 27/29/27 26/26/26 152/161/152 86/89/86 
f 87/90/87 86/89/86 152/161/152 89/92/89 
f 39/42/39 36/39/36 147/152/147 146/151/146 
f 35/38/35 83/86/83 147/152/147 36/39/36 
f 60/165/60 47/157/47 138/143/138 136/141/136 
f 57/166/57 60/165/60 136/141/136 134/139/134 
f 54/167/54 57/166/57 134/139/134 133/138/133 
f 154/168/154 54/167/54 133/138/133 132/137/132 
f 101/104/101 155/169/155 154/170/154 103/106/103 
f 55/58/55 54/57/54 154/170/154 155/169/155 
f 108/111/108 103/106/103 154/168/154 132/137/132 
f 99/102/99 156/171/156 155/169/155 101/104/101 
f 58/61/58 55/58/55 155/169/155 156/171/156 
f 97/100/97 157/172/157 156/171/156 99/102/99 
f 53/56/53 58/61/58 156/171/156 157/172/157 
f 94/97/94 93/96/93 157/172/157 97/100/97 
f 43/46/43 53/56/53 157/172/157 93/96/93 
f 109/112/109 108/111/108 132/137/132 129/134/129 
f 44/47/44 43/46/43 93/96/93 91/94/91 
f 66/69/66 27/29/27 86/89/86 63/66/63 
f 34/37/34 42/45/42 81/84/81 72/75/72 
f 38/41/38 78/81/78 79/82/79 35/38/35 
f 38/41/38 41/44/41 77/80/77 78/81/78 
f 22/22/22 21/21/21 77/80/77 41/44/41 
f 31/34/31 34/37/34 72/75/72 52/55/52 
f 48/51/48 47/50/47 60/63/60 59/62/59 
f 53/56/53 48/51/48 59/62/59 58/61/58 
f 25/164/25 22/22/22 41/44/41 40/43/40 
f 17/17/17 20/20/20 32/35/32 18/18/18 
# 155 polygons

