# 3ds Max Wavefront OBJ Exporter v0.97b - (c)2007 guruware
# File Created: 09.10.2014 20:10:22

mtllib stop.mtl

#
# object Plane001
#

v  -8.7044 50.7478 1.1098
v  -8.4056 44.3815 1.1098
v  -4.0462 39.5208 1.1098
v  4.0853 56.1846 1.1098
v  3.4831 39.7464 1.1098
v  8.4326 44.6280 1.1098
v  8.2298 51.0412 1.1098
v  -3.6950 56.0979 1.1098
v  4.0853 56.1846 -1.2241
v  -3.6950 56.0979 -1.2241
v  -8.7044 50.7478 -1.2241
v  -8.4056 44.3815 -1.2241
v  -4.0462 39.5208 -1.2241
v  3.4831 39.7464 -1.2241
v  8.4326 44.6280 -1.2241
v  8.2298 51.0412 -1.2241
v  -0.6636 -0.0000 0.7961
v  -0.6636 -0.0000 -0.8704
v  0.4628 -0.0000 -0.8704
v  0.4628 -0.0000 0.7961
v  -0.6636 54.9824 0.7961
v  0.4628 54.9824 0.7961
v  0.4628 54.9824 -0.8704
v  -0.6636 54.9824 -0.8704
# 24 vertices

vn 0.0000 -0.0000 1.0000
vn -0.0111 0.9999 0.0000
vn -0.7300 0.6835 -0.0000
vn -0.9989 -0.0469 -0.0000
vn -0.7445 -0.6677 0.0000
vn 0.0299 -0.9996 -0.0000
vn 0.7022 -0.7120 -0.0000
vn 0.9995 0.0316 -0.0000
vn 0.7787 0.6274 0.0000
vn -0.0000 0.0000 -1.0000
vn 0.0000 0.0000 -1.0000
vn -0.0000 -0.0000 -1.0000
vn 0.0000 -1.0000 -0.0000
vn -0.0000 1.0000 0.0000
vn 1.0000 0.0000 -0.0000
vn -1.0000 -0.0000 0.0000
# 16 vertex normals

vt 0.5079 0.4597 0.0000
vt 0.5070 0.4136 0.0000
vt 0.5381 0.3824 0.0000
vt 0.5846 0.4935 0.0000
vt 0.5876 0.3820 0.0000
vt 0.6155 0.4152 0.0000
vt 0.6159 0.4580 0.0000
vt 0.5394 0.4903 0.0000
vt 0.3358 0.3889 0.0000
vt 0.3369 0.2528 0.0000
vt 0.3801 0.2532 0.0000
vt 0.3796 0.3893 0.0000
vt 0.3801 0.2595 0.0000
vt 0.3794 0.3893 0.0000
vt 0.3358 0.3890 0.0000
vt 0.3369 0.2592 0.0000
vt 0.3566 0.4971 0.0000
vt 0.3568 0.4991 0.0000
vt 0.3359 0.3828 0.0000
vt 0.3793 0.3831 0.0000
vt 0.3370 0.2483 0.0000
vt 0.3802 0.2486 0.0000
vt 0.3801 0.2607 0.0000
vt 0.3792 0.3835 0.0000
vt 0.3358 0.3832 0.0000
vt 0.3368 0.2604 0.0000
vt 0.3572 0.5000 0.0000
vt 0.3558 0.4966 0.0000
vt 0.5072 0.4590 0.0000
vt 0.5065 0.4165 0.0000
vt 0.5368 0.3813 0.0000
vt 0.5852 0.4919 0.0000
vt 0.5849 0.3826 0.0000
vt 0.6153 0.4135 0.0000
vt 0.6160 0.4583 0.0000
vt 0.5407 0.4913 0.0000
vt 0.4629 0.3715 0.0000
vt 0.4629 0.3790 0.0000
vt 0.4579 0.3790 0.0000
vt 0.4579 0.3715 0.0000
vt 0.4579 0.2530 0.0000
vt 0.4629 0.2530 0.0000
vt 0.4629 0.4975 0.0000
vt 0.4579 0.4975 0.0000
vt 0.4567 0.2530 0.0000
vt 0.4641 0.2530 0.0000
vt 0.4641 0.4975 0.0000
vt 0.4567 0.4975 0.0000
# 48 texture coords

g Plane001
usemtl 08___Default
s 1
f 1/1/1 2/2/1 3/3/1 4/4/1 
f 3/3/1 5/5/1 6/6/1 4/4/1 
f 6/6/1 7/7/1 4/4/1 
f 8/8/1 1/1/1 4/4/1 
s off
f 9/9/2 10/10/2 8/11/2 4/12/2 
f 10/13/3 11/14/3 1/15/3 8/16/3 
f 11/14/4 12/17/4 2/18/4 1/15/4 
f 12/17/5 13/19/5 3/20/5 2/18/5 
f 13/19/6 14/21/6 5/22/6 3/20/6 
f 14/23/7 15/24/7 6/25/7 5/26/7 
f 15/24/8 16/27/8 7/28/8 6/25/8 
f 16/27/9 9/9/9 4/12/9 7/28/9 
f 16/29/10 15/30/10 14/31/10 10/32/10 
f 14/31/10 13/33/10 12/34/10 10/32/10 
f 12/34/11 11/35/11 10/32/11 
f 9/36/12 16/29/12 10/32/12 
s 2
f 17/37/13 18/38/13 19/39/13 20/40/13 
s 4
f 21/40/14 22/37/14 23/38/14 24/39/14 
s 8
f 17/41/1 20/42/1 22/43/1 21/44/1 
s 16
f 20/45/15 19/46/15 23/47/15 22/48/15 
s 32
f 19/41/10 18/42/10 24/43/10 23/44/10 
s 64
f 18/45/16 17/46/16 21/47/16 24/48/16 
# 18 polygons - 4 triangles

