# 3ds Max Wavefront OBJ Exporter v0.97b - (c)2007 guruware
# File Created: 30.09.2014 21:02:17

mtllib way_turn.mtl

#
# object Box003
#

v  30.0000 3.6515 30.0000
v  30.0000 3.6515 -30.0000
v  -30.0000 3.6515 -30.0000
v  -30.0000 3.6515 30.0000
v  -30.0000 0.0000 -30.0000
v  -30.0000 0.0000 30.0000
v  30.0000 0.0000 30.0000
v  30.0000 0.0000 -30.0000
# 8 vertices

vn 0.0000 1.0000 -0.0000
vn -1.0000 0.0000 -0.0000
vn -0.0000 0.0000 1.0000
vn 1.0000 0.0000 0.0000
vn 0.0000 0.0000 -1.0000
# 5 vertex normals

vt 0.9993 0.2503 0.0000
vt 0.9993 0.5000 0.0000
vt 0.7499 0.4998 0.0000
vt 0.7499 0.2504 0.0000
vt 0.9983 0.5026 0.0000
vt 0.9983 0.7473 0.0000
vt 0.9834 0.7473 0.0000
vt 0.9834 0.5026 0.0000
# 8 texture coords

g Box003
usemtl 03___Default
s 1
f 1/1/1 2/2/1 3/3/1 4/4/1 
f 4/5/2 3/6/2 5/7/2 6/8/2 
f 1/5/3 4/6/3 6/7/3 7/8/3 
f 2/5/4 1/6/4 7/7/4 8/8/4 
f 3/5/5 2/6/5 8/7/5 5/8/5 
# 5 polygons

